<mxfile host="65bd71144e">
    <diagram id="-k2_nvyl8h7EHHhGBUQ3" name="智能指针">
        <mxGraphModel dx="5635" dy="5506" grid="1" gridSize="10" guides="1" tooltips="1" connect="1" arrows="1" fold="1" page="1" pageScale="1" pageWidth="827" pageHeight="1169" math="0" shadow="0">
            <root>
                <mxCell id="6dMJGXCS0I9ftsZN87XB-0"/>
                <mxCell id="6dMJGXCS0I9ftsZN87XB-1" parent="6dMJGXCS0I9ftsZN87XB-0"/>
                <mxCell id="6dMJGXCS0I9ftsZN87XB-5" value="MakeShareable" style="shape=step;perimeter=stepPerimeter;whiteSpace=wrap;html=1;fixedSize=1;" parent="6dMJGXCS0I9ftsZN87XB-1" vertex="1">
                    <mxGeometry x="150" y="80" width="120" height="80" as="geometry"/>
                </mxCell>
                <mxCell id="6dMJGXCS0I9ftsZN87XB-6" value="FRawPtrProxy" style="whiteSpace=wrap;html=1;" parent="6dMJGXCS0I9ftsZN87XB-1" vertex="1">
                    <mxGeometry x="300" y="90" width="120" height="60" as="geometry"/>
                </mxCell>
                <mxCell id="6dMJGXCS0I9ftsZN87XB-8" value="NewDefaultReferenceController" style="shape=step;perimeter=stepPerimeter;whiteSpace=wrap;html=1;fixedSize=1;" parent="6dMJGXCS0I9ftsZN87XB-1" vertex="1">
                    <mxGeometry x="460" y="80" width="120" height="80" as="geometry"/>
                </mxCell>
                <mxCell id="6dMJGXCS0I9ftsZN87XB-9" value="TReferenceControllerWithDeleter" style="whiteSpace=wrap;html=1;" parent="6dMJGXCS0I9ftsZN87XB-1" vertex="1">
                    <mxGeometry x="740" y="110" width="120" height="60" as="geometry"/>
                </mxCell>
                <mxCell id="6dMJGXCS0I9ftsZN87XB-10" value="DefaultDeleter" style="whiteSpace=wrap;html=1;" parent="6dMJGXCS0I9ftsZN87XB-1" vertex="1">
                    <mxGeometry x="610" y="40" width="120" height="60" as="geometry"/>
                </mxCell>
                <mxCell id="6dMJGXCS0I9ftsZN87XB-11" value="通过标准的删除操作符删除对象" style="text;html=1;align=center;verticalAlign=middle;resizable=0;points=[];autosize=1;strokeColor=none;fillColor=none;" parent="6dMJGXCS0I9ftsZN87XB-1" vertex="1">
                    <mxGeometry x="560" y="20" width="180" height="20" as="geometry"/>
                </mxCell>
                <mxCell id="6dMJGXCS0I9ftsZN87XB-12" value="FReferenceControllerBase" style="whiteSpace=wrap;html=1;" parent="6dMJGXCS0I9ftsZN87XB-1" vertex="1">
                    <mxGeometry x="780" y="40" width="120" height="60" as="geometry"/>
                </mxCell>
                <mxCell id="6dMJGXCS0I9ftsZN87XB-13" value="这里涉及到计数" style="text;html=1;align=center;verticalAlign=middle;resizable=0;points=[];autosize=1;strokeColor=none;fillColor=none;" parent="6dMJGXCS0I9ftsZN87XB-1" vertex="1">
                    <mxGeometry x="780" y="10" width="100" height="20" as="geometry"/>
                </mxCell>
                <mxCell id="6dMJGXCS0I9ftsZN87XB-14" value="" style="shape=image;verticalLabelPosition=bottom;labelBackgroundColor=#ffffff;verticalAlign=top;aspect=fixed;imageAspect=0;image=data:image/png,iVBORw0KGgoAAAANSUhEUgAABDcAAACZCAYAAAA7FNFaAAAgAElEQVR4Ae2dDbBlVXXnu7SkqEDKEaJQkS85bfs6TSNI0yggNH4Q+ykJQtOaID0oYoNAAqRB6YiCiM2XyocIHegZKJsGWzuk9RoiiOZjZBQ1A6Ldk1QyJn6U0cmEGWOMqKk1tT/WPmvvvfY5595337v3vvfvqq5z7zln77322r9z7ln/t/Y+iza860raeOU14f81H7yRvvAXj4XvfOyggw6iqqro0EMPtdvly5fTJZdcYj+b/fgPH4ABMAAGwAAYAANgAAyAATAABsAAGAADo2BgEcQNgDcK8NAmuAMDYAAMgAEwAAbAABgAA2AADICBYTEwsLixbNkyWrduHTI2kLUCBsAAGAADYAAMgAEwAAbAABgAA2AADIyUgYHFjWGpK6gHSh0YAANgAAyAATAABsAAGAADYAAMgAEwMBMGIG5AXRupujYTeFEWNz8wAAbAABgAA2AADIABMAAGwAAYMAxA3IC4AXEDDIABMAAGwAAYAANgAAyAATAABsDARDMwsLhh1txYv379RHceCh8UPjAABsAAGAADYAAMgAEwAAbAABgAA5PPwMDiBl4FO/mDjwsYYwgGwAAYAANgAAyAATAABsAAGAAD84EBiBtIPUL2DRgAA2AADIABMAAGwAAYAANgAAyAgYlmYGBxY+nSpbRmzZqJ7vx8UKfQB6isYAAMgAEwAAbAABgAA2AADIABMLDQGRhY3FjojkP/cfMAA2AADIABMAAGwAAYAANgAAyAATAwHgxA3EDqEbJvwAAYAANgAAyAATAABsAAGAADYAAMTDQDEDcA8EQDDJV0PFRSjAPGAQyAATAABsAAGAADYAAMgIFRMjCwuIG3pQDcUYKLtsEfGAADYAAMgAEwAAbAABgAA2AADDADEDeQuYHMDTAABsAAGAADYAAMgAEwAAbAABgAAxPNAMQNADzRALNKhy0UWzAABsAAGAADYAAMgAEwAAbAwMJlYGBxY8mSJbRq1SoExhBHwAAYAANgAAyAATAABsAAGAADYAAMgIGRMjCwuAFFbOEqYhh7jD0YAANgAAyAATAABsAAGAADYAAMjBMDEDegro1UXRuniwG24OYMBsAAGAADYAAMgAEwAAbAABiYTAYGFjfMtJSVK1ciMIY4AgbAABgAA2AADIABMAAGwAAYAANgAAyMlIGBxQ28CnYy1SyokBg3MAAGwAAYAANgAAyAATAABsAAGJhvDMwbceNl7zmZ3vThFbQ0UcsOu+BEet1FU2UF6YxX0Bveezi9JCnXbaAPp5PunqY3bfP//+hYOuqluEi6+W7IfjrjFXQaj8O2aZpuGvOBxnrI9sKG+po8aQWtvre+jvKxi6+zUwe+XmdvDEv3n+xa8JzmfWyxzZZbRce9ouW8jlxZe7cNr76snx3tGG65pXTsTa+r78fK74Hr9xzery3br6VXvfnFNe9Nvmm9FoYz/kPxe9ffzn590OQfHOvGEfwEP4EBMAAGwMACZWCeiBsm+JEPkO4h1wQQQdwwwYF42DUPuTZI4gc08wD2sX7ECR9wiTqrk1bQazYOKpQM8tDq+jmOwd5QHp67XpQ+IOg7YOxaP86z19GaWRfv3DVVHsfx5R3ihr9/DVmEGfQ+0jYe5ndh9nmuyPwmrL5X/jZ1vc+3XQtN9czuddLvb6f1tfydxP0UD9xgAAyAATAABsDALDEwsLgxTmtulB5U7QMu/zVfebiy5fh4n4GbrbvPMoM+qJfLze5DbLndpgfrERwbk4BqYvw1wM2kdI0Nt89tAd348t4WTM/YT5PC+JjY2TYec8Pz/BQ3DMvdfzvbrukR/F4McP+b8fWLNvEQDwbAABgAA2BgThgYWNwYnx97F/Bof+2V4oaW3RA9oCniR7mPHR7Y7F/sTNq3O9dNXUnSwH3GAU9ryWxMjr8piCmuz1wu2oZzzENjcl50zD1USh+ZejIbWi7EyId9lze+MX/VXCbSyZO/ciY+UO1rDKiafWDtN2Nv6/Dp6gkLsY/iMTTHjE1Hm2lRXijLbUxsSKfNdOljn+MQT9GSDJo+yj7wGBwhpljVY5COL/fxTdvqcyrjO8PW68X0koS1tJ7cR4ZHZ6d2Lbtr0fmxqWywTxlDU+6l5i/2xXHSAy07/kl91h7u90sr4nOOKXGQjLHexwZOmPFzxPSrxMfl+1Xt2+Af64OUg2Q6F7cppsLE14K4X9hz66lFsh29r7qvs3tWy7VS3xPj+ng80mmK7CPLo+q/hjFouQajulk0t1txrZg6El/p/mm4FhKW6ushtz2MQ9TX5LzoWOxH7lO6ja5n7dpgX5m+DlB/2h6+dxsX+Al+AgNgAAyAgYXOwOSLG8oDOD8gm4dG8xBm1tywD2PiIcw8/NqHQp6W0s9DmH+41B9K/UUlHkD5vOiBO6vDPcxGD6rvf7lYwyM9btpxD6l1GXlB+wfYpM8yGCg/4Mt6Gj6n03DsWCQP8vyQq25dn8wDOPchsqnFR2mglT/Id/RBFOjFQYVtQzycW/uEOMA2sP0ucJE+yG2IbjotfYzOVX3If0WVgaocs5ybuA88BrXNaZ+NDdG4pHbYcTeBLdcRcxm3Z2zLbXL9jH2f9z2utz6e1pf7nMcp8G/9zvZKf+Wfrf3iOuJ25X6uv8wB11vqY24zt2O37OPAYtpnrr/j1tYnmVHsSs5pZICZSMpEfeBzitsWH5j7Xes90fXfjocyZmxPqS9t5bh8aWvrFfeHbFqK9Y/gLrv+efyU8TB+y87XOChdJ6bu3Me2z4Erbr+8Nedbzlt/O5vsKNdf8i32w2dgAAyAATAABsBAGwMDixtmWsqqVavmJL2kqRPhQavwwGweNoe+oGj2gKmAppwjH6jt5+ThWx7X+pw/eDc8PNr2ZfDCD8b1g7VtLwSkSh8KPtVsc/sKD+TFepQHcxEcdfaRKBPZ1tkH0k/Sp8a+2l9aH/MxSXxQss37pHMfW3zIAlrUf1NGbV/aKD97BpQyjWza82M/1X6R/qwZ0+tTbIn6rdcVMkfkYr5JH6w9UQDX1lZtq6xfjpf8XPeXy5XqL+xP7O0yjnmb3HaHbdaeYldyju1v2/0iKZP1IxrPxM4BypZ8UNrP9uj8+QwcKU402Zsdc3xG16K9B9XXhrErCGC+vG6rMh4sMrb+bhSuE9Neh3si+6h1y+JG5gc/rlpbpXOxf+TPUq3jjTHCGIEBMAAGwMAEMDCwuDEWr4Id2cOT/uAZPRwkD7XRsYofopU0bhGAuWAiOSd6sG14iLWBQlJWSZGO25BBfhJ4qDC79kPGhE/Fjh7u1XJcd7Mf7UO/rzNqQ/jI+rUUFHXwQSnIsfXaMdR8WKfv54FJ3KfG+jtykLITfW/hTG9fchPbW/KnXo8fx5L/7dgr9Zv9apnCuYEhaTczxJkr2jjVPOfjVJeP/BnaEsfDfca0/2r6rY+dYN9aYurkQDWvv9QXfX+jfwv+ytsUNmv9kPsy/yt2Zeekvq79G3yolAnHZPvK51YfcHCf3hOie6LzQZtvmtqyZbmN9F6j2F33T/FhdH3q90t7b8v6oNTV+X6hXyfWTjs+2rVSCzB1f/rgSfGL8SNfH8OqE/XMbEzgP/gPDIABMAAG5jsDEy1u2AfU7KFwLqD1D6lNbUcPtblNrbbbh9D4gTN/YG94iA0BWd52CWpbfx8P8/n5+gN5qT2enlASQ1p9xA/UpYCqgw+aghxnXzwGaV/yMUl8ULLN2965j9zXbJu0lx5X25dl5GfPilKm0U/K+bWfdEb1+hRbov7odcnMirrdmPt8nOLjpXJuv7FrFR132gpafcMKOtJmgy2368Qwu3n9pb4U9jf6UBeD8jb76FPWnmJXdk5cv20/vV+0lGn0c1tZezy+Hks+KO3n9nX+4v5pUzi4vL5VfJj8Dhi7ugX8Sl0s7jT97tjrpXCdmGMd7ol631LftH039sdjNZx629rFcfgZDIABMAAGwMBCZmCCxY0RPzzZB+16rQgLkVyDInmozSCzx+sMgPS4ffiW6dG+vXihSJ8BkgYY4gE3PT9tR37v9sDPNwz3AC3rtwFFugBgFJxyWd7qD/DBphYfhfOKQVFuYyjj7Wrrs+2T6l/XhzyISvvkvks/RTZ07WODH53flb+i2zKufRlQxX1K7dUDaZdpUQhWiv53PspYLvZZsSXqdyloy/sY+Zj/4t0aFDKX6da0+2p63QdPclPcjP03vJxOvOnV9Ko3v9imKLZzwHWW+uj2FzlRfJy3yW102Gb1Jb71YxQvPhvXq147xbGNy6bj4743+yDjyPZhmjSftflGtT1izdnbVk/aj+j84ENx3VibxXelTekLFs9COx39a+1Q71vt98TQVtG29rG0/h34emuvfxg2og74GQyAATAABsDA/GNgYHFj5DCYh0T14W0OByk8vPo0X2mPPdbyEJuWFwtrhr8aivToV1xyIq3JHhh9QCDOOyqsPeAfZPmY2Qob7QOwPCbFlC4Pton9p773KDr+ptdR9kBerKsU6IkxTNowKdwyULccZoGaKM8L6Ml+Ch90CXKa/BQFM7afWp+SMUoFoC59LPrQ9TWzUXKS1i/6r2bPFPwZtyHYLpwv7xFx2VjUc0FrniofxtnWnx+Pg9rcx/J4Pk6SkfbPzn4WkPi64u/121Lqt3PEHLT2UbAjp2CFa0nx8Yz6pNTnBCz2s89UuTfpo7yOCveLtK+hDy0MO17ycazLs9/r+210T0w5Z1sD73ndztfcx6R+Uz6UbWckt99cI+YtROJaMT5QeOY+pr5jFsK1YMor/YyOayxF/RhGP5v84ernPsn7AD43+Q3HwAcYAANgAAyAgZkyMKHiBh6eZjrwKI+bBxhYwAxo4kYn8WEB+wz+6baQmmErElPADO61YAAMgAEwAAbAwNwwMJniBh7Muz1k4mEcfgIDYMAwcNIKOvG8Ke8L/5d7md0DTsDJUBhwbOWZJHPzQIMHR/gZDIABMAAGwMDCZmBgcWNqaoqmp6fxQDiUB8KFDSFuQhh/MDD7DERTgyBs4LcLv11gAAyAATAABsAAGJhnDAwsbozFq2Dn2WAgwJv9AA8+ho/BABgAA2AADIABMAAGwAAYAAPzjwGIGxBIoFiCATAABsAAGAADYAAMgAEwAAbAABiYaAYGFjeWLVtG69evn+jOQ62bf2odxhRjCgbAABgAA2AADIABMAAGwAAYWHgMDCxuAJaFBwvGHGMOBsAAGAADYAAMgAEwAAbAABgAA+PIAMQNpB4h+wYMgAEwAAbAABgAA2AADIABMAAGwMBEMwBxAwBPNMDjqBjCJijZYAAMgAEwAAbAABgAA2AADICBuWVgYHHDrLmxbt26hRsYn/oAvfHuXbTW/v8Kveq0YxauL+a5QHTHjmcT7V7k/+9BT1x8aBhre+yR/ek1XXzwpv3oh08toh8/cAAd3eX8IZzzzjv2ol8G27kPbjuXduDGPrc3dvgb/gYDYAAMgAEwAAbAABhYaAwMLG6M/lWwp9Gx1zxJp15+GS0ZQhA48MCfcAutvmNQceNSOum2XbT6Ha8NwfLAdgzkg9+gIy7573TG9XfR4QOVn/83DCtefGVfuvEI11cnFtQCx3iIGwfTo198Vqto0pet4GFE1+T8v6bm9h4Hf8LfYAAMgAEwAAbAABhYKAxA3JhpEDcx4sY0ve/eHm19/6kiaIO40Xih20yLWshw58ZCwngIBrFNpT6NzNYVG+jO3g666Rz8sJTGBvvBBhgAA2AADIABMAAGwAAYmBkDA4sbS5cupTVr1ohAeWaGdB9Il7HhpoPwtBC/vWU7HXU425GcJ4+ZKSW3bKcTrviqnVZy6uUfpuOvedJ+dlkUruzqd1xos0O4LTVLpEnciKau7KK1136UlloxxWVscL3RNpxTUWXrrvuott9FnDn2fLr5kz361G0X0Qn2fCdqRO3yFJu7/pKOf3VFi6c/Tr919zfoNb/D/jTbI+jlV+2iNRuvoqpydazZeI3N/uC60iyQF5/9p37qjulHXJ85Zs5/qTgnLV/9xo30m2yb2W5+0E/p8O2/5x468cO+7rP8ub4PlqmXnOePOz9m9Tf4z2ZpiKwNZlTuZ8HgE3Lqipimok0LyaaDXPE8ekZMHfnezS/KrivbjjjH1eFEjXrKjJh2otjNtsopNM6+vemzx8lxfiHtemIROTtcG9+7+UCbHcJtpX2I+5kKQhUtP3MTbevtpC0bp7O+sV+xlWOAz+ABDIABMAAGwAAYAANgAAz0w8DA4kY/jczOuU3TUrywIYSCl234Kq1lgcOLDkYseOnbH6HT73ZTQ+w5tkwtjIQpI7aMMv2kKG5cSiddyWJGLVSE+oTIEe/zAHthoz7mBJF+BY5jz7+ZPtlLMzb4ImnK3JBChjvfCh5BOKgFEid2VOSEiG/RGy54iw1grbARzs8FExY+guBghYy6vBVTrmQxo6LKCxVSXHGCibN1rWnrZCNm+Dqi800f3HmhvQZhwzBrA3YhVDDHdr8XD1h0CMG+X1dDEyiqSsmwsMKGEAOU8rYNRaxge9R6lb5p4kZVSSHDjbPsH9dtRI3Qp8RmJ2wIgSQ5Huy0GRw92rllI00r9oXzcAwCEBgAA2AADIABMAAGwAAYAAN9MjA/xQ0rDHyejl3JQTyLC16csEKFO36YETe86GE/C3EjFhI4myNZH6Moboi27aBoYkx5zY3alroeaWuXQHD6ffdSr7eV3n9qXUdcrkncqMiKD0mmRC0MaGXdPic+GCFBChXGhlgwievPj8e2muOyTflZ1lu3a8WYYL/zQSzQuH15O25/Z3EjEUCMiBDEjuiCzMUN7dxIhFCnxqR25/VqfYrqFXbF+9O60u+mbbcvzuyQ2SZaGW/z8jNp07Ye9XbcROcIGzR7sS8dZ3wHE2AADIABMAAGwAAYAANgoMTA/BQ30ukgYVrDzMWNWPBIRJMkWLOZIKFtNy0iLl8WN7SyduoHZ58kbWUD7KeizETccJkSfiqJzYKQ00qkuMAXmNiXTAfhaStmy5keXcQNzu6Q5Z3AItqKRJNa3NDK2npENknmN+HXOIOB+xhndMTCgDtH2+faSYN+952nekRbFkxsFoTIihD21ban9da21udUVLTLCii+DfnZtqXVLfe5zI/Idj99Rhd4VtCGO3vUwxQVKPEqyzq7kmN8ho/AABgAA2AADIABMAAGNAYGFjfMq2DXr18/wgd0LRPCD7KWuSEfpAfK3CgIEYXMDZtlcbfMHtHsLdRZVaRlbmgD2LZv8GkpxpdOQDBihMl4OCV6q4oUF/ji0jMoSja2iRs2yyJap0O2KT/r7WqZGyVb1P1q1oQM7DXBID4e15sfM4KDLgJ4n6o2sL95m9cbt+vOK4obIhPDCDpPR6+q1eqWU1nc8TBlRV5n6WdMSxnh/ZJZwVa7NrAPXIABMAAGwAAYAANgYPIZGFjcGP2rYCuK1tGIAiknJNQLeCYDNYC4kYsVvs6CuJHa5srvSl5d22CnrXdIr4nNFhSt/WEFhqZMBrMOxl1folM+LLM2THkpLrj6UjGire42cSMt7+rf5V9dK9vXxY14jY66z91vXC5wJ7HeRbq+RCYYlNabsHwqQkHj+cbm3AbNfmuHsLN4DmeERNdLRZWx4yt70tNPpVkiuc2pD9LvWttYUHQQ/lBGYwn7wAUYAANgAAyAATAABsCAxsBEixtV5TIfwpSFaMqGFw7ktBA+3lHcCPWaOrisDwpL00bSBUBDHdd+lI7Z8NVE3OBpLW7Kij1XLIKavi3FHI+ntfQDtfYqWFPeCQPBzkzo8MeTtStY3AjljI+ysn7dDjkGIhOjTdzIbNv8IB3j37ByeCSuFMQNM1bK9Jh63ZAu/vPiAr+pJBEQXGAv3lKyOxUHZBu5UGAvSitwyDrE4p1CFJFTP/Jsj2R6SGKnaScTYiKBw5fPxI+k/8YPSt25H8QiqXgVLDI2ItbkNYHP2g8z9oELMAAGwAAYAANgAAz0z8DA4sbU1BRNT8/X1zpqU0j6d+78AFIKB9IHMnNC7sfn8rgXxI2xCPzkVBM5huNss7QTn8vcwTfwDRgAA2AADIABMAAGwMD8Z2BgcWN+wwFxg8c3z67giwLiBvuoaXvH3b9GNx7hfdY6BYV9O/fbclYHxI2m8cWxuWcVPofPwQAYAANgAAyAATAABjQGIG6ofzVf6OKGEy7slBNlqokDCeKGdkFl++yCoDzlREzVULmb65uUmHKiTDVxfYG4kY3pWIzdXLOC9sABGAADYAAMgAEwAAbAwHgzMLC4sXjxYjKLimKAx3uAMT4YHzAABsAAGAADYAAMgAEwAAbAABiY7wwMLG6Mw9tS5vvgoH+4AYEBMAAGwAAYAANgAAyAATAABsAAGGhnAOIGUsyRfQMGwAAYAANgAAyAATAABsAAGAADYGCiGYC4AYAnGmAomO0KJnwEH4EBMAAGwAAYAANgAAyAATAw3xkYWNxYsmQJrVy5EoExxBEwAAbAABgAA2AADIABMAAGwAAYAANgYKQMDCxuzHfVB/2DsgkGwAAYAANgYJQMLKczN22lLRunR/qgBAZGycDstX3k2TfQ1s2X0ckIRHB9gQEwAAbmDQOLDjroIOr63/zAH3rooWPU+UvppNt20dprP0pL+4TysLc/QqffvYvs607v/jwdu1L/AX3Zhq/S2objs/bQc8QB9MRX+BWivH0W/fCOg53/j9ufvreb97vtL7+4H13Qpx+s/Uldz+x44RiNsT4u/fj96Iv3pR8LX01U/xIOcttfRJ99uOZgYAaK3MT1k/Xjs2nXFTMfl37G0J07Te/7o4/SRSf01/bb37g3/eKqRfSTsw+gE7ifK/en779nL3r4iP7qUm22dS0iukr8v3A/Oo3b6nP7oXXPEXUNycbqYHrogmfV9fZtX1Le9nVQ25K6Lt+Hbls2hHHo08/qWA6jjpSHvn09Wl9E/Clj03Z8eH41wsY26u24ic5Jx+WK59Ez4p7+4wcOoKP5HHtsb/rscV386F+HXXwVdpc6+jznzfvRD5+q79nunuq/z6Ud1l8raMPHttAVq/vsgy37Mvrg1gvo0Yf8/wfPoA3h3uyO7bj26E7PEsdfsIY+89A76O6L5/oNfK+kd9/Vo+3XvaWTncNjexB/owz8DwbAABjowsCiLVu20H333df63wggpkIWN8ZjWsrg4kZwzqkP0BsbxIvRihtCzOAHN95aQUIEmT4IzoPflgth0HJsx5hvnbAR+/E1Nz93qMG5beOpvejRN7f4eka+ciJDeXwPpRsf2INmS9yQ7b7m5r2JZr2/wpfT76N7P2VEDRY3jqXzb95KH73ohE4PpFbcuHxPevoPRBA9dHFjD/rma17k7fHBuxIYhvtOgQUnxAwqGgifFeo37dvgtBBwl4+5PkmByJ47QB8HLdfmu7E47oUN6afq1fvQ359+SCdWu/XhAHry3YvoB0OtM2fHXTfimkmYajverS95u1xu+ZmbaNvOLbRxOjnHihd70BMX+z+0eLEgCBxjIm5ccMde9Ms2saIvWxM/JOPBfuu0XbGB7txpRA0WN5bTmddtpS1XrO7IqRMvPvuxk2iVteMw+v3bzqVHg8AxJuLGcSfS5j9uEU1e+W66q/cgbb7s5I59H+I4zGQMURbjBQbAABhQGbDihhEqDjnkEPW/OWbEj1TcmDevgm0RNzo9KMwGXFZ0iIPyyJZU3KgGDG6zeubRD/ccCTcLTdyoDDNzKW6Y6+vY8+nm7T3q9cz/T3UWNsw1w0HYl9/2nDognFVxw1xDLgCNgtwO94myuDC867KpjfKxXNwwQftPr+pXiFHq6eCX6N43tud7UasgHA2vDwtB3FhBG+7s0Y6bzkkeXFymRRAyPAuRkDAqwSDhMrIpORZYGKWty8+k67bxPXVnH8JGRTbTIggZ/t4UCQn9iRvBHyU/Dbo/sql8D33lu++i3vbr6C2DtoNyyXVa9vWsjTXGAGMABsCAZ8CKG0bYKE1NMcfGT9w4jY695kk/pUSblmIyOr5CrzrtSjdtxU4/Md+PyQe+IG60TVsxGR2nXn4ZrbDTVtz0FvN9iby4bN089WUXrX7Ha/P25fnyc7/ihhUpUjEkmVLwxPPoDtmG+dwobjjBJKTNJgGtDepNnbYOn1abtOEyJzgFN7bPZACYTIP3m0wAn2KcZx4kNuxeRDKLoPIChla+k+iQlI8zEoz/jM0HiqkfdR/ivnEfzbY+JwgBbxXTjBI/2kwIkWId9S+M10wyN5o4cP41bUo7ahvSdnURTZY1Y1GXdw85ma/64MQ+DEXixlZ6/xu7PzyxuHHb6/ahn3LgmYkbPjDlqSUiI6EY8Jvg3px3vJniIjM3nG1pOWsH139Vfr7pZ1omehD0WQFh+ouwURMaSnVp++2+YJuYXhPEi1SU0AP5uB5N+EjrScbRCiZ1+3F2ggnqjd8OElNsEj8mPorEJR7zk8x4cRuKjYkNJP3MYxR8Jcrb+hN7wvVb9zP2UZyBYRm5cD/a5KdS2bFmZr1gFsY/2LCIKDqnPx+l/WPmwnVTmDLUdDzuo/CR8Ud03fhxSHxc+cyCLGvDZmmIrA32r9zPgsEmOXVFTFPRpoVkGRYvpF1PiHv6w/vTa7gt3tp2xDm+DitqiPs5/zbRbsVutlVOofH2fe9mzgRz7Nyx49lE3g7bxsP70/tNdgi3lfYh6WcqCFWRuLGDbnpbzSgzoG9dlkadtcHl5H4WN06Kpq7U01R8pgdPabHbPMPit65eV097eehsuuE0bou3rp0wNYantlhRQ0yZEe3kdldU2eyN7XTdW7hebPWxh1/gFzAABsafgQkVN2rH2mkj2ZobfrrK3bWgYc+7ZTsddXhd1gJaEDcCvIXjbrrKLitwWEHDnle3V6XfT7iFVt/Rh8DRSdwQD1YyoLYPXy4orcUCLxL4oDINRsMDWAi84/ONP2yZcLyiOmDl6UV9tOwAACAASURBVDFxIOyO8zEWUurAn20INmYCTW5DGBfTRy9M1IF03OfU3qisWj7to6tPihVanbafwi9RO0H44X7H4kBWX9Yn5jX2bdSGHe+43vp47JPKZ/hQEBe8j80DMu+LBC/2gWAt7etx+9Pfi3Va9HEXHFh7uV/MkTiecpBNS5mm993bPXujDsJMYP2rbp0NDnTtmht5oG6DMx9wccCZrqER9heC2qyOIBT4AC8IHO4v8VrQWgfnB9NDb9tXrE2RZIbYgDwOIm37Ieit/V3ab5gpH/M+UgNqV7fsr6nL+of7bH3EgkK8DQKG7YMQB3yZcFwE9+yXemwrqgrn87l8nNgmXodE+ii1IWG1sY8tZYN/ZSCf2Ox8JsSK5Li7rpsyN2qWuN/NPvJjLm3yfY7KJX4I46uUa/SRqcf6yTDAY50LXis23KmvtWEDdiFUsF12vxcPWHQIwb5fV0MTKKqK8gwLJ2zUYoBS3rahiBVsj1pvfQ26cayo0sSNqiIpZNhzZf+4bnPPDn1KbPbCRi2QJMezaSkmU6Zr9oYTJmqhgvuVixuPsthQ+WwPVaAwzwb59BErbIjsELcuhxQ4nLChihU8Dkq9wfd8jt2atTcwNUX3DY8vtvAPGAADk8FAEDdWrFhhX+1qXu8q/5cyNxYvXkxmasqoB7pJ3IgyJQoihRMhyguKlo7n7TpBhds0x9NMjrxMAyRpRoH960waAPrvmhBiAkQlCP3eblGH+VGPAllhj60zOTdpJwtio6kxLmiuhQdTdxyA28CeA2r7gJEE8CXb/EOJbT8q7wNl3+9MOPDlmFlVlIj6mNhT8JdaD7eVBuosElm7lfqj42I8Kv1c7kvq27C/lQMvbkg/tvigza9OdGIxhxnLszmcje2chL5UvOaG9Ev7Zxmkmc9Pm4VFbdDoxQD5mcfN7vPBlwnGFKHD1msCY3kul2ehwJZzwVsdpBub84DO9LMsLuT9jM61AePsixscMEdt2z6boJqDVbZVC8L1fnPfuX4e87gdV190juh3GA8xBnLsnbgR2xgdL4wJ2+KmGsXlefqRHVtrS3qcfWG2mj/iMY/tMWU0f+n1ODs7+CgVJAr85rbIvtTTveLFYE37qQ8SexU/xePsFhLduWUjTYuxtP3rLG4kAogREYLYEfcjEze0cyMRQp8aU3Pi6s/qTftivkf1CruS/Wld6XfTtt2XZHbIbBOtTFWtGGBB0e7iRiyAGDEiz86wfstECO1cJ2ZwnerUmNTHWb3Cx9G5WFg05RffS6xgP9gAA+POQBA3Hn/8cfrOd76T/S+JG+PSMV0wiIUGa+ucihvJtJnwVhZtCk3hIokCTOWcJPA3AWfIgKj4r+Hir+2cutpV3LD1a+XroLUxqPfBeMgICe0vCna2iRvN9fssC1FvaMuLG53Ky6DePuxIEUF+9mOQ+N2w1diOcn64dgpjrNen2BI9nMXCEbdh69J8FDjQy3H5ShVVjC01B3xO8L9tTx6vBQ53jjzm+hWXddxJnmt7lGsh8kN+PArSTCBnFha1U0m8GGCDrTibwGVR+CDNBn/mXBNomoVJXfaHCchsoK0Ghy4oddMFXHDXnJnh7I6DvLgvth8yc8J85qwDEeSzr0p1lfabcuVjSZAdfOJttN81H8bTLvRg3dTh/ZX2T/axIA5E/dXKczCvjFPERkv9deZH3k8rbij1s212WzgubZCfXdnE75b1RCyI+G86VhpfvUxui8Ij+5Zt6MKBwmrkp6pN3FAyJqTokQgDtm5tn7c5Dfrtd/WeyYKJy4KosyJiv3Bf0np5f7Qt2uUEFNeG/Oza0uqW+2zmh9aHgsAT2cRjWdzKDA3Zdyl6xEKEq1/b58unIoT9rk8rYXHDZnbc/3o6o2innhGi9xXihu4XOb74DB+BATAwGQwEcaPfNTfGZYDHU9yoSMvc6MtnhcA31JEGzfZ8kWlhjqeZG9pDQFoPn5PWx/vFVg/CGXztL/J8zG3bxI1iVom3wbafiROiDds3GUiLYyVRIvK7Iigo/mr0g3J+GENVOPCiTdYvxRYxFn1lbnQpF85R2o185MY5TGkx5aLjsc9N353gwqy2c1L7K6+ry7E0SPvQul+hb/72C+pXwdqALM56iOs1wd9e9LBZq+F8tx7Cd08/0K77UAxqfZDnsjVcgOo+N/ehKC60/bVbCRhLdZX2mz6Xj+VBtjm3zqIwPkr/Yq/1Na+HfR3Xp5XVg3Aub8eZxZ7Ar6hHERdiNsq2uTba+ujsq30i2rb26PZLn8f2mPKaTXo9tY2poFTbkdfP03nysVPPFX7Vj7f5iKelNF1vFRWnpVR61oQM7LVsiOi46IPxWXbMCA6NIoBuA3PI26zepF17XlHcEJkYRrh5bF+6Uby2WqtbTmWxx8OUlXr82baZbtWsiUigUISM6HhiU3bMlC9keXg/qjakPs7qTdoN52NaykyZQPkSW9gPNsDAXDMwsLgxNTVF09PTmJYSfhyTbJF0zY1wXkfIWwLEPPBP/wLvgtLWv34Xg28laE360BjUZ0Fs3u9WcYOzP7JA39dlfVSa7mDO8X0IWQquXHgVbFY+7bMS2Gv+svsKIop2vvCj9YEUoYp1KbaIeriv+Xi3cZByk45T3m5sc1o/+7zgD2Nz4pNY7Ejbn/n3LAh79T70o/OfSz96DwdYLoAMWRCRX0375vie9N13/Ap917x+0wTJ5+9LX75gT/f61yxodsGnrM/aENZ6KPdJBrryxyArb8UMkbmR2ODOF8dFn0ptmPaydkI5JchOBBVbb/qX/FCe+6zUw+coAo70QWlaRzjH+qAc2LdPS+H+54E+t9HWR/Z7JGSJV8Fm5ZM+2/KRDzV/uX2SL7avfx+V68pt4TF029LxrI88vrxNuKltF/WbNSF6O+imc8Q+X94G7nJxznR9iUwwSNabYDtkfZGY0Xy+sTezIanT9snaoWSZyHMzW2V/jR170NOPPYvSLJFM3Eh9kH6XbQ7jsxUNLqB6vQuXtfFoyKTIxY10DY1o3BURovF804fMBuk7/uzsqO3k/ckWC4qO/Fk+4mEYjKIOjCkYWLAMWHFj4l4F6xfnXCune5jPYcHQRGgwgEfTUkrTRnhB0LbjLjNjbbSQaanN+m0pxl5ek6P1Rt63uMFBowwqXeAZpfynQkESaMZ2caAqpqeIQLxN3DB1ucBVlBcLn7aLG+YBJO9DtI6HFyhkH9MA37YjUnSj8rb/wr7IP3lgnwbm7K+4DTEGjf41/Ut9LMqq/kumbKT2cz+Vfkgf1ZkW3cQNvax/QExseGbHr0fTVpoYYP91OYfP7XebB2E+oIvEBt4nphyIINMGbOF8PteLIz6oltNOtL/eWzuiaRN5EG3bUbMPuE1v3+X70KfX7k2/EOc6G/1xfuMGH1dstPaKPjq/Ju0kfY775c/lNjjzI+ojC0gcTLgycT18jP+qL8bgKilWNGUs+DqUfoa27LHY5zkbLHAIGxIfRX62fU36aIN3UV74hzMxalba7Cn4K+1naKODjxrt88JcNIamL9zHtuNuHBp91EXcMGtBqK+CdfU7cYHv24mA4AN7ec9KxQF5D8mEAvtA7AQOWUe9eKdmwyKiSCBx58TTQxI7TTuN4oZfWHQ3T4dxdRrb4/4bPyh1K36oF0mt65K+6OuzFxf4TSWxgODFDvGWklr4UNpWxA1jixU4ZB3pgqSJDXIB09CXN6ym7aKO2E5nC14Fq4wJAsMFGxiGawcMgIEJZcCKG+ZVr23/zbQVA/yhhx5qt2Yx0UsuuQQDP6EDj5sXfszBABgAA2BgXBlYfuYm2lbI3himzbq4MR5cyKkmss/jbLO0s/PngrjRufxMnsOQtYHn+Jnwg7LgBwyMHQOLXvKSKZqaWhr+L136G/TSI44I3/kYxI3xeNiZkx97XKhjd6Fi3HH9gQEwsLAYcAuL9nbcROcM8zfpihfQly92f6SpqvYpKCPzeUNWx+SLGy+j937gJFrlx7V1Csowxz+qCwuJjozvaBxwb8c4gAEwMDwGFpUWEtX2G8dz5gYGYXiDAF/Cl2AADIABMAAGUgaMwLGVtmwc5vpebkFQnnIy1KkaQwjY6iknylQTX//kixsV2QVBebrIg2fQhhPSsZ/970eefQNt3XwZnTyEccO1O/vjBR/Dx2AADHRhYNGGd11JG6+8Jvy/7oaP2Ckqcp/5nGZudKkc5wBCMAAGwAAYAANgAAyAATAABsAAGAADYGC2GYC4AcUeUzDAABgAA2AADIABMAAGwAAYAANgAAxMNAMDixtLly6lNWvWTHTnZ1s5Qv1QJ8EAGAADYAAMgAEwAAbAABgAA2AADMw+AwOLG3hbyuwPDi4A+BgMgAEwAAbAABgAA2AADIABMAAGwEA7AxA3kHqE7BswAAbAABgAA2AADIABMAAGwAAYAAMTzcDA4sayZcto3bp1E915qF/t6hd8BB+BATAABsAAGAADYAAMgAEwAAbAwLgzMLC4MTYdO/ky2vxgj3q9++mGs4+E2AK1EQyAATAABsAAGAADYAAMgAEwAAbAwAJjYMLFjZPpss0P0v03nE1HLrCBGxtxCX7HTRMMgAEwAAbAABgAA2AADIABMAAGRszAhIsbZ9H125GxAaEDKWJgAAyAATAABsAAGAADYAAMgAEwsJAZGFjcMGturF+/frTqlJ2SAnFjIQOMvuMGDgbAABgAA2AADIABMAAGwAAYAAMDixtj8SpYiBujFZdGnHaEGxhuYGAADIABMAAGwAAYAANgAAyAATBgGJhsceOs62n7/TfQ2UdiMHFBgwEwAAbAABgAA2AADIABMAAGwAAYWKgMDCxuLF26lNasWTOazAF+Q8pd76bjkT0wmjGA3+F3MAAGwAAYAANgAAyAATAABsAAGBgTBgYWN8ZCDULmBi6kMbmQxuJ6gC9wPYABMAAGwAAYAANgAAyAATCwQBmYbHEDa27gwl2gFy7EFKQbggEwAAbAABgAA2AADIABMAAGagYgbiA4hkACBsAAGAADYAAMgAEwAAbAABgAA2BgohkYWNzA21JqhQhqGXwBBsAAGAADYAAMgAEwAAbAABgAA2BgdAxMtrhRnUXXb7+fbjj7yIlWmHABjO4CgO/hezAABsAAGAADYAAMgAEwAAbAwOQzMOHixsl02eYH6f4bzqYjkUIEgQcMgAEwAAbAABgAA2AADIABMAAGwMCCZGBgcWPJkiW0atWq0TuNXwvbQwYH1MbJVxsxhhhDMAAGwAAYAANgAAyAATAABsBA/wwMLG7A2f07Gz6Dz8AAGAADYAAMgAEwAAbAABgAA2AADAyfAYgbSFkaffYNxgBjAAbAABgAA2AADIABMAAGwAAYAAMzYGBgccNMS1m5ciWcPwPnQ60bvloHn8KnYAAMgIHhM7DyuBOpOuDXaHm1P/5PsA+qQw7Ecxue2+YFA/s+77m4F03wvcj8lpjflBXHHDcveMRzx/CfOwb16cDixli8ChY/ULghgAEwAAbAABiYdQZeftwr6Y1H7kvnHv98/J9gH7zipePzADrogyvKYQwNAyY4xv1osu/H5jcF4gau52Hf0yFu4KF41h+Khw0t6sONEAyAATAwtwxA3JjsIIKDQIgbc3vd4D41e/6GuDH59ySIG7N3fSzke89EixvIHsFFsZAvXvQd/IMBMDBXDEDcmPxAwggcEDcm9Z5xGJ25aStt2TiNP0j5P0pC3Jj8exLEjfG9Hx128e208+bzovvN1NoP0NZ73kunFBID2o7P1fPKwOLGOKy5AXFjfC+KmQN8CD38hUVEu7X/z6EnL6moOnk/+kFy/BeP7E9vL1x0jTYldf30gQOiC7qx7CDtzXGZEy7fh34ifDVR/TvmAPrm4zUHue0xKwMzoI7Ji+i2T+5BWp3Wp1/bhz4kyp12+15Euz2fYn8bP7ZcUlddxtkQXwv9tjGbPprD+9A796V/FRz/2x+/kE5mP9tjv0Jf+O0u9hxCf/K5ZxN97Xl01/Fdzh/COafsT995suY4Gs+5tIP91efWiBvnbn6S/p3ifz/btWnA1PDfpP/xI1HXv/81/ckwpnucfiP947/V9fZr3wf/8vt1Yfvp5/R//vx3++pjVMcvvktfv2x8gpDu4sYLadcTgtev7Es3HsHXgTv23Ztf1Ol38oI79qJf7t6Dnvj9QzudX9/7uL1+twfTo198VuH5YS7t6Nfu0vnL6cxN26i34yY6J7luD/uDN9GjD13g/7+TPnHVUcHH9ljvdPq9pIzq36lj6Kb7L6BHPr6a3tjl/DE4Z/nR19L/+kl6uT5FDw14H/nDz39HVPYMfefjw7hup2jHt/5fXe/P+7Tv9z9JP/p5Xdx++udH6CP99DGp4/8+dkZf9zPO+pqNbT/ixoc/8RxxTe9B37y8vv/YY4/uR6d14fL0/ej731hEP/nkAfTKLucP4Zy337Y3/UI8u8jf/7m0Q732lf4ZYaP36Xvovaek96TD6OLbe5noUdfbdjytb3a+Dyxu1B2ZHcO61D/x4sbhf0if+ujf0ufXrw0/Rl36veDOscHts+j7tx4c+8kKEiLI80FwHvy2MDpoOeWGMI5j44SN2H+n3f5cJxANqQ+2jW/sTQ+d1uLrGbXnAvTy+JaFiMHHpVxn3+JGyqvwRRdxQwos2ph262O5P13KN9s5m2NfUWXFi+fQ7vf4BxovFgSBY0zEjbM+/Kv0TJtY0Zets+xXwWETA0HckMG6FxJ++U+foVv7edg+/kj6zN/8K9GwBA21bSee6OJG+ZgVJqRd5/4p/QsR6fU0Bz/v+q9P0r9Lf6l26nXMpGxTENJN3HDixY8fOJCOtnx4sSAIHGMibrx5P/rhU21iRX+2Nl0Dozq2/MxNtG3nFto4Hd8LrHjx2bPoWi/oTr3pFNrxUC1wjIe48WL63U1vnRXRxIkbv6Snv/RWH6x7IeE/fkBP/qF+XZWujUvv/Dr9lIYlaOhtW/GkIG4Uj1lh4if03W3H+j6eRl/+/jNEP/0Wfe5MvZ1SH889/j30dz8hGkzcmEnZsp1dxQ0rXjy+D9260l0DTiyoBY7xEDcOpoceeVaraNKXrR1/n4d6bzrsYrq9t5NuPi++34Q27PFP0z3vPSWOydjWtuN83ixuJ1rcMNkjq1at0p07i04LAzzTNiBudBu7ruJGNWDg1hB0Dm2sZ8rKoOXnSLiZv+JGRSagl8ICM6GJG3xM3TZw1iwa6FzbMn0LSnpdqr0Kc812Fn4IlXq6tLf4otuo17uVLrTlXaZFEDJ8nZGQMCaCQWRTqe9jYmuXceBzVHHDBOs2+O83u6EsLpQfzMsPyHqZpjbKxzJx4/jnkxUa6N/o23f1Z8NMBIqZlNX94WxXxY0VG+jO3g666W3uGraZFkHI8Nd1JCSMiWAQ2VS6/4zO1qM3bLbZFm8r3AeWn3mdFS2uWF2y3exfQRvu7NGOm86Jn5dspkUtZLjrNBYS+hI3Cjby9T/4NrZp8HpyH+XihmH8GHr8B0T/8b8/R3f0ISYWxYU+6mi67syxpjaKxzJxw/TRCQ0/+7vb6cq+7JuJQDGTsuX7pi5u+L/+f8RPibCZFrWQ4RiKhYTxEAxim0qsj8zWNtHC3gOmaO0H7qNPN0w9Mf2ymR07b6bzCveNtuMl3wxr/8DixsQLC4UB6erYY874DH31jp106TF30xfu+Tb9T/PffBf12nP42D0iQ8OKGr5MOO6+P7VpM51eVWTL3v3f6LYT+Yb+cnrXFd8gPl5Vr6PbrzN1nmv32/azNr5F23/HZIdwW9+i7Z3/sn46HXvNk7T63Avtdu3du8j8X33ua6Mf2MPe/gid7o+tvfsr9KrT/OuBT32A3nj35+lYr7LWfr2UTrpNnCf8VZ/DffbbruKGDR7jDIWqitPxSUv9bwg6Ky+YhBSyJJgMAa6tw6fwJm24v7Jzem9sHwfOm+x0BndOHki7gDTYsHsRRdkLXsDg47J8J9EhKU9RH43/jM0HimlCdR/ivnEfzbY+x04fMnW+VUwvidpwAgLbb7ZR/wIjM8ncaOLA+de0aYN3nzrINsiAnsfLTH0yfX/aT4OK/SCyiYztko0kLTFt4xMqBwVBIuU2GUfJQX1tFeqyPi77SPpFjlM6BSc+L/aD9ZG5NqQ/kmuF7Tz16q3U632crj7V3wNslobI2mAm5H4WDDbJqStimoo2LSTLsDiQvi6mQNGfv4D+M7fFW9uOYN3XYUWNZHydrxS72VY5hcbb98PNh0T32A/ctwexHbaNP38B3WiyQ7ittA9JP1NBiH3c77YobhyfCgU+K4MzqdXMhbRM/PAbTetIsiZy8aFUl7bf7WPToq3P1sjrfz6dazNUpICT1CMzPUSw0SRQxH2shRMnpESW+S+yfRZc+Lz4mLPX1CntdG2k4oYNsHs7acsVqz13Lkujztrg32O5nwWDX4+mrtTTVLRpIXmGxR07ni3SzPem3rHcFm9dO/U9x9dhRQ1xDfK1sHsR5XazrXUKe1V5+x7en17N17XZbnwePbPb22Hb2Jt655vsEG4r7UPSz1QQqpbTmddto97OLVQSMFZsuJN6Rlg6h/ucbI3wpGRt2CwNkbXB17Pcz+LGH8ipK2Kaisv04CktbptNSznsVfRfwrSXC+jhW0+M7k+mXduOOMfV4USNesqMaEexm+3vZ6uLG7mI4LIy+FqRmR71facoLpjr+c0P0j9zcbOV2Rf2WJzxUapL22/3ybrDZ1+nKm48nz7x1I+JxPSUD33uH+gXoazM9Kj7yKKImrlx6+PRlMP6HCdqhKrlB9E+1x0OR8ecvUaMuUfYab5fmL4tZWotXXtfjz59z5VhXQebpSGyNpgRuZ8Fg0/IqStimoo2LSSbDnLpPvRTcS/5we3xb7Fp17YjznF1OFGjvk/x/WIRkWI32yqn0Dj79qKHXyuv/wPoya8vImeHa+MHtx9os0O4rbQPcT9TQagisybGfb2GrIuptfSB+xqyNvh+2SaUNB23x8wYl9fu4DEedDuwuDHxU0J4gAbc1sIFCwZGbPg2/fW73mVv/O44H6uosiKIEDhMuw2ZG93EjQZBJAgobIMTR1IBpgyOEzekoOGEjFqwSL9XVtDwwsUJt9DqO+tzQzul/U3j0ChuiJuIDKhtfS5Yq4M8LxL4gCoOxEQ9IfCOzzd9sGXCcRfgurUsOJCLA3AX9PIxDnTrwJ9tCDbawK8+HsSVQhBY+YCWg2QWc7i+1N4wDuzvrHzaRw54a5u0Om0/hV+idkIwy3XEAXZWn2KTqy/2bdSG7U9cb328mYPgY/ODxX4WwkEIylno8v00drOfQ1uiXNjHvm44Zn2we1Fdnz1X91eoV56T+SztM/9gDuojV97ayT7ifvltOo4p++67uc74etDG81S6emtPZGx4u23ALoQKbtvu9+IBiw4h2PframgCRVVRnmHhhI1aDFDK2zYUsYLtUetl34utJm5UFUkhw46z7B/XbTgNfUps9sJGLZAkx4WdgaOO+9rEDTc1JZ9uYoN4Fjj8FI/wABw+iOD83D+lH4h1PFywXwf/ufigiRjmgb60v/lYXj+LGzw1xdVbT8XJ+8x/wS2JG5FPCpkhpbKm7tQnWfaMWHeEp9NwvzaHV8H6wFtkbDgmXMBeCxXMrdvvxAMWHepg362roQkUFVVKhoUVNoQYkJd3beRiBduj15tzrYkbiZBhrwHZP67b3K/qPsU2e2FDCCTx8dpOm8ERCUj1MWOvE5iU7IyqIit+KGttWGFCCBXc70zceEiso+HX1dAEiqpSMiyssCGyQ5TyVthoFCuUejvec7hPpW2juOGnpmTTTawYwQKHy/IItyHxoc78OIYe/0exTsYbrrHrfPzib29x00RmKG7wvUITPuyxJnHDT01xwsY/0Tcu9UKGFSo0gaOQfZGeb9tMp68Uylox1x2rM0n81BkhcFgxxviXp9P4fv3DvS8Pr4KdWnst3dfr0U7O2PCc2IBdCBXMg93vxQMWHUKw79fV0AQKI25m00essCHEAKW8bUMRK9getV6FdU3cqCopZLj7g+wf121EjdCnxGYnbAiBJDke7GwQF6z4oa61Ed+zqspk1zSIJE3HG9oPNip+6+fYRIsbo1zUNBMvKplZ4T6z0OEGRB73kAxB3KgzOVhA8WKGUncumKSwyu9O3Dj18stoCUNmhQnOuuDMDpnJIcuIDA0paMjPXG/b1gZuHOgJG2WwqJ1jjqcBtyzD7Wr7zDFbJwdivt2knTSA40DZBb0ukKyFB1NHHFzmwWIS8JVs87bXgXftF7tPBOBxJkZ9nuFSnhtuHFEfE3tMu4pNaj2Rf+Pxq/ut1M8iUhZE6+cGuxPfhv3G3kYO3JgEYSOMvbM5+Nj45S/+E335k3va9V9MH4YqbkT9lX2NmYn65QW9YCP7vDS2A/vIcVOPW8yRE9XiMWahjfm3NgZhw5RP+rX4Irqt16PerRdmfxmsOosbiQBiRIQgdsQ2Z+KGdm4kQuhTY8J4eN9n9YoxCedG9Qq7kv1pXel3U5/d58UO+Znb0srwsX62ncQNG1TXQoR9OM+yHprFBX7YD9ukPAfp9eKjJRGjtL+5/bz+RNwwAg2LNZylYUWbpN8sQqTnWtFFiDm2jtzWsrjhxBQWLZyf3L4guHhxQ57D9X3xQsObm+pgFqjMp0x0FzdiAcSICLXYEbGViRvaubEIoU6NSa+lrF5xLYVz43pru5L9aV3pd1Of3ZdkdshsE62Mt6MWMN6W39/MOXZqUI92btlI08F2t5BovM/1sbO4kQggRozIsjNse7kIoZ1rxQyuU50ak45BXm89Bum5/X1vFzfcGhxBiLDXmttXixdOECiKC3yNh21SfuTihhMS6kwL0x+3rxYbXB85uyI+t86qkFNc0syQUll7/zHiCIsW7CcrmNSCi60vOscJIv/yV2usuGGnMfR20keUdR46ixuJKyRwJQAAFBFJREFUAGJEhCB2hGvKMJaLG9q5kQihTo1Jec3r1ViP6hV2xfvTutLvdT/izA6ZbaKV8TbbDI0e9ZKpJd2nk7QtHNp2PPXdcL9PtLgxyuyRZqHAZXG4qSI8JSTOsrDAKwIEXwh5/ak4EmeKcLmwVerO62yCSQoV/rxI3DDihZuqwlNWeOsEkVr8MBkep9z0JfpNM6XFZHfcvJ2OOryp7eRYFGyLY0mQnQabLpgSGRkhlSwRLJJ6gg/tfq18HcTZNtLAOdysXIDK6WNyy0FxHizKoLYgPoT68+kcoQ1vU7N9vnwUVBv/ShvkZ+97xV+N7SjnBx8XxlavT7FF+CILlv0xW1cYezmezEESZEd1ejHH+POi/ei7j+xPZgqRCdjN2HHgHvrT1NeGY80c6Pa5frk+2PJaHzM2m+qSvuHP7CM39rmdngk7jlwm3rKP9DH15auK3FSUJnFDyZiQokciDNgx0fb58U2Dfvtd8+FuFkxcFkSdFVHbHsafxYaCoBLOK9rlBBTXhvzs2kptNvXJfTbzQ+tDmz0p88r3orghA+kumRn24TcP5oOY4TMuxB9RTR54eGNJLj6U6irtH0DcsP1yNrisidg6962juOH9pdWgiRH5m1Zcv7TysbhR+6z2rXsVLAfaTeJGnjEhRY9EGLC8aPv8NZIG/fZ7fJ/g3y4WTGwWhMiKCNeOZDOtVx4Ln8t2WQHFtyE/27a0uuU+O4VF60NB4PHiRXGKyvIzadM2k7Ump6i0iBtKxoQUPSIhwvtD2+d8m4oQ7rs6rYTFDZvZcT7d+U79XqjX23Ruf8d0ccMvKmqnjnTJzGgXN7SpI0EcGYm4ITMjnEig3Q+6iRu+Lq0CkXnRJG7EU2JkRYm4EdXn/G7X3DjuHXYqSq9J3FAyJqToEQsDjiNtn2MyDfrdd74HRVsWTGwWhMiKCPcXyWxarzxWfy7aZQUU34b8bNvS6pb7XOZHZLt/FtAFHic+9JIpKgte3HCA1IM1iu/jK25omRuKrxQBgv2YCxHjJm7U4gXbnG5ftuFrfs2OP6NjT7mFVl99Gx1p1ui49jZaqt4YFB+Z8woBcJZBYM8TwZgJJrPgTmmjFHSm9Sk2NwdsLpDk4C71j/meB4tJAF+yzdti28/ECdFHW74WY1IbVPsjfyf2mHYVm9R62F/K+bUdSv2qX0yf9HPruvTA3drbyEGhnLT/G3vTl7f9qntjj+nP10wGxx4jFDeczZxt0soB9yXNluD9pk+NPnJM5bwya2ZsypyZMWpkhO2oCtNSKj1rQgb27m0qLEQ4u6LjoY3CMSM4NIoAug01f4V6k3bt+UVxQ2RiGOHmsfhVtVp/5FQWezxMWeGxGc62JG5EUyRs4J4H+TK4dp9LwoMyxcPWWQfqoxA3bJucgaFlbvBfK5MtZ0vEAoXpe92f3DfuoV8va45pmRuuTKgr8VnYf7wTNxyzpWkpFalZEzKwrxTBIDqeMJcdM+ULIoC/XlQb0mspqzdp156v2Mr12PImE8MIN3vGr6rV6tbW5JCZG1xvsp2NaSmVmjURCxS5kBEfj+9d+TFTXs/y8H5WbUjHIK83bjc9v/t3VdyIpo1omRvJteKv2VLmRjat5fgxyNyIpo1omRt6H0sChcmqyIWQtI6GaSla5kZyL8wzQVz9ckHR0rSUSs2akIG9XwuDhQh7/cXHY+byY0Zw0EUAz6NqQ8pqXm/crju/KG74jBKTiWGEm6ejV9VqdcupLO54mLKS3IMiOxqmhczJtJQm24Z0bODMjchRQzKm3zrHV9zwC4Lew+tdpBcAf3fZF9HUEvalXaOjLn/y+V+yi5bW5446c6OibM0Ntt1vbcbG1T16/dVGzDBiyJ/Rqt97hE6RU12SMioDUbDNvtOC7DRIdcEwZ0modZv2i8F3HEBq5dsCNns8SsUX9qtBfBrAu+8cxGY2WN+UFuA0bfk+JDaEV8Fm5dM+p/YU/GV9WAhui/51vrABswysi3UptkT8pOPPvnblyhyUyvny1h7zFzoWzvyYZGu8FHzDNma+ZvvaRK7cPuuzYA8LgE0ccFt5XY6pNh+58k08Z+PI/fbbtmtFsp0tKMoZCrtF9ka6vkQmGDSvN5ELBc3nG/tsGWlD0kfbB2uHsLN4TizE1P03djyHnn7s2ZRmiWQ2pz5Iv2ttm30X3ko9MwXototocemcZL8qbvhMjTrjQBEnkofcZnHDiR4hA4FfGSsyN+Kg37eXLDra3IZ5qC7bmYonTryRYkRqYxoE1N9jW+v9kVii+qf5LTTOpgYRqZO44a7pfEFRnn4hF+dM15fIBYPSehOWa0UoaDzfsGfLSBv4Hia3zo48yyQ/hzNC6uvMnWPs+PFje9Iv0yyRzObUB+l32SZ/HtKColE2B9ftRINHRfaGzdp4qM6kyMSNdA2N6BpXRIjG840duQ2pf813a4ewMz/nPPrITpO1cjtdfBj3r32bixs+U0Ms+JmLE/V1KEW/krhh94tXy/LipCFzw4opvIbH84mPR4uOtggoxo6indmaGz5TQ2RBZGtulO4ppVfBpmtuqOVltkjqQ2dTk0DSRdywXCgLivI0Erk4Z7q+RCYYlNabsMwrQkHj+YZFV0bakHPsRRYly0Sem9kqr0Njx+N70tPfSLNEcptTH6TfZZv8uduCok1rafjr0gokDQuPNh334ko6JYZtHMZ2osWNka+5Eb3NJL8R2+yL6G0oyYKiBmj5tpV7vi3ehuIyNXhqixE1fu/8L4njoxc3DIBO4JDTU3hNjspNQRFvWOFz0zeutILcWdzg4FIG2RyIivTRNNOhMfh2wWCU6iUC8S4BmwsIRfsiKM7/Eu7sjbM98j5Ex33QLG1MA3kXDNc2ROVD8O6PR/5R7Cn4K25DjEHh/HrcUx+LsvwXfyXVPvQxtZ/PVfohfVQLRqWA31/T7N9QH9vLdvL32r+uHT5e3xtSFngcmjlQ6hcMBj+yndz/bIHS1D6xgKr9cc05q33EfUhtYcHHHY8ZMO3Vx7tcK6EvVUXxq2Bd/U5c4H4kAoIP7OUYp+KArD8TCqwPnMAh66gX79RsMD6MsytMG/H0kMRO004mxLB/3daVz8WPuP/Ov7vfI98CUZFbn4R95Lb1IqnczoV0qxE3elvrN9LY/vPxfBvEDZl1LESHOlCoBYdwKmc9hIfmUuYGB/WhJP1s18eTTAdXls/42a476DN/86/EAosL/Plova0FE/9gbgWA+jjJt6WI3aS+Aja2wZ4e3piiHLMnxGKEFTha2onPkQILLyoqKxDH+xA37DWRvArW7vPiAl8LsYDgA3txr6FUHJA8ZUKB48sKHLIOsXinZgPtVrI9kukhsZ2mnVyIsXWzfb58Jn4k/Td+yOtW/CAWSZ3VV8Fa+724wG8qSQQEJ3aIt5QI4SPygagry9SwAoesI31jSmKDXMCUfVwtoXfdKepI7DS2nPeRnVZwve/atTQVyuX3IWm3EzfkNaC/AjYIDuHUWozg+1ZJ3OBXy4aiP3+K/urz34leNWvL8gk/f4oevfPr9FMWWHwmCR8OWyGYOBv8dJpwgnxbSthpP2giQj41pF5QND/m6ovqsQJH3E66Nse5PmMknCUEFs4KCcfMB3G8s7hhx96v1xAtLOrFBb5fJAKCC+zl714qDkiWcqHAcmUFDlmHWLzT2pXYsHuRku2RTA9J7DTtNIobfmFRirJQjO1525rQkvtBLJLaJDiEa24OXgXL6330GsSRYI8ct+6fBxY3pqamaHp6Wl8YaYZGyZsXPncfTPgKvgIDYAAMdGNAFze6lZ1tH8upJrKtYdp84a1G3LiNLlrcrc9G3DApxBwMYJv+9XIyvqevgpV8zdrngrgxa+318wwqp5rIcmNk8/IzN9E2NXuj27Xbzc9K5ob0x2x/Pu8jtLPXo9svPqxzXLG82h/3oyAYT8b9J/3dkNNSunE6DOYL4sZsM96pfjnVRPZ1Dm22IkhD9kabSNJ2vHICillj5WZlAdlhcDCwuDHKKSHD6DjqkBcNPoMHMAAG5jkD73wBfTlkObRPQRkZDw1ZHUMTN069mj4+wLQUiBuTGUDIgGJuxI0X0l/deyAd7R/mW6egdHron437U0NWxxiJG1XlFhY1C8CeM0RfHXbJ6+na3/Z+bZ2CMhv+5zpPoSvv+XT/01Igbky8uDNX4saH/+jX6NaVnrfWKSjM5dxvy1kdcyhumKz8i2+nnvpK2La3oLQdr6jymRufvue9dMoQ72fymW2ixQ0zLWXVqlWdVV7ZcXye+4sWPofPwQAYGB0DbkFQTrPPp2qMdmzqKSfKNBb/ADAMccNlbPRo69Wn9vXbicyNyRc2jMgxN+KGX5SUU8jFVI3RXf/i+hZTTvKpJv68sRI3jE2H0ZmbttKWjUPMmLYLgvJ0kXfSJ646qq97wlDG0mds9O67ltZOiTHqEPQgc2Py70lzJW64RUl5yomYqtGBs6Fw3tiOmHKiTGNx7c+tuGHaNALHzpvPi+4JZs2OrQ2iRNtxK5r0ejSbwoaxfWBxY9myZbR+/fqo07MPQHzjQ/ZI7I+59j/ag//BABgAAwuDAYgbkx9IzKW4gfvCwrgvjHKcIW5M/j1pzsSNRnEB1+oor+PZaHtgcWM2jOm3TogbuCD7ZQbngxkwAAbAQP8MQNyY/EAC4kb/3ONeMb4+g7gx+fckiBvje31N8r0P4gbUvJFm30zyxQPbcVMGA2BgoTCw8tgT6Mipg+nlh1f4P8E+OPywKfzm47lvfjBwyIG4F03wvcj8lpjflKNWvmJ+8Ij7ytiM40SLGwvloRL9RAAFBsAAGAADYAAMgAEwAAbAABgAA2CgzMDA4oZZc2PdunVjo9JgkMuDDN/AN2AADIABMAAGwAAYAANgAAyAATAwnxkYWNwY9XoXZ12/nXrmVXb330BnHwlI5zOk6Bv4BgNgAAyAATAABsAAGAADYAAMgIEmBiZW3HCdOpku2/wg3X/D2XQk5johiwYMgAEwAAbAABgAA2AADIABMAAGwMCCZGBgcWPp0qW0Zs2akTvt5Ms204N3vZuOB8AjH4smFQ3HoLKCATAABsAAGAADYAAMgAEwAAbAwGwxMLC4MVsG9VsvxA1cHP0yg/PBDBgAA2AADIABMAAGwAAYAANgYH4xAHEDGR/I+AADYAAMgAEwAAbAABgAA2AADIABMDDRDEy8uFGddT1t791F7z5+fqlOUBExnmAADIABMAAGwAAYAANgAAyAATAABroxMLC4YV4Fu379+jFRds6i67f3qIe1N8ZkPLrBh4sUfgIDYAAMgAEwAAbAABgAA2AADICBYTAwsLgx6lfBhs4jcwOCBtLHwAAYAANgAAyAATAABsAAGAADYGBBMzDx4gYWFIXKF4Qu3MwW9M0MHOBeAAbAABgAA2AADIABMAAGFi4DA4sbU1NTND09PfJgCuLGwoUXNy6MPRgAA2AADIABMAAGwAAYAANgAAwYBgYWN8YFIIgbAHlcWIQdYBEMgAEwAAbAABgAA2AADIABMDAaBiBuYCrDyLNvcPGP5uKH3+F3MAAGwAAYAANgAAyAATAABuYLAwOLG4sXLyazqOhoHXEyXbb5Qbr/hrPpSIgUIx4L3BRGey3A//A/GAADYAAMgAEwAAbAABgAAwuXgYHFjVG/LeWs67dTr9ej3v030NlHLtwBxMWLsQcDYAAMgAEwAAbAABgAA2AADICBhc7AxIobC33g0H/cvMAAGAADYAAMgAEwAAbAABgAA2AADDgGiuLGVe+/juT/gw46yE57OPTQQ+121JkbGEBcxGAADIABMAAGwAAYAANgAAyAATAABsCAYaAobtx3330k/6fixpIlS2jlypVY5wFrfYABMAAGwAAYAANgAAyAATAABsAAGAADI2UgEzeu+eCN9IW/eIw2XnlN9D8VN6COQR0DA2AADIABMAAGwAAYAANgAAyAATAABsaBAYgbUNdGqq6Nw0UAG3AzBgNgAAyAATAABsAAGAADYAAMTDYDA4sbmJYy2QOPCxfjBwbAABgAA2AADIABMAAGwAAYAAPzhYGBxQ0sKIqLYL5cBOgHWAYDYAAMgAEwAAbAABgAA2AADEw2AxA3MC0F01LAABgAA2AADIABMAAGwAAYAANgAAxMNAMQNwDwRAMMdXWy1VWMH8YPDIABMAAGwAAYAANgAAyAgWEwMLC4sXjxYjJTU4ZhBOoAzGAADIABMAAGwAAYAANgAAyAATAABsDAoAwMLG4M2iDKAVYwAAbAABgAA2AADIABMAAGwAAYAANgYJgMQNzAtBRk34ABMAAGwAAYAANgAAyAATAABsAAGJhoBgYWN6ampmh6enqiOz9MlQh1QXUEA2AADIABMAAGwAAYAANgAAyAATAwGgYGFjfwKtjRDBguFPgdDIABMAAGwAAYAANgAAyAATAABsBAzADEDaQeIfsGDIABMAAGwAAYAANgAAyAATAABsDARDMAcQMATzTAUCtjtRL+gD/AABgAA2AADIABMAAGwAAYWIgMDCxuLERnoc+4SYABMAAGwAAYAANgAAyAATAABsAAGBg/BiBuIHMDmRtgAAyAATAABsAAGAADYAAMgAEwAAYmmgGIGwB4ogGGYjp+iinGBGMCBsAAGAADYAAMgAEwAAbAwFwzMLC4sXTpUlqzZg0CY4gjYAAMgAEwAAbAABgAA2AADIABMAAGwMBIGRhY3MCrYKHEzbUSh/bAHBgAA2AADIABMAAGwAAYAANgAAxoDEDcgLo2UnVNgxL7cLMCA2AADIABMAAGwAAYAANgAAyAgX4YGFjcWLZsGa1btw6BMcQRMAAGwAAYAANgAAyAATAABsAAGAADYGCkDPx/Pry6ttNqBVYAAAAASUVORK5CYII=;" parent="6dMJGXCS0I9ftsZN87XB-1" vertex="1">
                    <mxGeometry x="290.5" y="490" width="1079" height="153" as="geometry"/>
                </mxCell>
                <mxCell id="6dMJGXCS0I9ftsZN87XB-15" value="" style="shape=image;verticalLabelPosition=bottom;labelBackgroundColor=#ffffff;verticalAlign=top;aspect=fixed;imageAspect=0;image=data:image/png,iVBORw0KGgoAAAANSUhEUgAAAosAAADOCAYAAABW4EjhAAAgAElEQVR4Ae2dbbAdR5nfRSULSZHKK1ssjjlIukgytoXwxdjCcC1b2PgiR7wIIUCbG4iNrXJkbIxY7Rpss15rSyhrY3DZiywEXiNLioC1XOIsEFzKhlTZWYoP7LKFyFa+bFyhaj9sJZtUqkJCqCfV3dMz3T09c/rc8zIz5/xu1a05Z6Zfnn761z3/eXpmzpqTJ09Kr9fjHx/AAAzAAAzAAAzAAAyUGFiDWEQoc7EAAzAAAzAAAzAAA1UMJInFTZs2yb59+0pKs6pQ9gMcDMAADMAADMAADMwGA0li8ZJLLpF77rkHsUhoGgZgAAZgAAZgAAbmjAHE4px1OFd5s3GVRz/SjzAAAzAAA9NiIEksLiwsyPLyMlcSCEsYgAEYgAEYgAEYmDMGksTitJQr9XCVBAMwAAMwAAMwAAPtYgCxOGdXBwzAdg1A+oP+gAEYgAEYaDsDiEXEIssJMAADMAADMAADMFDJQJJY5GlornraftWDfTAKAzAAAzAAA5NhALHIlUTllQSDbjKDDr/iVxiAARiAgS4xgFhELCIWYQAGYAAGYAAGYKCSgSSxuH79ellaWqospEvqGFu5moMBGIABGIABGICBdAaSxCIOTXcovsJXMAADMAADMAADs8QAYpGwMxFjGIABGIABGIABGKhkIEksrlu3ThYXFysLmSX1TFu4GoQBGIABGIABGICBgoEkscircwqHAQ++gAEYgAEYgAEYmCcGEIuEnYkYwwAMwAAMwAAMwEAlA4hF4KiEY56ummgrUQIYgAEYgAEYiDOQJBbXrl0raikaJ8adiF/wCwzAAAzAAAzAwKwykCQWZ7XxtIuBDQMwAAMwAAMwAAP1DCAWWYYmYgwDMAADMAADMAADlQwkiUV+waVecXNFgn9gAAZgAAZgAAZmlYEkscircxgAszoAaBdswwAMwAAMwEA9A4hFws6VYWcGT/3gwT/4BwZgAAZgYB4YQCwiFhGLMAADMAADMAADMFDJQJJYnAfVTBu5OoQBGIABGIABGICBMgOIRa4kKq8kGDDlAYNP8AkMwAAMwMC8MdBJsbjlMzfKBx+5QjYEQu+SO66Vm/YvVIufXVfLzfdfJuuDfPWdfqlsO75DPnjK+T+2Vd502TCDxS/jvUPbMExdM5p26QpZfvoGue4D66r71+lXzcipbbL1yg76Q7d1h0yfkw1y9e8tN1Bvs32k5o3dQ4/pYWw24/9ddXOTw255Phq+Xwz/2Zw10bYN4wfSlvs2xSeq/5eS5rKqc+Pq6k2xjTTz4tsksbhhwwbZtWtX0kl68o5TE68rGsxEqibiXCzuulre54hJNYD0ideKRXUyfiJV8JUn+tULkeEn/cKfo+SdgQHdFrGo2Jq0CJ2wWKw+obSFsfKYK8bB+FmeRbFo/TVK20bJa+vv+rZRH+h5QF3wqnFpxKIau9UXHeG5cfxjpev9if2rZyJJLLbp1TlVg9cIuOxK2hGKFg6dz0YHh7rSjp24zEk1Ft209cW3o5yMR8m7ekDi7WigvCHF4sTsnoZYrI0yje57xKLvw6o5ZXwMxeYQ34b6ulY/9kdp2yh569szTNubTdu8Dww7dmWrWij2dLBkshHyZvtiVpjqajs6JhbNpBkbMK5YjC3f6UFvxWJETFZ3YHyiL00iWkQUS9UxG3u9mkk/iybZSaFog8lj93tbT/QG6bxjZpC7PlLlFHWkTQKeD4P8+tgjV8hmtaS3Kj/3pBf40BPjVize/mZZftr62Y0w+5Oq8VN5Gdr3Qfl4L+iHD9ooYmibbeOpHTVX+q5fs/4J2dPl2nb4bYj3j58mty9BYPpttz5UW+sHy+eb5JrfW85vvQhZ9jmwtrttHfA59GXOatg2x0bPb2E6a7+qVx1TNl3u3D4S2hiMFdWXuQ3G9tBXng+U/Sr9TerWiMzGIH+J5WROMt+VOAzHa+ADzz+F/0vzVM5J4APHfr9/nT445fvRT+cfq55PA9ucceTxbn28V0XyrQ1uP6ty6n2g+lCVeZkzJ3l1ZPNxMacWbfDbZutX2yKNamMtJ7oPlc2unWEbCn/Efebm9ev205v+9DjN+3pQHRz3fYk/Yv5IEosbN26UlZWV5peh9UkmHGzFIFEDXN2zqAe6M3naSWO9XYa2E1HSfYdmsIaD0EwmmS3aLmcgZxN9mKdSLJbSmzpjE5u/z0KdTfxBm90ToLbXOSHEYKjdt3SFbL/Xud8zaLPxx47iXtJSm6ytFdugPOurXDBm5RXCJpuoq9qky/NZ0RO7k97rQzWxptgcKbfWb+6EHcmrbXL6zZRl+jPW11s+8zbn3qVyv6fYEq9T9UtWniNsQh+F340octh32xv7rH08KH18zNm21fvAnlyLOvx+L/tMt8nhQrXpBuf+wnibXeEQ9FeJ5fr22Hbl2xKHQfmZSCr4KLfJllVqm+6TcnrfR2aMxvM6x/KLDHuhV/jc1l+1Lfk0bJP2oSviQ5vDOTI87gg527cBe5fc8Va51rkHelgflNKH/ZZ9V2LUngt0ntJ4r5gTdX41h6m2qWVo00ZblufbyNziHY+NRfY1r2k61AdJYrEt0KmBVkyQ5QGmJqBJPeASDlB3sovZFZ8UzGAP26DLCiYQvc9Ocs4EH+bVfZNPKo5P9L5i8jb2Ft9H71P/BDiUvZEBEvWXOwEG7alsty3bzav3KXvD9vttiNpgy7PbUrmOz22ayq1fXxEFCx/aiXMS67Oy3wfbU93OSL2e32Mnq0ieyvYXgjzKcZ4v9FN9m3wfRPK6fRYZK37+SF2eD+LCyPWp+uy3L2JT3tZyfdoebz4IfKza480N1ib/4kjxEm1bxAfmQskfH9G82u5ROQjak/nCq8/tM+srt93uZ/e4I2B1n3h+GtAPkTo9m2w9ehsvy+UgdvFZXV6Zg2K8K3/VP+BSZq6uPI4VvsUXqb7ojliMTXDe4J1Up9dMCnoiMhNfsZThLFl4E76yLz5J6gkmX2px8nsTXTyv7mg9yTn58rIik39+rHxiqYcm3k4rosuTYI29pX6rSOuepN3PNn9snz0WTvw6bcxH9qq/wgZbnt2G5dr9iVvtJ8uFKsvrY8twjS2xvo6WYcsqb70Tmmd3pF7Px2YsxFj3xVG5To+toC8sQ0Wa+JjLj9f6IJLX7TP3c9b2MruxdjpjKVJGblt0jEds8vzu+6vcP36/aHvzcewyXR7T5bZZYenms5+dNlYJTW13zD+mjDQOKvzh+tX9bH3l7EvxQdmPvp+tmPN59n0Y9Z+yxxsXRble+oo0BStFvpH26Xp8u0cqz/qbLZFHh4HOiEU9CO1J1mnA5AdFbGIz++zEqCYl+7neHn/St2nT2hbPq8tYxWShJ9IhREY5ve8Xb5LU/VNjb6T/ohO7c3KITs7u8bDM0jFlr38ytP6326gNA8sdcsJ3+krVVxZKqrwK3+m8Vtyaest+H2xPdTsj9eo6rd/M8bjNg+u1fva2up9s+bYMny0v/UAfRPK6LLifs771fWjamN/+oNJ4PrBiq+rkHPFhtsSa6rdy/wRlqjYkjl2/bZl/dXuq7Ld9UBGV1D4blYOgPbF+GNRPCT4o+7Fom73f0Zu3B9WZ2Wl4jHBm72G056mQGy+/a8ton3Uf2zonVIc3BqljLkVkklhs/p7FwSf6ycEcTgpmonPvB0y/bys+Sdor3EEnEz35RU8SmU1DTBjRk0jlJFAuX9vi3ItTLq+irVV16InaFQ3G7/lkXpp4yzZ5DEQm/mr/ZZO1zuOLMa9MZbu2Y0CaqjZm+5Ud79r/Rtl2vOqEXeG70EeZLR6LA+pW7dF95SzXFW2M1Bv4vTrvKk94QfnGlpq+HeiDcLyG4s4/btrj3hsXcJffx+mwGWGr8GEoskx57n1rbtroZ6/8zBfeA2WhjdW+L49LlbbGvy4/oa+dY6NyUMofjivPB8rmsM3h97IP9HivmhPD+rLy3Xuidd/U+KA0n4Rpo2yX7Ywy4Pi6/rjyg8Nmcr5x20F59f3Uff8kicXGX52jBmFUJE2jA8yk5C1VxCYgPVHY5RyzzcVf5Jguzy0nm7zcenKhlE8AgS2eT4qTSl6Gc1xPbN7SVZVQqfBpYN977zdPzNo2lk9Kxp5yGyrKz0VM4UM/b9B27+QZKVP7vNzGgX4o9VW5DHOiK+y0PkieLLI6/PZZUVOUm/ejw4lv/zbZ+i9XMzZCVmwbI30WOeGF7Q+fEK31Q8m/FcI74M2N9NX7wHDi9UnIgmuDGiPqiVtnrIRPMhth75yQw/Ly8Wk59P37rv1v0C8792wq5bF5zdZto+JksbR6UR4PhY8ix/TYt/2s6vBt1Ky5Psjsc+0I+3kkDmwUzpmTPP+4fZSl8Y5r+yLtDMeK8z3k0rf/BrlOv2nB9VG5L3wfhD50GFH2RcZOaMPI35WfIv02crkD+KR8f7zOgz86IBbNgCxPFPPXWfMA5NjaOPCEDj9j8zUnlrlclpooP4zfBKY4N06UQeY1j8EksdjoL7gwaXgdxuCoEHlLV8jbb7c/9Zhd8ddEFfBjhR+ZIBlvbWCAeX8wh/hosI/awPKM2JAkFjmxcmLtAgPekhlCkYl0RibpLoy9sduIEGL8Mn5bxQBiESBbBeTYTzr0L/0LAzAAAzAAAyMxgFgEoJEAQtwRdYYBGIABGICB2WYgSSw2/jQ0gg5BBwMwAAMwAAMwAAONMIBYBLxGwOMqdLavQulf+hcGYAAGZocBxCJiEbEIAzAAAzAAAzAAA5UMJInFhYUFWV5eriyEq4fZuXqgL+lLGIABGIABGIABl4Eksehm4DMAwQAMwAAMwAAMwMD8MIBYTAk77zwl7z1+Qfbo/x/Ide9ZJMqa4rcupfnNfyD/56drRGL/33uVXNeltmAr4xMGYAAGYGCMDCSJxbVr14p6Irq5q4h3y9W/82fynk99UtaPsfFDt+eaR+WmL61WLN4t2x67IMsfu74hP26Qy+9+UT7wuSfl0iZ92IG6b3/i78ov/uQfyucun5+rxqHHQgf6kTbBLwzAAAyMh4Eksdj8q3MQi8MBf5Pc/wd9OfHbOx1hilhM9WFzYnGb3PuVvpw6tNvpt/EM9NS2kw5/wwAMwAAMhAy0XCwakWiWf+0ycLb9whnZ8gbboUE695haQv7CGXn7b/5QLyO/51MPy1t/58/0ZxPlM3mXP3aHjl7auqJRzLrIordUfUH2HHpMNujoi4ko2nK9bZ6mJz1ddtHGaP0p0ZyrbpdHv9GXbz62X67R6Y1I9Oq1S+pf/r5cc11PXnfT12Tn8R/L9j3Wn2p7mbzlgQuy+977pdczZey+90EdnbRlhVHKtSvfzpbqVTv88tQxlf5yJ02Yv7fhiNxobVPbJ5+VRacNuz/9VVl6JCt7b5Y2a4MGe/1t2XHjx1L5Kf7r9SQqFnf/E/mrP18j//XzF3tC7vFv/C2RbJla5/veq+SzKjJpl7PDCGWw3B2W17viFnn4TF+efeITcm2iveGg5rvLMZ/hAQZgAAZGZaDlYtF2cF1kMROKjvB64yd/KHusYMxEnBJfl93yPXn/cbMUrNPoPIXQzJeIdZ7IcnOlWLxbtt1nxWEh/PLy9Em/Zhk6E4pFepN2WMF41e2Pyjf6YUTR+rAusugKQ5NeC8hciBWC04jHnhhh9xO5+Y4PafGkhWKevixArZDMBZwWhkV+LU7vs+KwJ71M+Lli1QhQY+seVdc7lDjMyvDSqzaYdHl9QwivqFjs9cQVhnrgaQH5K/Kjj79W+0DnUyIxv8fx1+Qnf7pG/uepX5MrVP1aKBbpexUCtNczEcb+s0/IJ661/cd21MmO/DAEAzAAA6tjIEksrlu3ThYXm3yoo0YsaqH1vFy96DjAFXVa+Jnjm5RYzESk/uyIRV+YmfoK8ZaV7ZZbKz5i9laLxcKWog2urSlw33T/H0i/f0J+e2dRhp+vTiz2RIu5IJJXCK1YXrPPiDklzFzhp2zwBahffvm4b6s67tbpfnbLLerV4ja33/jAF7xmX7me8v4qsWjE3ivlW1ebPGG68LuqS+/LxKMSm7lwzPgpCdCcqyvklofPSL9/Sg7tLtuY0g7S4DcYgAEYgIFxMJAkFsdR0WhlxMRXBkC4/JsvY2aRwRHEoi8gbcQwEnHs9URHKvO6zTKon79aLMby6qVeGx3NBUQF9NnS8yhi0UTysqVjHaVzl5FdsWZtcPYFy792mVptbSQyRSza6KOb3whWpy5PhBZiMZZXl+NEO1MZjIk+k/cief7fvSxbinY/G5/E8hX7TPphnrbedu9XpN9nSTq130hnxyZbWIABGBgvA90Xi7HIoiuuViUWK4RdRWRRRwGPu9HNmLitKLPXk1hkcTWgr34ZWkFlBJkSdzoi5z017Yo1C2A8wldl9yCxqOv07nN063Q/x+uNRRarbBm0vxB4tq3FVh9TkUK1hPyi/8R0LJ8bOYxFFuO2sAwd90vRDxzHFzAAAzAwPQaSxOL69etlaWnJu7F/2p3k3YfoisGeEWbFAyWB81YhFsviLyuzQiyGtpn8F4JX/dTYqcsd02t1Sg+4FP7Qgq0u0qbuI/zyC7LzETeqqPK7Ys2UF4q7QWUPEothflP+hexVP279cbHo3+NYtHk1nMZEX1GOug/xV+S/v2gjjEVdpXzhPYnhPYsex1k5PODS6DxT9HPRr+zDFzAAA/POQJJYbP7VOQpUE5nLlyi9JdpMiLnLwPZ4oljMy1Vl2LzZybxqmbi4pzGw7dBjcuUnfxiIRbuMbZaodX3OQznh09DquL+MPcxgjb06R+U3Qitva0k4ZseDe/+sWMzzKR+V8mb3Pbp94EQKB4nFkm1PPitXZk9QX+qJ1QqxqPoqshxe3HeZ7r+S6AtEnY4W/rS4d9FOIjqffQpab52HWWwZwdPQalm6eCKaV+dYX7JN5xVf4SsYgIFJM9AhsTgpGGJLxpOqq+3lukLMtdWN7Ln75/Ozu7TsDtBBItNNy+f5ZId+p99hAAa6yABiMVvGXn0Ub3bAL0f/bNsQi/ng1pHBclRRHUcsWl7Y5rzYiDJbbi+AARjoMANJYrH5n/ub5Mln3iOLRgjqJebI0rI56SEWiyXmyNJyNgEgFic5TikbAQoDMAADTTGQJBabMo56GRgwAAMwAAMwAAMw0CwDiMUOh4UZPM0OHvyP/2EABmAABuaBgSSxuLCwIMvLy9xvMAlh+ZpXymW9v81/x33w2le/kvExifFBmXAFAzAAA40zkCQW2/HqnNm8etlw8cvlwPVr+O+4Dy561csbH8zzcHVLG2dzHqRf6VcYaDcDiMWGr1gQi7MhlBGL7Z7oOBHRPzAAAzCwegaSxOKmTZtk3759RE4mICwRi4hFJrDVT2D4Dt/BAAzAwOQZWIOTJ+/kOh9vuPifyh/99G/E//u5/OzUKkXUyhn5b05hv/jPh8eyxP3ZYz+Q/52XO6x9G+VP/yrPbD788mfyk88O00a/jF/+9Tl5ukVL10QWmx1HdWOMY/QNDMAADIzGgI4snjx5Utz/LjpV/ySf+/N5E4gC1vql4neja/P0emLFoit+jDD7f/I/Xnz/cELvfb8l/+V/iYxLIEbvpdRitEIsVh4zQs+163N//JciUlFOrQj8VS2uXX9F7YyWMUreemGLWBxtIho0TjiOf2EABmCgOQbWqBdu2/+NGzdq0djFDpklsajEjxZTw0bfKsVavdBJF1tr5EBdHZXHymLxwPVGuMn//ZGcjwq7KptHEXyj5K2yx+xHLDY3iXVxvsJmeIEBGOgSA94ytBKNKsIYNkCJyJWVldL+MN3kvt8t2x67IPpXRo6r7Q/kuvcsanu0SNT73OPq8/Ny9aKBcdMt35P3q6jjzlPyXps2j0JGfsElGiWssEGnDes231N+QjAWWdTiLRReWdTQLuZGI2thHk+E+cu4flQvIuaqyort1/usZf7WRBMj5V+/RnQE1RXEQTluJLIQtHWCL2hjLkQzYeqbZr659VsBa9N5xzJ7VZmunVkdiEUm/snNf/gW38IADDTLQJJYbPbVORExF1lirossarGoRaIVkEb4LX/seunFfhu6JBZN+lrxV8qT1rH1YjFbii4tLxtRZAWjWdK1CsfZOmLnc3/8n5z7IDPxlIupiJiLiUIlPqv21x6LlG/Fol2K1uU6S++lNtvIXpVY9H0Sj1xW5VVlhz4pR3eL+zbt8nnRLsRiGu9M+PgJBmAABrrHwJqrrrpK7H9VZLENYnHPF87IljdUO3iwWLRCUZXhClD3c1Z+IPy02BxQfy/IkzoYUsSiFim5sDOiqRSVqxVrVmgVWz9/IXryCF6VKKzaX1t/pPxALCrBa8WvtUGL4KDdVtSFabWIdcRxNDqbCcJSXmW7FqdWBGZ+0vsKAWvEopumEJ+38Z7FBlcequeF1HFIOnwIAzAAA9UMrHnppZfE/leJxeaXoY2gy5eh8yXkomEDxWKl2BssFuvKzuEas1h0hUlK5DAujgpxaCKCTtRRfczFVUTMVYnCqv2rEIu6XdqGLKoXmKe/JopF469YAXFxV3qSWrcrlj8Qi7nPHN9ev0aILBZjMR8TkRUAjuEnGIABGOgeA0nL0O3q2PiScJ2gq48MDhaL9fmzTh+rWPSXRLUQKokmX6zUisXIkq4uMxc+TYhFU6eN8sUiizbC6G+LaJ4n+JTYy9sT8Y0Ss8NGFnWeoizfZ8V+ZR9isXuTX7vmNfxHf8AADLSXgQ6KxYi46/XE3JfoLjUXTh8k9nyhaR9kKR6iMUvMF6T2nsVeXMQOgj+2DG0iiU5ELCL2fAGVCZeqqJ/eX0TIzJKrG1kMBFhWn/8QzIA68qXc2Kt7QjGaiWFX3IU2BkKtaG9ga57OF59Fel/UFdFMf78VknVPZyMWizE1iGuO4ysYgAEYmB0GOvDqHCvenCeOI8vQ9j7EfKk6fBq6chm6J1YMmrxKJH5atj3miEW1nKYjh44NzhPZ+YBwn7Y+PkhcGoisWPQWQF0RZcVQLuCKlDYqlwujKrFoX8WTZ/25/KwfROJ0Xpvg5/KzZ9U7G61gzcSdPZxvHQGa2akFVX7cCkcj5JzdEhVlng0mdf5EdOSYTuFFXFPqCdJ4vo600zmOWJydiS8fsyyVc68pDMAADAxkIOml3Pzc3+ROkvzcXxjh6+Z3lqEnN0YQdvgWBmAABpplwFuGruqMZp+GbtZBVT4Z137EYjfFYR7NzSKqiMXZHqfjGu+UAycwAANdZEBHFgcZjlicHNyIRcTioPHH8cmNP3yLb2EABmBgMANJYnFhYUGWl5cHrmnj8MEOD32EWEQshkzwffhxhM/wGQzAAAxMjoEksUgHTK4DEIuIRcbX5MYXvsW3MAADMDA6A4jFhp+Ceu2rXyFXrnsZ/x33wWv4BRdWHhqeSzghjn5CxIf4EAbiDCAWG57gL774Yrnooov477gPVD8yycQnGfyCX2AABmCg2wwkiUUecOl2JzNI6T8YgAEYgAEYgIHVMtAtsbj9gBw925d+/7QcWdlMJKfhqOhqoSMfExYMwAAMwAAMdIeBDonF7XLg6Fk5fWRFNiOSEMowAAMwAAMwAAMwMBUGksTi+vXrZWlpaSoGVV9p7JXDZ4goVvunO1cotIG+ggEYgAEYgIHuMJAkFlvRoXoJGrHYir7gSq7hC6fuTDDwSl/BAAzAQPcZQCwifBA+MAADMAADMAADMFDJQJJYXLdunSwuLlYWMpWrhr2H5czpI7KyufsKfSr+AvpmecX/+B8GYAAGYGBGGEgSi42+Osc+AX3soGydEacjFhH8MAADMAADMAADXWGg/WLRCkQii1yhWRbYwgIMwAAMwAAMTI2B7ohFHnCZGhRdudLBTq7KYQAGYAAGYGDyDCSJxbVr14paim60QxCLzfqfKzj8DwMwAAMwAANzyUCSWGxUJFowEYtzCWgr2LMMsoVBGIABGICBOWSgO2Kxx0u5EU6TD7XjY3wMAzAAAzAAAz4DSWKxHb/gws/9Aa8PL/7AHzAAAzAAAzAweQaSxGKjr85xw732NTp9fsmFwTH5wYGP8TEMwAAMwAAM9KRbYtEVjnzmvhEYgAEYgAEYgAEYmDgDiEUgmzhkXJVxZQ4DMAADMAAD3WUgSSzSwd3tYPqOvoMBGIABGIABGBiFAcQikUUiizAAAzAAAzAAAzBQyQBiETgq4RjlKoS8XMXCAAzAAAzAwGwwkCQWN2zYILt27WpUVLTmiWzEZaMcMPHMxsRDP9KPMAADMNAdBpLEYhuEWhtsAOzugE1ftaGvFmTXQyfkqft2eBcYm+56XJ77/G3evqr+Wtj1kJx46j7ZwUVakr+q/Dj+/dvlU0+ekCMrm1tmVxu4x4bx84ZPm/bpmhQD2iDUmrThjVceledufUHOu/8fPSOfubQAOExz7qaP5ZNoeEyV4x43fbBFbl3+rlPH8/Lom235b5f7dwX13/qCfPd9D8qN+iQaP37+n39JPqKObzokJ5Tt9nue59/L09cuazu1jUGbXDau2fYNxzZri7XR1m+/G7tVntzGhX3yxV+3+Ypt2Q+2zZPbLt77Y9lz/Nvylg0D6tjzrOxOSYeQyVkvmFFC8RnpP/d5uS30z8IueeiZcyURWeQ1/aKE4jP95+Tzt9l+eq384bfXiPw09v8y+YsHbLopbXcfkuMP3yJXhO1L+b7vffJvv7Nfzmf/f/i7b5bX23z62AfkNy5Jaceb5NDX/pWcP71DPriQkn6MafYelq/3j8nBq8dYpvUB28iYws/hHMH36TGhI4snT54U9z/sgI0bN8rKykqj8C4sLMjyshE2oX2T/j5ISBkx6AilTJxZIVTKr48XQq3Xy4SiJ9beLvfvzMRez4gxW151e005uUCzE25W3zc/dDYQoIUNJRtt3mAbT2fs++6HviWnHZFcFotFfdVtmDz88y0WjYg7N+FonRZ6556S+3bE+7MsBIN0gwTlhtfID08jDP8AABfFSURBVP/jy+Svj1009Xlp96FTckaJRCsWr71bnjjxsNxyRdCGYOzkzGsx+FH517vXGttvvkn+zR/tl1wwtkQs7vzsijw/QITuPfx16Z8+IiubE9te5ZNG9r9Orrzvguy579DUGcpZaKTdXewrbG6amTVr164V+69EoRKNTRvVtvrjAsnCGxdyOhKXRfLK+f08+vitjtgsTSB++mr/1InF5+WJG47KN71oZCHeyjba9vnbeLrMvpsflS9+qIi4tlUsVvvPb2tvJiOL0xCLm+Sux/sDlprr7VBL1dGopB0bDYpFxc+1dz8hz/b70lf/Z4YQij0TCcyFYdYeT5gNJRYDZq1/xrD1bKosb68c/npfjh28uoPnDcRi8lxY2f+T4w/b2uVbbxlaiUbEYrmD4gIpS6ejdhGh5+wP8+vvuTisEHje4ByPWHz06n2OmFNljlks3nS33Lr8rXxpe5xiUUcDH3laLl/n9M91T8rNX74gN65cmp2o7pftT16QPcftv7/UfOkd35cPVByzE5OJOtr8auuXYdPFt9nSqxURfX+pVQkgFdF7rxJCNk24TLvpLnncHusHgktH29SyrBFjpgx3mbYnPZ0mEzGqnDy6F9oWS6N865at0vjl2zbs1EvEpoxSlFK1Ia/X6S+P6Z5URx+VDb7vSv6uEIsPnHi5yJ//ffmqW9elvyp/+dNsmTrL9xcPqsikXc4OI5TBcndYXigWv3KvXOfWV/dZRxGdqKJN6+63YvHj7lK1syydRSLtErbeliKAb5Pf/1axzH3+S9fJJbYuu9X1OGmyMrRIdJbIi3oidvd6oqOLxw7K1bbc5O2/kLc/7I61C3LDXoeXvd9yxnIQAXzHV2Xn8XNypd7aMs7JlV7dh+SGfLyrNC/I296hys9EonesqgzHHq9s9pfGJP7p4AVTOsdrrrrqKrH/bRaLyjZ132ITgIZiz7NBiUJv+ThzfigW3fsdc6Go0hohWFo69gaeSePdM1lz32OpLMeWa7adysTcJMTix/T9kV/NopdlsVjcq2jaUohVz6de2zN/amH4oizd9PqcAS3+cgFphOLOu2+T12X5jTiMiL2KiGFJkFaki9uaiTFX/GnhV4geHS3r97Vg1A9sZMIuf9gjSG+FX37cEYJ2nx+BW5BdD37BWfo1ws8Xc3URvXL6cLnYtiEXodqmoo3KN75NNZORzuuLUe1b7YfIfpeLCrHYc4Vhll4JyF/+h38sd6nvOp8SicU9jluO/D2RC39Hvv9hZasRinn6Xk9CAVpaht59SE6lRhe10HOEn21TSSzud+5DzO5LjAm+Xk/KEUAjFIvoZSS/Fopx8Wf5Lpdb0Zfq3sWhl6IzoVi1BKyFohV3qt4gfS4SrUAMjmfp/9mddbdPEVm0fc22gm07PtnKmpdeeknsf5VYbMM9i617wMU+LJIqFq2gdISbGaDpYnG0exaz6KeqX9s+IbGoxa+pqywWhxCHpcH5YbnmyE+kEIPmex5VjAo7IyDzNLbMyrS+GB1qGToimno9X5jFRJTaZ8Wc+9lO3l6eTCxaoajSVEfnzOTn5dft922y9ehtVKQZAWnr1OV5UUP/eNhmr3zrf7uN+mxwm3SZVWIxE3u/eO7V5qIiTBd+V7Zk+/QDMkps5sIxO4FEBKi2wd6zaNuTsk0Wi4GgVOKuFD009pVEXSytFoe2zPhSeNhXpXKr2reaB120GLRCLzxRV4g4N48Wi66Y7Mlld74gex7+qlym7czEY/49rEN9r6inqp3szy/UQ1b4HuNrtvYlLUM3KdQshE3aMDCy6EUKM0AcEennN8vOhfCb4jK0frpaiUQl5iYlFnuiRKJq33jFYk+0eLORRB1pLKKGfpTRDtJQYGb7Y2IxErkcSixGhZYfZSsLN/d4Fpl0lqBLS9UV4sqOEbU1kUBniVmV50Y7AwFbyusJQeUvX1zG2uCWEab3j9l+ybYV7RkkgHWZMdGXncw33f6P5G+ypWP3c2U+pyydfpJPW7sRRFd8uCLSE3aZr2L7svyhqNPfo8vIViyayONXPrG+9uQfllvZl6sQi76wC7ioigq6AtH9nPmhXGYmGO1ycymKiVis7FOXTT7XjpN58SFiMWEg+GIvnNhMZLAQf+a4Ekr2VTWl/I6QVKDptDbyGLUnXkcZ0grhGUQzlT2nbzo4gXsWs9cFqdfkfOBLck/p1TmjRBaVX1Wk0ET/lDgsooyZkCzdXzhEZHFUsRgVPoOEVvm4jTKW+9bej+gv+XrpwmXs6JKwX2c5f7j860cOB4tFVwCHYyX4rn0W1qde9aTu24zsd8eGI/C8Nqg0TqTwgROv8J+YjuVzI4exyKJb78if41E9T5hFhKF3PLChdEzlr4hCGl/FbQj9WCo3qDdPv5plaDdKWCq3QsS5eZLEosubuX/RX5auqKdkj1sOn/N+x09zJSKTxGIbfsFl3bp1sri42EjnlMReMEi02HOji1qcFcKonD8Qf/YdhHZpW5c/7lfnOA/haDH3NTk29gdc7LsllWg9K8d2hu9ZLHyy2gnHiMTD8rYjL3j3LxohecETkKV7EG2/xSKLvSAKqdOom96L6GW9zUaEuVG86P1+bpQvFHfhd2uv3UYFaXHyCuszoiuMLGZirhRBVOWU71kMl51TxGKS2LNR0Bo77NJ31O8x0Wf91OuJug/xly++Io8w5mVE8vn3JJbvWczzOuWPsk+LsO849wvqqOJ+ySN9JbEY3oNY9Lmyoyzq6tPneVwbYm3Tdjh2xtKs+gGX7OGTUrQva5sWhu4ycyD2hhaLJsroi8Vs6Vo9KFPRtlH6mbw+p/ij2/7g1TkJk0RZ7JU73QhG+wCHI8x6PYnl1/tcgZk96FI8xOKWYcRlcczUUzzIEj9uI5vmpdxueVk089ZCvBl7rP12W+Tx2xceD8Sv8qkWzM6Lw60g9h70ib2cvOxbb5LREcALsueBz8nasO/sMbvsZJesdTojBosnpe3Tj859il7+b8tbblRPW6eKRWW3EVv58nEQHdNCy1tmjkTPtGD0l5Fz0TRALNol4Lz+c0/JA3c+JM+4AlX7IrDTFWy6Dqd+91g0UhnrLz8a6fVf3mc1Ec6UeiKiz6tHRwvXSH7voq1X57NPQZut+zCLKSN4GlotS0eeiPbqs+Unbo1gtE8iB4IsE4/FU8iOkIyUXxaLqk+MYHTLCJ+I9m1wH6gp+nT/F+/IXxx+PiouR3l1Tvi0sv80tF5WtmP5+AXxhN5AsVguO/4+xWCpGuHYSEBmlLFE3mK8TtIXSS/lnqQBlD2djsbPzfs5KSoXEQNd7LtSlDNo18D7EjPRmgvlIP9An7hLy27eQSLTTduRz3GxOB3eV//anOnYN5CTjvQx7YCXphnwlqGbNqau/vXr18vS0hJXPUxunWVgnsRiHuUsRTUT7r3MGB8kOKvnCxMZLEUVVbmzIBb3Lcth++svWQSxeE3OFE+qq3iwpbrPpmg3c2hn51D4aW6c6MjioA5o8klka1sbbLC2sG0O2C77fr7EomJELTWfKP0GtPJDasRQCcYTqT9N6Cwxl5eWM2ZnQSxmvwJjl5gbEYq97fKpJ0/IkZXNCA/EJwzMAQOIxTno5C4LLGxHmMMADMAADMBAswwgFhGLXBXCAAzAAAzAAAzAQCUDSWJxYWFBlpeXKwuZhuJv8uf+ptE+6mj2qgn/438YgAEYgAEYiDOQJBZxXtx5+AW/wAAMwAAMwAAMzDoDiEXCzo1GjGd9gNE+TiIwAAMwAANdZyBJLLZhCbgNS+G93mZZOXJa1EuPzx49INsRmghNGIABGIABGICBGWcgSSy24bU1bbBh88oROX32qBzYzlVS16+SsB+GYQAGYAAGYCCNAcTiEFcDWw8eI6I4hL8YhGmDED/hJxiAARiAgTYz0BmxuGnTJtm3b1+DoW6zBM3yMwO6zQMa2+ATBmAABmBg3AwkicV169bJ4uJig0KtDR2PWBw3fJTXBq6xAQ5hAAZgAAbqGUgSizhROXGrHDx2Vo4e2D7norkeKFjBPzAAAzAAAzAwWwwgFgfeg2efgD4jh/fOVuczmOlPGIABGIABGICBQQwkicX169fL0tJSoxG1jRs3ysrKSoM2EFkcBBPHmXBgAAZgAAZgYPYYSBKLbXhtTfM2cM8iE8DsTQD0KX0KAzAAAzAwiAHE4sBlaAsRYnEQTBy3rLCFBRiAARiAgdlhoDNisfllaMQiA392Bj59SV/CAAzAAAykMpAkFtvwc3+pDZpkOl7KzcCaJF+UDV8wAAMwAANtZCBJLLbR8CZs4uf+GMRNcEedcAcDMAADMNAkA4jF5HsWFaj2NTp9fvZvKL8xyJsc5NQNfzAAAzAAA6MwkCQWFxYWZHl5ucHX1vSk+Z/7A7RRQCMv/MAADMAADMBANxlIEovNv7amJ22wAci7CTn9Rr/BAAzAAAzAwOoZQCyynNpoxJjBu/rBi+/wHQzAAAzAwDQYSBKLbVgCbsNS+DQ6hDoY+DAAAzAAAzAAA21iIEkstslgbGEAwQAMwAAMwAAMwMD0GEAsJi5Dc8/k9KBkAsDXMAADMAADMNAeBhCLHRWLb/qNH8meBx+RhUT733Dbedl9/ILs0f/flasubw+E+YTw1nfIie/sl/PZ/3e/vF1utO3Tx26VR389xe7Xy60P3yLnz31IPv2OlPSkyfvA+pst9/LCAAzAAAxkDCSJxeZ/aq/5p6HbFlkcVizmYuB935Bdx1cpFkfJO2jS0WJwnzx98HIzODdvlS9+fb/kgrElYvGNH3m3PIcIZQIdxDPHYQQGYGCGGEgSi20QSk3bsH79ellaWmoN/LMlFk0kMBeG2QDzhNlQYnFykULPphmaCPKLCdrUmjFOn0xuHONbfAsDwzGAWOzMyfGgXPf7dhk523rL0Ltl6+/+OFtmviB7Hj0pb9wQgaEmOqgFaGypWucJ6s7SvfOjVxUn1yCdd6zOzzqK6EQVbVp3vxWLH3eXqp1l6SwSaZew9bYUAbxE7v9Kscx9/ps75SO2LrvV9ThpsjK0SHSWyIt6QrsXZNdDz0i//5x8/raI/209bAtu8AW+gAEYgIFWM5AkFtuwDN22yN50r0qMUHz3J++UddmA8iOLmVB0xKM+HhOMFWIxTG/ucQyWqyvyal/oY38i1958mQF+6XF515MXJEkwaqHnCD87aZTE4n7nPsTsvsSY4Ov1pBwBNEKxiF5G8muhGIo/X/CVy/WP93qIxemOjdD/fMf/MAADMDBuBpLE4rgr7WJ569atk8XFxWaUvxJigfDzxKIWZoGw0/sc8WYFWFTwKTEapjUC1RN70bxmUCp7XDGr+tiz0dYf2yaLxUBQKnFXih4ae0qiLpZWi0NbZnwpPGS1VG6sPexrZpzgd/wOAzAAAxNhALGYCFaT90zqKF+dWNQiLrZMHArAnvRigi+LAponpf1y0sRisASeL2VfSHti240guv3hikhP2GVXjbF9Wf5Q1Onv0WVkKxZN5PHcEWdZ3bWlotxQTPKdK3oYgAEYgIFZY6AzYrHRyF6v2aexB4rFWGQxInQ0vDGx2ItFFiODPZrXpItFFtMHSzyq5wm+iDD0jgftLR1T+SuikMbOuA1hG0rlBvWG6fke4QifTeTKH9ZgDQZgYFIMJInFNvzcX5ORPeX8RusPlpT18q6K3uX3KJbvWawEpkLw6TKD6GWpjCwC6UUb7YlflxuJZNrjA7ZahH3HuV9QRxX3Sx7pK4nF8B5Ef5Ioi7r69KqtJRtiNms7HDtLaew9i+fkqft2IApK/vH7qcQY6WEGBmAABlrHQJJYbFQoZdA0bUPTkU3vpdoPPiKXq5ds52JRnYAjS8G5+Isc00vFvrjLRWi+jBzcB9nriWfH8eABFi0Ya5axB0wARqzZJ5EDQZaJx+IpZEdIRsoti0XlIyMY3TLCJ6J9G9wHagqR87bf+nD+4vDzrsDN7Nh01+PS7/fl3FP3yY6IbQikwpf4Al/AAAzAQPsZQCxyMm/dFcw4Jo64WJzSgNx0lzyOWJxJrsbBJmVMaRwytzMGYWBsDCSJxYWFBVleXh5bpauZLNeuXauXgleTlzxzMDm/9Xo5bH/9JYsgFq/JmW77TWSR9ywy7qbLHf7G3zAAA5NiIEksTqryLpU73+957MIAzN6bGPtd6WldXS7skoee6fNC7mn5m3oavYDv0vyNrV2Yw7GxzZwiFhNPOE3fM9lmiLCNSQ4GYAAGYAAGZpeBzojFpiN7iMXZHQRMcPQtDMAADMAADFQzkCQW2yCUmrah6fqBuBpifINvYAAGYAAGYGByDCAWE5ehgXByEOJbfAsDMAADMAAD7WUAsYhY5CZ5GIABGIABGIABGKhkIEksNn2/IFcb7b3aoG/oGxiAARiAARiYbQaSxOLcQ7D1oBzrq1einJWjB7ZXKu+59xNXZbABAzAAAzAAAzPHAGJxCKg3rxyR02ePyoHts30Fgeilf2EABmAABmAABiwDSWKx6d9FVsZu2LBBdu3a1axa37wiR06fkcN7AcgCxBYWYAAGYAAGYGC2GUgSi214bUwbbOghFpsV60NEgZm4Znvion/pXxiAARiYHgOIxWEECGIRsTgML6SFFxiAARiAgRlgoDNicePGjbKystIwdFvl4LG+nDm8t2E7pnc1wZUbvoYBGIABGICB+WYgSSyuXbtW1DIwsBhYth48Jv0+9y7Cw3xPHvQ//Q8DMAAD88FAklgEBgsDkUVYsCywhQUYgAEYgIH5YACxOMy9BNyzSHR5GF5ICy8wAAMwAAMzwECSWGzDL7i04p5FxCKDfgYGPZGA+YgE0M/0MwzAwLgYSBKLbXhtTRts4NU5DLxxDTzKgSUYgAEYgIGuMIBYHCZSRGSRyOIwvJAWXmAABmAABmaAgc6IxTb8ggs/98dVYFeuArETVmEABmAABsbFQJJYbMPP/Y2rwasqZ+tBOdbvS79/Vo4e2M5V0gxcJa2KA9oN+zAAAzAAA3PIgBaLW7ZsEfefEylXIzAAAzAAAzAAAzAAA4oBLRZPnjwp7j9wAAcMwAAMwAAMwAAMwIBiIGkZug2vzgFYgIUBGIABGIABGICB6TOQJBZb8dqaObxHgAEx/QGBz/E5DMAADMAADPgMIBYRodysDAMwAAMwAAMwAAOVDHRCLO49fEb66mnk00dkZbOvdlH/+AMGYAAGYAAGYAAGJsdAklhsRwdslwNHz8rpIyuyGfVfqf7b0VeTA5b24VsYgAEYgAEYmC4DHRKLPdl+4KicPXZQtiIWEYswAAMwAAMwAAMwMBUGEIuANhXQuAqc7lUg/sbfMAADMAAD42IgSSwuLCzI8vJy46KiPrK4Vw6f4b7GcYFBOUwyMAADMAADMAADioEksdiaV+fsPSxn+sfk4NZY5yEWGdQxLtgHFzAAAzAAAzAwCgPdEot6yTgThdy72HikdxTwyMvEBQMwAAMwAAPdYCBJLG7atEn27dvXvDipjSx2w+EMDPoJBmAABmAABmCgSwwkicW2NKj+nkXAa0s/YQcswgAMwAAMwMDsMDBDYjFbnq68p3F2Oo0BSF/CAAzAAAzAAAxMi4EZEovmpd3ql16OHdza/JI5r+ShD2AABmAABmAABmaAgSSxuHHjRllZWWm8wwctQ+vjiMXG+2laVzrUw1U1DMAADMAADEyegSSx2I5X5wz6ub8sssjvRyMWZ+Aqjslv8pMfPsbHMAADMJDGQCfE4t7DZ0QtL/erhKB+SrrmOOIBAQkDMAADMAADMAADq2IgSSxu2LBBdu3ataoKUO1pqh0/4ScYgAEYgAEYgIE2MqDF4pYtW8T9b6Oh2MQAggEYgAEYgAEYgIHpM6DF4smTJ8X9Vx2h7lPkHx/AAAzAAAzAAAzAwHwzULkM/c53vlP4xwcwAAMwAAMwAAMwMN8MJInFHTt2yJ133ol4REDDAAzAAAzAAAzAwJwxUCsW1W9C2yXpe+65hwdceIoKBmAABmAABmAABuaMAcTinHU4NwZP/8ZgfI7PYQAGYAAGusxAklhcWFiQ5eVlriQQljAAAzAAAzAAAzAwZwwkicUuq2Fs52oOBmAABmAABmAABlbPAGJxzq4OGCyrHyz4Dt/BAAzAAAzMIwP/HwX//tYkqd3tAAAAAElFTkSuQmCC;" parent="6dMJGXCS0I9ftsZN87XB-1" vertex="1">
                    <mxGeometry x="280" y="260" width="651" height="206" as="geometry"/>
                </mxCell>
                <mxCell id="6dMJGXCS0I9ftsZN87XB-17" value="TIdentity" style="whiteSpace=wrap;html=1;" parent="6dMJGXCS0I9ftsZN87XB-1" vertex="1">
                    <mxGeometry x="1190" y="-364" width="120" height="60" as="geometry"/>
                </mxCell>
                <mxCell id="6dMJGXCS0I9ftsZN87XB-20" value="限制模板调用方法" style="text;html=1;align=center;verticalAlign=middle;resizable=0;points=[];autosize=1;strokeColor=none;fillColor=none;" parent="6dMJGXCS0I9ftsZN87XB-1" vertex="1">
                    <mxGeometry x="1035" y="-340" width="110" height="20" as="geometry"/>
                </mxCell>
                <mxCell id="6dMJGXCS0I9ftsZN87XB-21" value="" style="shape=image;verticalLabelPosition=bottom;labelBackgroundColor=#ffffff;verticalAlign=top;aspect=fixed;imageAspect=0;image=data:image/png,iVBORw0KGgoAAAANSUhEUgAAAp4AAACYCAYAAABNsOmnAAAgAElEQVR4Ae2df4wdxX3AT5QI0SgljUjqANkqET8skrgxAXGcoccZo+ArhkIcx5DayCKoPeHEhQgTBXJBuHEoJNBrcGViJ4STjRwuqsFeRSolUVXq5A8CKAnCURUpUoTEf+k/SJHyz7fa2ZndmdnZH3f33t6+vc8fT+/d29mZ2ZnP7vvMd2b3xqIoki6+Jicn5ejRo52sWxfbizp1k2P6hX6BARiAARiAgZyBsa42BuKZd1JX+4h60UcwAAMwAAMwAAOLYQDx7GjEdzGdSFpOehiAARiAARiAgVFgoBfiuX79etmxYwfT8kg0DMAADMAADMAADHSYgV6I59TUlNxzzz01oF0kVz62Uaa2fbgmXTpiuuQfrpGt3xmXT3yMEdQojKCoI5zCAAzAAAzAQPcZ6L94Xv0J+dSBVCDXfeXaVDxvuVJuefwyubh0RHCpTB6als27L2wkqYDefdDpI/oIBmAABmAABlaegf6LZxTJuq9cL599dlI2fX2DbPp68nlTdeQzEVOinUh36cBk5U9cLp70AQzAAAzAwCgy0AvxXLt2rSTT7dUdkEYx//arH5WPVApFMiX/KalPB/DV7U370D4wAAMwAAMwAAMuA70Qz7pOTSOem2TLgWvqI57J1Pwzk3LVlW5D1ZXBdtoLBmAABmAABmAABqoZ6L94LnKNp5LUyvWf1Q0KcLQPDMAADMAADMAADIQZ6L94ZtPqTe5q56YiTpTwiUK70C4wAAMwAAMwsHwGeiGezR6nVN9YPEKpvo046WgjGIABGIABGICBpTKAeDoRUW4qWipI7MdFCAZgAAZgAAZgoI4BxNOIZ/IIpWe5qagOGLZzUYEBGIABGIABGFgqA70Qz4mJCdm9e3fN45SqIeGmour2WSpg7Ee7wgAMwAAMwAAMGAZ6IZ7mYJb8rh6hVPNQeRMZ5X1Zgr/kPqLdaXcYgAEYgAEYGHkGEM8oEm4qYiSGEMMADMAADMAADAyfAcST0dPIj564UAz/QkEb08YwAAMwAAODYKAX4rl+/XrZsWMHAoVEwwAMwAAMwAAMwECHGeiFeA7qOZ6DMHnyYEQIAzAAAzAAAzAAA2EGOi+ek5OTYr/WrVtXGMkgnuHOBXraBQZgAAZgAAZgoEsMdF48jx49KvZr165dBfHsUoNSF05wGIABGIABGIABGAgz0FnxpMPCHUa70C4wAAMwAAMwAAOjygDi2eEFuKMKFfXmgggDMAADMAADMBBiAPFEPFm6AAMwAAMwAAMwAAOtMIB4DhK0yx6W6558U7YdTl+3PPCwXDTI/MmrlZMiNELjO0buMAADMAADMLB8BnognrfLhsfelBvvvr1DUjIln3zgVVmWeF57WG48/LJsuHb5nTyIE+XSu1+WbY8dlkuR38Vxtulcefv0mEjwdYa89cT5i8uP9qe9YAAGYAAGRpgBxHMonTe64rnh/kMSH9sv2712QTwHMABQEnqmvP6FQF5XzsjcwrzMTge2eX0xiIEEedDOMAADMAADK8EA4jmUH/VRFM91csejxySOj8vBe6cKo0nEcwAXqCrxjCKZnp2XOF6QuZnxQvuvxMWBMgfQ50O5vlAv2IQBGBhdBkZXPL31lGZdpXp/8gX55GVWp/hp7e1q28uy4fZkajtZm+l91lPdRrz+6rYX5Ba9hlOlDU6FV4vnRU4ebzpT2IVtWVlvFqbuVZ2s7UtfbrBB7j8USxwfk/3brXaL0uNw2jYr71W57rZUUNN6+MsC9L6mrae+my4duNldB3vj3bd5kpUuncjL9PJtmo/f586yhaSMV+W6O+f0mlzvsz4udWFT5eXrdpe13KBGPJPyrpyZk4U4lvnZaa9d7H7hMz86MAADMAADo8nA6IpnFkmoWeOpBcSWMiVKRoiMoKi/jfQksuPmm0me2c9IWXDdY4V4XntYbrBvOtLlF9aD1qzxdI4haYvAcTY6KdfdIY8eiyU+flDunSqHWJUXPFa7bEsiVX1yOY0ygcu/SyXbFsu0ze22KKTJ8sn3K6SJbpcN/2QPPjwJTrY/pgcZ1xq5Tuq1w12bq8rK6xtV9nl522X90EA8VdrpWZmPY1mYm5HxjPMG+ZMWWYcBGIABGOg4A70Xz6Aw2VLkCJstm/bnSAqil3RsqRxWiGcBiJK0pXkb0bOFKJWS4LEWyrMEZsP9ciiOg2s6M1nS+9fl7W9XMmiLakHiknqYNk6FVe2Tib2pp5smFVjv2FXeuYj6dU/+dvNO80wF127/ss+mLpGk5VeXFSpffddUPJM2V2s+Y4kX5mRm3Cq/qj/Zxg8ODMAADMBAxxlYHeKZTQ9bU6aHtbwsWzw9CVIdbguMLw2p9ORTyWmd7CifkpRa8bSPxfpsy14T+AYR8UzKsWXeE0p1PBXiaY49jVxax2L1WzYlH8onIJ5KhK393SUYzcXT76f07yGLJxFPfjianLukgRMYgIERZGB1iGeVjC1bPEMSUiae6ffuOsGStLXiGRJeX3Kb/l22xjPf349oFqN61nEkIuhHLkPC6AmqG5XMy3bKCuXjiWcqsG6/uHk3F08jxU4dlnqiN4h4ssazpN+X2ubsxw8zDMAADHSKgR6IZ0jmrB8vJXAVz/lcsnja8mKVpwC3JMwBvlhXE+UrCI5Tr3D+23y5c8ry96n7u/qu9pDMFWRMS+GWb74qWYTS1CkgjEpm7WPQx1xoC5NH8h7Ix5/+LtRV55u3l913dl/Zn/X0vImM23VY6uca8eSu9jpG2V4455bKIvt16oeYfuXcXk0M9EA8zTSvNUVry0xygdXy6UybmjSO4KVCkt6IZH/Wazy9qVv7hqUEGiORTjnJPqasUF0eOyyX3/1y4Y71UH6ukGmJranTYmEue45ndmNNVl4o4qrrZB+v+YFTwmj1UZJPKBJtJDErJ9nHil42EE+zdjTvh+RJBXYUtpl4hvpA5RmqtznOqvcq8eQ5nohAFTtsgw8YgIGeMNAP8WyhMwrRuRbKXKw0rnx6N2Lo1CckjLQhF1IYgAEYgAEYWFUMIJ4NgUc866dCKtsI8VxVFxZn0NHwHGOf+nOMNqKNYAAGRp0BxLPhj2KlVDXMY9RhCdffmvIPTbGbtkE8EU/DAu+wAAMwAAOrlgHEE/hXLfxhkWY0TbvAAAzAAAzAwLAYQDwRT8QTBmAABmAABmAABlphAPEEtFZAG9bIiXwZlcMADMAADMDA6DCAeCKeiCcMwAAMwAAMwAAMtMIA4glorYDGaHR0RqP0FX0FAzAAAzAwLAYQT8QT8YQBGIABGIABGICBVhhAPAGtFdCGNXIi31EalU/Jlw4el0N7J2CO6w4MwMDQGLhw6z458vzjchdtPLQ2Xs5vL+IJmJ0EczlQD2zfS9bIG3vHRB5KX3+cOVd2lvHy8XPl7STd3vfKI2VpGnx/9cZz5J2HxqSyrAb5DKwNBljW9v0/kPjYo7Jz3SjJ8mqu6xp57ZUxefvJC1bwGnG+nHzxDJHT75I39n5oBeuxmjlo6dinPiC/eW1Mfv+98xr38xe/e5bI6T+R3+zzGV0rew7EcuLpB2XzAK9hXbyujmKdRlw8b5X9nz0lP77Te332W3KTDdsl98lTO6w0O56RPZfkJ9PEVc9IXJeHzu+m60465T133a35SfLxb8lzfj53npJ4y30yUbK/qXuexhzTSdn/ca+Odr1VWW4aF8CrZc+Wl5y6mrKyOpt2sfONIlHHmLVhWT5VZef1NnX67vHkx2Ms/PrZn8vXLiruY/Z13o3gaRk0UigPvFtOrm+Yh81Go88fkm/f8a5qGTT1GrJ4KjGtPdYL5MXduTDLQ2fK6389rLZplu/Ulw7K8fiQ7J0Ip7/sy7+UbV/7Z/lwo/4I5+Fwslry2f1eeafsvLJk7RvPnhk8995ZWCNXl7bVcMVT1ekn58qnS8tP+rlOPNPt1cexXF7WyOuvlFy7To/JcMsO1P2298nvS/s8JGGBPCrbfFjpL5AjJ2wOvboOVDwjiS7cKvuOxPL843flv9ErctzDas/RzbcT4rlv3z45evRoo9euXbssiFJJy0QqBJWWwTyNFilLtpR4Wn9HWshyGUw6WAuhnU5J2nwuiKqsl+Spq6626lgCR6k4puXE20/KDy1hLdSxdP9ieYV9TTup43xJfrj9Jcnbp0Q8MxEt5r/YH3wloT96v6w39VjSeypX73xuTX1bLyl/+zgbiOeyy7DLK/9cK55agN2I6QXy4ueXF4ldbB+76bfL/h/EcuzRnbKupJ0Qz/I+d9uyIp2S0LPlxeuXmSbroy6IZ8WxqHoOQzynZXY+lvnZ6cC1JZXQcBR4szz49Ak5sGdtYL+641jidiWhZ8mp25e4f9bXw97/PDn1P2Mip94ne3SZWx5+j/zBjlYuQTzrzo21ew5IfOJpeXDzsI+P/Ov6wt7eGfEcHx+XSy65pPKVpFmceKaS6QpkAogrrEUx03JqyZZKc2dNlG+A4vncDU/IU9vzyGyhjgMUz6c2HZTnrGMNRjyt7TZAS/mMeC79IlUtnqkgL3e6fyl9WrVPXbQz2RfxXDoTWdsjnssXvvEZmVuIJV6Yk5nxUJ9UiWck0V2Py/NxLEf2bZUL25C6ERFPJZmvvUeObHTbVE2VGxkdgngS9XTbO7tWtMFmRRmdEc+LL7649qKRpFmUeOrIpR3NSxveFcuw1J2yooBlAut16iDF87pb1ZS3qXu4jjUirDu+sK8BQkc8n7rqM7Jny8ksUjva4plEQs+Qtz79fr0+0/t80/mKs1tvOVutx/yOXlOZTtmXTUlXRDwbrwP1p7/HxInWmql6vYTA2RZFourrLy/w06q6nCFv6WMsv8hoQbXycyKkWT4fdKbs7TRpffz2CouvWtt5aG+23CSv13aZeOQN2Xb4zcDrp3LNDRepvlJSevhHcoWzHEPv+615+dhHIok+8++yNUlz/VPyN4fy/K7f+VHvuvJV2fhUvn2bn2/TfK51y3HzScr4qVzzd4d1XbzP+rhUO6jyrPosZ7nBAMQzNCXvR/f8NO52EyX9oF6bqaeosyl1M3Uemrp213G65fiR3LSc8PIdk1aX9co58u3L7Wu13jerk942PSvzcSzx/KxMm2tk4b1GPJP0mx+Up0/EEh/YI2sL++uytKBWpdn84NNyok5iy8RTT8f76yXdKGMahfz999a4U+BGBK26p2sp8z7z883PabudzWc9xR7IN62Pjtgq8Uym39ek0VG9nOAPJz+QL53Tcur2uzdlb9U7ii6UrfuOsNbTaRPTLyv3vgrEMzz1bcuVEjNnbaa/jxshLT3JlHhaa0l1nkYenf1KI5ZWWUkaHWksyGPp/kWYCvsaCDPxvFqSNGZq326bKNKS7rTPKfmxt+TAOTaTf8n7cCOeRvASKTKClcjYec46zUzksvWSYWlKjyvdZotX8Xgr0hg5bbT+s3oJQWXEU8mrL4M+D4Hj1PXLjs/U9yFLYlXe1t86jSPI6jsrjer/9E72qmn2pC0rI55a8hyJVN/lcpqKZyJw+XeXzvyXfMYRy1Q6t+y5S/5Ss1lIk4lgLrqFNNFXZeOjWnhVPp4EJ9uV3CZ5GLlO6rVDiXZWviorr28U6bRLlc9liqcSPUfSjETmN24U0mw5V976hX0DUi6EmZAW0qRMqrx8+QtdMyqPq2aqXe3rCm0UyG98Zk4W4lgW5mZkPFSH7LsG4qnS3iWPPx9LfGSfbL3QPwfzyOjQxDMKyV76XS5yevr79Jhk3wWijko67WhlIE3xemgfs1+utc0WZ0sqM7FV2yvEUu1TsT2KRE23c4e7NwC3+iBju73vOieeGzdulJtvvrnwSsAui3iam2bMeza1bomVf2LYcuWIWXAfSwarOknJoC+tJZ1ZKo52WYn0pZFIp45JHUr3L5ZX2Nccg3OsSblpBNVum0w8R2aqPRW3VKJsGbQ/6whiJp26zUrFzd3XZyn9uzyNkly/LNMHhfchi6cvkLp8R2gbSqU6LkumnTyy46pf35m0X6V4BrYrGbQFrSBxSZ+mAmiEVe1jIqRZ/dw0qcDaMmhFU52Iq3ueuXnbgpvKZCqbZZ+tvNRx5NIbZs1Knx1HJCGhKuwfkC6VRsmhJ2iRJ57BNJG4Apnu495w4+Wj6+zuV3JMSdqyOqt8asRT35xk1ycp1/57enZe4rhsTadfr6bimeyXrvmM4yOyb+uFw/nht8XNZiH57G9TkmavB03FM5NOvX9x+rsodk4av9zC34sTz0w6VT4V+ybbm4on6zyHw1+hr/3zJfx358TzhRdekN/97neFV3JxLBPPYEQxaRAlVvaUuWkEd+rcFzNXvJJ9UhnMhLassQcunlEWibwlufPejjIOXDzTm4qStnSPX0c8V414+hG7pP/LpTL/YS9P4wtavo/h0X5frniG6m/lXyLXShrN3e8NxTNyJLas3gOIeCbnmxPh9GQx2V4hnibCmEYurWlta4rfyGkwn4AMptP/Xl6Z1DYXz/AygxUQz6DcecKoI5fuNKc/ld418fTEtUSeW494lv2GLPZ7Xy6d/V1pK8pihXiaCKcVhSz0e2DqPHxtS+th31hk0jlrP3VZIfEM7avyaCqeRDwRTwOdeU/uah/KGk89TVwQRk9IffFMhdVdP6lkzBY/5wTXP+xDEM9Uek/K3Kbhi6c67u3PyDduOCk/zkRztYlnaKq6XCoNw1Vy2pp4Rna015JNm9Uq8TRR2abiaQt5Sb5J+5Sv8czrWBfxNNPQSiITEcwkT+dRIZ5GKt2oZF523oclAuuJZyqwrhy6eTcXTyPFTh3s/lrM56A8esdZliYoZCHx9KOiXv46SmpHFCM/cqqPqZ2IZ1K//Dh2Pv5u+WPZ9H6bazwX069VaSvFM5Jc7BLJ9COXFeJppLKB2DVhN6+HzYsnpBXi6UdlszJr68caz6ytqjhqeVvnIp5VjbToiGfSmEoG7ahnUaQK4mnWNWbylUdP/bWNN103nMcp2VHcRHqTxysNO+KZTqufVI9XWn3iWSVtyxPPNDLY9KHwZZFDfcF2ooz2RTz9nEYu/bLsxyml+Tt3vvui6f+dnEfqu0A0NanPA++Wn33u7NLnnDa5qz0kc4VrgZbLLd98Q4xMZmkC4qlk1hZUvVa0UvYC+aRR0Fw0C3XV+W7LymoinpGk+XjT+sv5ASiTSjvP0jR+pDL9O4lyZWs1zTM1nXWgPoN+Psn2XPyy/ooiURJ42twI5Odj/V1a5zSNEtjKOumyXjlL/u8XNeLc1l3tw765KOtzLZc/PUv+YGTS32bfvKNE1hZULYcmAprta/VPo+/SetiRS+fGoiSPgHgW0vhl1YmnepbnCXn6wc2divjZ58Fq/Nx/8UxA1fJp1oDmUpWePEXxzPexBdBMuWf53GkLbb6PvT35bEdcVeTUv1HHSWOv8dQnt47QOtLrH5POMy9LC3agrOyYnDWeuiyTbybdZfm4EeHFnDzLurlIiZf9cHT92UTrnKifLYz25/Bd4s6NMlEkRuKyh9Sbu8CzspqlUW2jZc7Oyy5PRUVN/va7tYbStLGf1s5HpSm0kR/F1fJplePksRjx1O1d/ZD6Jus8zU04Zvo6JGQ6TSZ41o+fEkazr36314CaHywjidY0u3NHegPxNGtH82nyH8kVt9tR2GbimfRVKp8N6m3qX/VeIWhKzgIPHXcik85UeiJo56k703PxTNo7fFd6nqa5eBbzsqUwF19/ijcvy/S/nzYkszpNWbTTadcWnuPZmnjqqKf9vMzsWLUMOlzYa0BN+2r5dNIt7j8Mpdcuvzy/LH/7mEid8NaIp/rXmazv7Jx0d0Y8l/YcT3Ni8G6khPdmLCh5swSSdmvWbkttpyZRz/q87ZtzvPqGhDH7gfXS8n3nfojq+365fZiKZ1Fal5tv9/cPT3Mn9U5Fr3QaexTOk0KE1uoP/nNRZ8/zzojn0v5zkQXZKJwk1LEzJwLi2f65s9z/1V6YOrfPJ8SzM+fW8CVysezqKG2jaOdi8+54+ioxG0Hx3PLwOfKr7P+yVy0D4H+1d+88zM+VTohnlxuIuuWw9KktEM+V6Nf0DvdDeycWIUnWFHxoit3IJ+K5iDZdib5fiTKtKfhVJp3p2sjkiQP2ek2/D0Yx4ulN+5dMxaspdu5k7+w1obPiOTk5qf53e59kh2PxL3z8DRMwAAMwAAMwsJoYQDxNxIT3zo6OVtMJybHyAwQDMAADMNBnBhBPhBPhhAEYgAEYgAEYgIFWGEA8Aa0V0Po8euPYiE7AAAzAAAzAQDMGEE/EE/GEARiAARiAARiAgVYYQDwBrRXQGAk2GwnSTrQTDMAADMBAnxlAPBFPxBMGYAAGYAAGYAAGWmEA8QS0VkDr8+iNYyM6AQMwAAMwAAPNGOiPeE7PynwcSxzHMj87jUwh1DAAAzAAAzAAAzDQMQZ6Ip7TMjuPcDLaajbaop1oJxiAARiAARhYGQb6IZ7jMzK3MC+z0yvTiMBLu8MADMAADMAADMBAPQOIZ8dC0EBbDy1tRBvBAAzAAAzAwGgygHginqx/gQEYgAEYgAEYgIFWGOiFeI7PzMnCwpzMjI+m/TNqo99gAAZgAAZgAAZWAwMjLZ5KOONYFuZmZJyRSisjldVwUnCMXPxhAAZgAAZgYDgMjLR4GiiIeA4HDtO+vNO+MAADMAADMAADg2CgF+IZcVc70U4i3jAAAzAAAzAAA51nAPEE0s5DOogRFnkwUocBGIABGICBlWcA8UQ8EU8YgAEYgAEYgAEYaIUBxBPQWgGNUebKjzLpA/oABmAABmBgpRnoh3hG6b/M5O52TqiVPqEoHwZhAAZgAAZgoJyBnohnJOkNRrHEMf+zHeDLgadtaBsYgAEYgAEYWDkG+iOeTJkzZQ4DMAADMAADMAADnWYA8QTQTgPKqHTlRqW0PW0PAzAAAzAwaAYQT8QT8YQBGIABGIABGICBVhhAPAGtFdAGPWIiP0bhMAADMAADMDB6DCCeiCfiCQMwAAMwAAMwAAOtMNAL8ZyYmJDdu3e30mCMrkZvdEWf0WcwAAMwAAMw0A0GeiGeU1NTcs899yCejNZgAAZgAAZgAAZgoMMMIJ4d7pxejc5uOlfe+uWYvP3kBY0vCI88e6bI6XfJG/d9qPE+vWoz2KTfYQAGYAAGesYA4tnRDr380yfk54f+W/5lQzdC4/VCd76cfPEMkdNj+uUJI+LJxbOj51o926NyDlJP+hIGYKD7DPRCPPsI2miJ5xp5/ZUxkZ+cK7dqudj5xJ/KH+1o5RLEs4/9yjF1/6JIH9FHMAADMDA8BhDPjkZhRkk8lWS+co786+UuqGqq3Mgo4knEs6PnGj8w7nlLe9AeMAADw2QA8Rzgj2Eui5+SA4/8Vn79/eT1v/Kfn7/FkQ6VTm1L0/zq6/8mN+l6XP/3p/R+Zv/8/ef33avzSfO394ui9Ls8TSQqrwPH5Ysf/Yr88EmTzxtybIs+qdT3Sf3+0arvb8XNt+4E1FPsRjCt9kyjnmfLf2yKJFLimUy//0UaHdVT8u8srJENZh8tp/l0fTJt703Zm7QT98uhOJb4B/tlu/mOd4ezYV44yLvuvGA7jMAADMBAiIFeiOfatWslubM9dIBtfpcLZS6bSv6stZppGkv+tDD6spdLbAjcRYinElxT3hWy98u/kl8nMppIWiakeX2jKw7JTwKyXN6OqXg6AmkE8AvvlXdO2+KZrv/MbjBS20vEMskjk9XAzUWI54rzXs5EiFm+o71gAAZgAAYi6YV4duVxSqlUWhKXyJMSOSN+xahkAmFIMkPf5cAuRjxN2ekJ7+SrxdOOkqYy6h2DEcng++LEM5NOlVfFvsn2KvEM1oWLWs4IbUFbwAAMwAAMdI8BxHOAApOKpyt6LvSpMKZT8GbqW79bUdFkH0cQC3VchHh6+Tr1GaB42jcWmTKctZ96Gj0knqF9VR6IJ1HNAvvdu4ga3nmnb2AABmCgngHEc4A/bE3F04kwlpQ/OuIZiSOY2fF4az8rxDM4TZ/kg3ginhlP9RczLvi0EQzAAAx0n4FeiOf69etlx44dK/4jXS+e+oaf71dFRTU0lWstvbWaep1oEkm1pdZfX1o4IQcS8UzqW/Y4Jb2+M5NI9wHyzs1HIcGoEk+zxvP4Qbl3qvsnWqHtQ8fLdyt+DtNPnEswAAMwMFwGeiGeXYGkiXgmdQ3due7fXBRKZ0tlfmNQOlX/8/seUjcO2WnaE88EUi2f2QPkLelUQuVvHxMJPILJ6csq8Ywm5P5DscTxcTl478rfWObUG4FEIGEABmAABmAgyADiCRhBMDohUjV3vU/cfwjxhN/u8kvf0DcwAAMwUGAA8QSKAhQrJZ07n/gzeS37v+x6jWhZVHTdHfLoMZ7juVJ9RbnDnYqifWlfGICBvjLQC/GcmJiQ3bt3d0ag+grL8I9Ly6aZri+RzjTSGcvxg/fKFAMHuIcBGIABGICBkWGgF+LZled4Dl/MGAHSxjAAAzAAAzAAA6PLAOLJKGlkRklcaEb3QkPf0XcwAAMwAAMJA4gn4ol4wgAMwAAMwAAMwEArDPRCPBlFMYqCARiAARiAARiAge4zgHgywmllhMPFoPsXA/qIPoIBGIABGBg2A4gn4ol4wgAMwAAMwAAMwEArDCCegNYKaMMeQZE/o3QYgAEYgAEY6D4DIy6e4zIztyBxHEu8MCcz491vcE4K+ggGYAAGYAAGYGC1MjDi4mnAnZbZ+VgW5mZknAgmEUwYgAEYgAEYgAEY6CQDPRHPSMZn5mRhflamAa2ToK3WkR3HbQaHvMMCDMAADMBAT57jmXQk4skJzQkNAzAAAzAAAzDQbQaIeBIhJUIKAzAAAzAAAzAAA60w0BvxjKZnZT6el9npbps+IzH6BwZgAAZgAAZgYLUy0B/xVCOV9CYj7nDnhF6tJzTHDfswAAMwAANdZqA/4knEs5UQeZdhpm5cbGEABtF+9nYAAALtSURBVGAABmCg2wz0Rjy5uajboHEhoH9gAAZgAAZgAAYQTxYTEymFARiAARiAARiAgVYYQDwBrRXQGOUyyoUBGIABGIABGEA8EU/EEwZgAAZgAAZgAAZaYaAn4sm/zGQUySgSBmAABmAABmCg6wyMuHiOy8zcgsRxLDH/LrOVkUrXgaZ+XHRhAAZgAAZgoLsMjLh4drdhgZ6+gQEYgAEYgAEYgAGXAcSTNR1ESmEABmAABmAABmCgFQY6L56Tk5Niv9atW9dKwzBCcUcotAftAQMwAAMwAAMwsFwGOi+eR48eFfu1a9cuxJNRGQzAAAzAAAzAAAyMIAOdFc/lGjX7MyqDARiAARiAARiAgW4xgHiO4GiBk6hbJxH9QX/AAAzAAAzAQDMGEE/Ek6kKGIABGIABGIABGGiFAcQT0FoBjZFgs5Eg7UQ7wQAMwAAM9JkBxBPxRDxhAAZgAAZgAAZgoBUGEE9AawW0Po/eODaiEzAAAzAAAzDQjAHEE/FEPGEABmAABmAABmCgFQYQT0BrBTRGgs1GgrQT7QQDMAADMNBnBhBPxBPxhAEYgAEYgAEYgIFWGEA8Aa0V0Po8euPYiE7AAAzAAAzAQDMGEE/EE/GEARiAARiAARiAgVYYQDwBrRXQGAk2GwnSTrQTDMAADMBAnxlAPBFPxBMGYAAGYAAGYAAGWmEA8QS0VkDr8+iNYyM6AQMwAAMwAAPNGEA8EU/EEwZgAAZgAAZgAAZaYQDxBLRWQGMk2GwkSDvRTjAAAzAAA31mAPFEPBFPGIABGIABGIABGGiFAcQT0FoBrc+jN46N6AQMwAAMwAAMNGMA8UQ8EU8YgAEYgAEYgAEYaIUBxBPQWgGNkWCzkSDtRDvBAAzAAAz0mQHEE/FEPGEABmAABmAABmCgFQYQT0BrBbQ+j944NqITMAADMAADMNCMAcQT8UQ8YQAGYAAGYAAGYKAVBhBPQGsFNEaCzUaCtBPtBAMwAAMw0GcG/h9zHQa8Hb6/gQAAAABJRU5ErkJggg==;" parent="6dMJGXCS0I9ftsZN87XB-1" vertex="1">
                    <mxGeometry x="920" y="-290" width="670" height="152" as="geometry"/>
                </mxCell>
                <mxCell id="6dMJGXCS0I9ftsZN87XB-22" value="" style="shape=image;verticalLabelPosition=bottom;labelBackgroundColor=#ffffff;verticalAlign=top;aspect=fixed;imageAspect=0;image=data:image/png,iVBORw0KGgoAAAANSUhEUgAAA1oAAAENCAYAAAAWthT4AAAgAElEQVR4Ae29f8xdx3nn5wbbpkXQdtumaLJtLiDRIl/zlylSMSlRyitSlEgxlkVyVdJWl9YK2SB2JEeVa8drKXK89krpil7a0oq19WOTSLFYp0YSWyYgxNmNs2usE8d13chZ/6gIuE0WKJICXQjIH0WDYor5dc7MMzPnzL33vO+9576fP17ce8+ZM/PM83xmzvM9c8553zSZTNSi/9bX19XLL79cZcf+/fvVww8/XFV21n7teM8t6p7nDql9u61v9j5yuzp3cb/a3vjqOnXwwnF17vLJzN+6uvFg4NOb96njLx5TR85ek7HZ1ZOp+9Rju9S1rj1jz2VRb2OLbmunWn/+pAqP8dvufPDNUbu2Lm93ya7A/qiddnvqk3bfxPT5pIraln44fVCdzvpP9iOot2DLZCLiEcTOM2Dsle015UL/2bqsL8PvE5Wtw9Q5gx+lPzJ9C30smWz6HLEzUTErtl9ZTpu+1/g39E9b3tgX1uPiLtuLOJhIP+a5jn0dl4kZ9izbT99W6DvPwMQwF9fV7Mv4v91n++/rbrdrX8SMtPvyPmv3t35Mt5XqdMdUsJPW2dXe/PtSPn2dOT90+LOnb11cTNvnss3adhuDhuWQ805WfL/lWLTb821afzRtiTEd9znkPZ13stw7e80+0Y9y+Y4YVfbfxqNUj91ec87qjWvlvNNbj+5XB3/TzTs71fqnjqq7XrTzjfZz3NeWk6xdlXOViV/xvObb6OJLcB7VJeZK4eep+lPNjLNHjAHre29PPTv58eb90v8ZjpmwrvC7iV82n0nHpy6bHOt9Y+oQx3RwUKxHttFRR5Y9b4/7LLdTGNuOk+Z8meuXaKPGjrZMoV0/Z0fsyHNpPTumveJ8kKvH5TZijtX1vKk1vh+6jSq77ELLTr5+kGs/yeB1+K4YqLaenIgLJzED+kBCK4yhrVcM7MoBUD5B+5NVjdAKfdrhw0qbbN/cRB3AnvNfPHmEgyaMbfjdDaJoEM9hcycXrt5mgrR2NBOX8Yfrp7An16/4uFlsDv3THh8zkCtjt3W1bxOFbg5kmbiPrT0J2wEDZl/jz/wx4fHx965+xIy0x3Ud09d+qU53XA07U42ZPnv695djMiUXU/RNctH6vt9eXbZsszzejTXJU4+PTf1i3u5v0/orPCfE40zaFv/uKmv2iT6Uy8/Db2hTqZ4puSj6eqh6nM0d/PXHzjGl5+TTB9XJx3ap6x+5Xd354E5zYbZrHkzYrZirhuGrZ64p+d34aZaLoiEbue9urFWc18IcqfPCsmA+8XWpj/6ioDs+jH/4verCctBGdGyw3V4IFPlYBwfFenSdAcd6jMe+yvm9vK3cTmFsB20bX5s+iH6F/Z76e6HdZRFagl3tg9EJrV27dqkzZ85EqzTTDJyasilY6eA3ZS7XwJM7EbRQxyc/187leAKzbXUlo7k2SjC2bYeDscYvYZlOm9wkHJ1Y5OBzq3BhQhHWP893Gb/EVmffuWYCDv0XnnjC7xNlJ0IhIKeeJLz/wzb9Nvnp2r90NFphtb5xrISDOuN3w5dI9qb3bcbWZPJMy9i2e/zVcSJp7JRlXD87Tx7SPvNbrwZ0jSPpf/874+sg7paveC6Ix7Wvp/ZTcBe0ZX2S+rrxVVPW2SzmkrRcrU3d5eSYa9vJ2Wq3RfODtzuZJzralVz4Oio/yzanbU5Ttum7YNByclK1807ajj7WsBOOa8du1l+ir8mxwX7bfsu/H5/5ObgjRkGdTV+L20r1TMlFT/3hXOD7VeOvxP4u/mrnnecOqZs/equ9i0Uf8+Tb1M0Xjhbuaskz4IVDFysynj7h7zomx5etJ56/Er8k/i/PUXP5P5csO7+38ZTzsWVJrwi3ZZxfxRjs71ccD9OXqYWWn3vzPjX+bnKPoL2crWZbO2ZD+4v1uFhZ29tV1fDYab53tWNjHdonY+PzprwvprGjLVuaUzJtJ4siU847xfkgU08ufi4WoxNarbMDQJNJYL59WbCME+OBbMpFS+0nxS2Gzg53bP7WkHaS0Pv1CUNfBQtPHLadEGbZv0zQnZAJJx4/ATZ25Camal/6ycTfyhIMpGRijK+wtDGM+27tCuqpsiVXh/SVLLOubrz/oDrdTHah/2y/rP/D74VY6vg39ci49Pzu5CJuL4yj9Z/0v45D3ne5uId8tfEo2Sv9lxcscjycemyfuunC8eDkV2NzTRnPk2fPf8Zxj+zRMTqub+ONy/T33fnEMd2MHRHzqK0ZmUjq8HOLaMvY3MtO68fpYl1ioHu7sT1nZ9Vtza2tjX9d31vbc2XyvHfGVMbR+zgaO3W8d7bj5q5o7Gn/3BvOOwWOc36U8S4wZtoLRVo0hwofXtyv9urb5IPykb2NbwrntajumI/+esI51x9rt6Vznd+f/5TjJp138sdl41dMrFwdWX6COcXvb3zqfR6U6fBbbJM/1s9vMg6SU3leq+dL+tCMw6YPPlkO7NBshPuDPjV15TgOysV9bWOUspMZ597PjtGuVUNZ3zR8mWNdP8I5Lvyu+5G2sVetPx/YLext57mgjBnjwW/tK7MtYKemHu9jV7adQ1sfl3yf2y77KsvIvidc5PrlbZziM2nHz08Nh268NL91f+221gc1805m3Lm22npyZYI4mX614xOhNUWgJWD8nm3g4rcp/CYn2obX3KQyRb1NPTXH5CanmuMoA+swAAMwsLUYcAlmlPDCwKYzYISWEG5TnfeJ2VAxQ2gB3obehjkUqFuyHndFKn8FDqG1JZlgvmK+ggEYWGIG/IpW/rxF8r455y0ujm6On+t4Hp3Q2oxntJYpQNhSB/JK+cmsYtnbNMonK4TWSsV8iRMn/LwF5yB4RMxNy0BzWxurKAubM5sYxM/5L8yeaRla0fKjE1qb8Xp3oCSxgAEYgAEYgAEYgAEYgAEYmIcBhNaKKuh5oOBYJhUYgAEYgAEYgAEYgAEYmI8BhBZCi1skYAAGYAAGYAAGYAAGYAAGBmZgdELrmmuuUWtra4AwMAhcsZjvigX+w38wAAMwAAMwAAMwAAMhA6MTWqHxfAdmGIABGIABGIABGIABGICBZWQAocXKEKuDMAADMAADMAADMAADMAADAzMwOqHFrYNcsVjGKxbYBJcwAAMwAAMwAAMwAAMhA6MTWnWvd9f/Y+ioOnL2GpT5wMo8hIfvTCYwAAMwAAMwAAMwAAMwkGdgtYSW/mdtlw6pfbsnau8jt1qhpf/568X9ajuCA9EJAzAAAzAAAzAAAzAAAzCwSQysltCaaIF1uzp3eV0de/ywOva4/s5/KecqQ/4qA37BLzAAAzAAAzAAAzAAAxvFwOiE1q5du9SZM2d6lPhOtf78SXXqsV3q2k1SrBsVIOpl8MMADMAADMAADMAADMDA+BgYndDqg8yuaB1Td126hRUtRGaPIB/fgO3jn/3EFAZgAAZgAAZgAAaWg4HVElo8o4WwQFzCAAzAAAzAAAzAAAzAwBIwsFpCq3Eobx3kSsZyXMkgDsQBBmAABmAABmAABrYmA6MTWnXPaG3NYDKIiTsMwAAMwAAMwAAMwAAMLAcDoxNadf9HazmcC+TEAQZgAAZgAAZgAAZgAAa2JgMIreZ2w60JAAOfuMMADMAADMAADMAADMDA8AwgtBBaPCwJAzAAAzAAAzAAAzAAAzAwMAOjE1rXXHONWltbA4SBQeAqxvBXMfApPoUBGIABGIABGICBrcvA6IQWsG5dWIk9sYcBGIABGIABGIABGBgLAwgtVoZYHYQBGIABGIABGIABGIABGBiYgdEJLW4d5CrGWK5iYCeswgAMwAAMwAAMwMDWZWB0QovXu29dWJmoiD0MwAAMwAAMwAAMwMBYGEBoDbxEOJbAYyeTFAzAAAzAAAzAAAzAAAxsHAMILYQW9+PCAAzAAAzAAAzAAAzAAAwMzMDohNauXbvUmTNnAGFgELiasXFXM/AtvoUBGIABGIABGICBrcfA6IQWkG49SIk5MYcBGIABGIABGIABGBgbAwgtVoZYHYQBGIABGIABGIABGIABGBiYgRUVWtepgxeOqiNnr1kNYE4fVKcvn1Tn3N+dD755Nfo1MMxju8qBvVyZgwEYgAEYgAEYgIHVZWB0QqvzGa2b96njlw6pfbsnau8jt1qhpUXKxf1q+7RJva7rxWNLJtZ2qvXnT6p5hNaO99yi7nnO+mgZBvbeR25X52aJz7TxXLXyQnx7EW4/l43b1Z1Al2EMYQN8wQAMwAAMwMByMjA6odX3f7RM4n55XR17/LA69vjt6tzlGZNOhNagq2YlQVXazoQxxYRhRNe6uvFg5hjDcWHfqolP+jPomGUMZsYTjMEYDMAADMDAFAysnNCyyYFd+Tn12C517RTOiBILhNZAA0nfxnm8KHgRWgMkc11Ca6JXd+e44DDr+OG4gcbPAHwQC2IBAzAAAzAAAwthYOWElk8q77p0y2wrWl23ZMlb3GTZcL9fSbjfP1+1rm4Mv5vVBytCtCC83iTD7jms4q193bcO2r63z3KFQlPuC281k7ciyrJyfyRIOweutffcZbmi4sVXa2trj1+BdGUSX7g6va+9yLhb3+rZ1pfYbOLR7j8n6m1uqbzXx0uX9bYEya6sJ+xbVcxdXV3sdPo0sMWX8z7IrWi5MqZ/l+e77bQ+7hkbva18LmSiJ3YwCQMwAAMwAAObz8DohNY111yj1tbW8smKTnQ36xktk9yGibgTBl4A+ITcJPSh4AjFUiA4/HETuz8USe3ACI+NYdGJ9PHwJRkukZeCoxEUu+PjfRtGZIUixPVD1uPLFz+j/ufb0sea9pq+i3KJjydqIkWF62coiqyoCMRdpg+yn16IhAJMlpno2HwqfL5NiMGoz6WY+z50sDOtGJE+KR3vfJVnS/i+VAfb83MPfsEvMAADMAADMAADgoHRCa1iYh91TCfAc7510CTNYTIcJqI2wU4S1jDhjZL7UCCF312iLoRGWQyFx4b25L7ny5brnqhJoc+dYijyu7PDix/Rr1zsuutO/azLR343bck4xX3PtiH6moizyUR1+sr1OyozRcyjPui6QnZyPu3aNs2xzsZQUObiwrbcmGIbXMAADMAADMAADNQzsKJCq94BRVhEIh6XcwIpeOV6e+ubW0mZIumWb93LJf22/VhARDb5BFrYJFeiImEgk/dCHaZvFaIpa0+4Oibb61vR0uVDEZGLSYfQ8mLGCC3hFxuvVqDlfJ7zVbYu38dpYp61J1iFy/gq8m+4P/RRuF1+N+VOxkJVluE3V+NgAAZgAAZgAAZgYBAGRie0Om8dHBKKXFLf1J+utCRJ8DRJtxAxuQTf1l8SWna7FxZdZct1l1e0kr41fugTtNau9Bmt9rjsalNUf9tnY7vwlRVirWDK9b2/Dbd6FT5vlVnRMu13lZki5nGsWn/M5OsKoWVt5xmtmfwb8ThnrKhrkBMXcYRDGIABGICBMTAwOqHV93r34ZyeEy8t1DZxlQl+u9/ehucT21YsmOd8mv+Flbl1MErWg/pMghbWE+5LbfUrL3JFKy9MfF3OHr9CM0hS6Ff/8r7KiRcZQ1PmuaPqrtz/NcusaJm+h31wKzmJL4L+5eyw7bbPZCVlXKya2/Ci2IWxCr97UZf3h+x71e8eoWVZGLC9wG9V9lEecQEDMAADMAADMLAFGUBodQXdJejNbYFiNcUm3sGb7PTtYL5MVdLtRUhYR5oQe9HU2OFvO/Nt+dUXv/2yvj1sn7rpwvHsPzeW9cUCJGeTF4xekE3/adoM7G0TdNle2n8vThvfhjGTMQpj0FcuEGOJiPI+Dco0djR+dm+S9GWqYm5918lOaHfN9y6hZWya8ZbEmrYpw4kTBmAABmAABmAABrIMILQWCoYTGVkBMr2YacXLqh0brwhF/TQiIyfOVs0H9CeK+0LHLbEgFjAAAzAAAzAAA/0MjE5o7dq1S505cyarGscXcIRWf8x6fITQWpGx0D9Z9bNCHfgIBmAABmAABmBgeRgYndBaLXh6RMSWvmpvV7F633iI0EJobelxsjwnk9Wam/Er8YQBGIABGJifAYQWSRqJOgzAAAzAAAzAAAzAAAzAwMAMILQGdijqf371jw/xIQzAAAzAAAzAAAzAwNgZGJ3QWq1ntBhAYx9A2A/DMAADMAADMAADMAADOQZGJ7Q27/9oAUwOGLbBBQzAAAzAAAzAAAzAAAz0M4DQ4tZB7seFARiAARiAARiAARiAARgYmAGE1sAORd33q3t8hI9gAAZgAAZgAAZgAAZWnYHRCa1t27YpffvgqgeG/jH5wAAMwAAMwAAMwAAMwMB4GRid0AK28cLWHTv7P8XufPDNoxfRex+5XZ16bJe6ltXS0ceym9lVHYv0a0PifvM+dfzFdXXjwcX5l7lpcb7fEKamPccsnMHVOc8vRTynjT/lF5KTrKjQ0oP5qDpy9pqFODUZgOaf6p5U5y7uV9t7QbcT0VZL1HUCcO65Q2rf7mU+EQb/RPlyRzzNyeyk2nzRWMNOTZlljsFETUb5T6or2HHcmH/SffnkgGJ9xpj7eUuzfrmbZzN+C2XMvqq5b8m56527u+y38V/4vL6wuanLN6u4z4/3xQrrOBdZEgZHOX+vIqP0KR4fG+eP1RJa+iRyySbrex+51QotPagXfZL3CUuVHbMlRTvec4u6xyVEPlE7d/nYgsWm7UufHdZ2eULyx9okr+2T+13ly+6kPN9u3WDrTR4XcTIxbUo/iv7UlCkmlD558DHpaatYj7Bp2nKL8O20NnaU72VnMtscUD5pzFufjXvXhYNlEVrejni+WBCnDQNuLuuas7zILlxskvN7ItjMmPDj0n4W4zWi8SP7beO66PNazfzl58p52Osfd+UxL22sYNAzVOBUji3JVxqrcpzmOffW91n6gN/4bjEMjE5o9b3e3U4G6+rY44fVscdvV31J/vKBN1tSZCauwkl6EX20E+kxdeQDN6rTnYLPnkySxKFJUvTAmM0ntt+l+itOPJEN8QA1nBVOSLbd+eqfJWbapm4/TlRNmWzb7iQc179TrT9es0ob+y5bf4evk/IjShQT2yc2Bt2r2/PwnvP1vPXNl/D1j5WczbNt28y2crHNbuvk1c0Tzx1SN3+0sKpvjg8S9ppVqZo2O+ev2fyf7f80Y1uUXbbzWty/ecdVn4/7xp1tXwqe2EbXRicPtp1zF9+mbr5wPHvnTRKHzvpsmzYHCLiNYls6L/f5hP3Z+Ea+xUfL5qOVE1rWwWMexLNN3slEuMiBF6ws9t3m1T0Z+wljNp/4wWaSLylCa5KVDh9WJXQVJyNv49yfpj/lK4im/poy2T5b/3eLAx+rTfjcTL9m/TFfH/vZmY/3lKV56+tL+Lr90d/f7uPT/pTLb2ZbdXZ1jx09/93lnuc0tst5Kstfd53Wrp6YjWQMLdV5LYqF9e+5yyUhUWa0jht9fE8MtT0mjn23GXfzormzYq27XGy3tS2+8Cb63HO+qTv3izqjGLAvjgn+WFZ/rJzQMiery8fUXZdumW1FyyXgyQSSOTHZiSK4XUOeJF1d/jaWpE43aST1zPB8Rv8JKTcxyonc/96pDuorW/5WxNyVTzfBN2VKJ5yM38LBUJcY2RNAyX9hfdnvGRuyk7yIV9dJtM5u78/8Cz583GfuV3DSMXXl4jRlmaz/ek6Y4TF2/LVjIupbU89utf58oUxgb1hv9N3Ec13deLd+uUBbT3pl1/q/l9GKNmW/EtE5KDs9vMuxl4m7Z6vte18y1nWSLnMct5MX+nKsNMeI+VL6OI1nl412n2wr4kbHOTMX2G1BwlzN10Q1ffFzpehTVbLs+DO2J8fn+tyfEFu7gj4ljJdjmvgsOdatyvo+60/BoGnf9CUcg3k+utpr68n5QW+z9UfzjBQo08w7cmzlzmt+rGdj5WLjfZMr08eXr9/XEX7m6vPlRQxav9bGup8rWWfs9zhGvTw3cck/S+/ng1nmgdbO2Ca2449FMDA6obVnzx51/vz5/Esu9MAd4Bmt3ARhtgUTWXoic5NUbiLsuPWtVE/XBJYDZZATkjtB6eSsmdzcJN78nrTJRbgtZ5PZlktsmhO39Vl/X2vLlSYReTLOnVB2qvVPhS/j6Ipnze1f2pZuu23s50mAfX9rTqQ1ZXx94tMnBj1vS9P9OR6+NdIlLQ0nPiEIbyXt5EPY4blx9Ya3BafjSMbcc9uVfObacxzkEi5vjx43g7LTwU3iL2dfxdzUP85y/dfbKtjpSJraubPsy2TOzcw7xTmmiUPFuEz858VXwEXDV7st5cuLjR7x0OEX2Z/EB0G/orIl3zR264sPPXb1zE1Re8KO1E7LRyi2/NwW2pEeV+Kt3W7qyZ5TfZl0nCe8On+FtuQEt7e5ma9Ev41PvI+D8VbyVdF2X0cwp9i2W95snRXjrrHRxSDnq2oG07mk1Lec/3RZ70N7gUf2x8fMf3b3z/AS5iJNX/3xfBbjg6/yGmFBfhmd0KoDS08Yc7x1MJmY5IRgfyeJS3KcnwjsBJaUzyYwpbK+rvxnPMH5q/zhRJezuaZfNWXyNplYmZNK6aSfsylX12w+CVmJTvLFOMVtF0+UVc/Z6Lqs3WECEto02Hfj4zDWcT/aOPSUKU1CNfVnjxXsGL8HIl4fUxmLyFdZpuK28rGLy0R1Zu33SXiJ34yfXT359m15w2JnolbivbA9ik+uj4XjSn1OtufqFH3viKNPmEzylet34dh+Pwkb/LgMVwD09zD5zLET+a8Qc1kmx3Lit0JduXLe9tDWbDkbi6hPuXLOvvSc430249xU6rfwjz0fiXEjytSMP1uPP5/5z3Aes/6I+yl4zdlstoX25erxvrKf3pa4rbhM2KfiHGD8ELbtOQn7pesV/cjFOdrmYipFdq696Djfh0omnD97z2umXTHfR+32+zz0J999nPgcGwsrKrTmBTGecNIJszAB5iZ0M7HY+pIJOpnstd2FstEElfYvtVGWyU1qsh/1ZTqv+oW2dk7ytX2tLSf7HPwO7Cj5KkoIfbJWSHzqksAB7A59mf1e00ZNmcBXsp3Ad50TnD8Be9+5z4aV3PjIjoEOW7RtWXtidk2MhR3+NrrGHtnP3G/TlkyAUvuGZacUL7vd9yP+dDZm/VmqL+1HPr5ynsgcl23XlrNjxT1oH1zFb9pyXMT9cUl1Tpjl4uS29Y7LHDsyxjVlOvrb9EvbVFuuSmjZOPSKLOeL0jxn7ZuRiVJ/hM/s+OsfN5GvMnHt7oPmKx73tj7Bq+MrGvdJP8QxGVtM3aaf6a2SuX4UbRe+auuV/qq0ydhqy2bZSPqaGb+mDje/dI0558tekeX81z0ep+lfyWa259hj23JxgdDqnFD1xJc7IRUmiOKElqtDg5Crp1S2G5zipN70z7YViz3Zfn2Z6KTVtJGxMXdSCcp3T8S+vtl8Ek82vq/2+bPYD/6Wh/hE1+XTOrt9m/lntGL7fF+n/CwyF9RTUyaISWpXjougfnNsrozovztJR+zMYluWqbitrtil/ZN9CX6btmIu5PGmLSEgutrvZ6fEe2l7YO+Ac0rbz9i37fag3Y44tv219ifJYMex2bY6WG3bCmwLy+fYkTGuKVNtc4XvnH3G9sKFHX+uSHwX9k187/ZFvV1RDEr9Fj7MjYmoHmFraV/XOLLH2H7E87nom7FZrKwk/RDHdNnn6uuLRdH2Gr5M+5U2eXuKAqmynr47MHrbkWOuZ75KYiCP53dpXLB9XGyMTmitra2pEydObML9l3aSuPPDP6mOv5gmWuYkFiVXLonITnalCUce435vyMswZFt28tVXkdvE127rPGn5K6/y9oTSiSl3UgnK1p2QS/6bbrDZROaouutFcdtGc295EGd/UikkPt1JjLNLJB9ycrR9r7s6Ko/1v2vsqCnj6yt9elsTNprXu6fsmHZDvpxPW96mu+Lf2JZhyrQVxsq1Fds7HS+2PTdOwroDfnWZhOG52SnzbttK+W18kyRLs88pbZ3WB1HchA+6Vm5i/nL+dDZ2+Li1pTuGcVuZspJBw5JePQvGfoav5IUZ3s/hcdIn5rfrW/a8ENuXMNzUl/NZfGziH9evYszM/qDPTVs99fp+R7Gy9oVjLRkT1fXH7Zt6orbi/f4OkHaFxflqhnnH+L/2vOYuaETciD4Wba/iS/ezgh0X59D3CQs19RjbO9rzc1oFx779vrmq6B/nRxuPIZ5hlszw28eIz81hYXRCq+//aA0Jjp0oygPdTwTNLS9iEvLHN/v9rUzRiaM9MXjRo+vtnjhTOPomLeMXP1k2t3TZ1Z32ZJyeMP2V1LaMbTvtW3jSjvsU9j/tV65N2T97AkiPleV6fruTUv5KpLR5Xd14/0F1OoyVP97HsfkM+97aYPgQTER8NvHIHx+VFSdxu8/aLGMTH1dTprU5PlZsT/of2y2ZOPXYPnXTheOtkJdJru6T2dYlHIQNzTH+eY2OW8wa/4ZlY5s7+9v43CUgTbylOB6GHem/ZtyEDDbCLuxTtz2aj1nmlGR+8/1vmM74xZUJx2oyDpq4hLHI19XNdspG0lYTw7Zs7Gf/9srAFsO5YNJsC8q4ehMfiVgZvnL1ebuSMeXj2rYf2+v320/vn7RMamvIeo2fwvLx9zRWYbx1WWtPtw1xnW18wu2mnpxPvf/0Z8OT94k4r7n93lemfrOt9bFvczo/Wj9EfRe2NGM4FHA5Hgp8yb7F5y7bftSv0C/h91ybbn/aZ89YG7+Ecz8XBP1KynTGLeO70F793Y+Nznry3Ph48ol/loEBhJYc3PzehNXCePAPdVJehgHV2NBxYmvK+CuNvVfFY3/542uSkJoyvj4+837GL/hlPgacMGkE6oL9WTU3LdhGzsMDn4eXi8G6c767gIXQGpgFxvZ88/n0/kNoMaEvxSA2V8NWZULNXUHNceau2EVXRHPlstsqrgg6ITdb/dNPJps9edEeMVkoeZUAACAASURBVBoPAzZpXPhYrJ2bsnMOvI2Ht1ysloTBSqFvxVj4aEOuT2wbN5NbI36jE1rbtm1T+vZB4Fo1QK1wqLoNYsmTAC0auxMqd3UxfI5gyfvEeFu18UZ/Np1pI3La27E2vX33fG333AQXi4jLprW5cAZrzvP+Vuz01s5N8xPnY3LsARkYndBioHEihAEYgAEYgAEYgAEYgAEYWHYGEFoDqtZlDzb2MSHBAAzAAAzAAAzAAAzAwOYwgNBCaLFEDAMwAAMwAAMwAAMwAAMwMDADoxNam/l6d9T+5qh9/IyfYQAGYAAGYAAGYAAGVo0BhNbAynXVAKE/THowAAMwAAMwAAMwAAMwMD0DCC2EFsvEMAADMAADMAADMAADMAADAzMwOqG1Z88edf78eUAYGASuUkx/lQKf4TMYgAEYgAEYgAEYgIESA6MTWqWOxNv1/2o4qo6cvQZBhiCDARiAARiAARiAARiAARjYdAZWS2jpf8Z36ZDat3ui9j5yqxVa+r+QX9yvtgPXpsMVi1+uduAPGIABGIABGIABGICBrcPAagkt95/vz11eV8ceP6yOPX67OneZ/y7OgN46A5pYE2sYgAEYgAEYgAEYWA4GRie01tbW1IkTJ3pWZ3aq9edPqlOP7VLXspLV46vlAJEJgTjAAAzAAAzAAAzAAAysEgOjE1p9/0dr7yN2FeuuS7ewooXIRGTCAAzAAAzAAAzAAAzAwEIYWC2hxTNaC4Fola480BeupMEADMAADMAADMAADAzBwGoJrUat89bBIeCgDiYZGIABGIABGIABGIABGJiNgdEJrW3btil9+yABny3g+A2/wQAMwAAMwAAMwAAMwMDGMzA6oQUUGw8FPsbHMAADMAADMAADMAADMDAfAwit5nbD+RwJiPgPBmAABmAABmAABmAABmDAM4DQQmhxGyYMwAAMwAAMwAAMwAAMwMDADIxOaPW93t0rSD65mgADMAADMAADMAADMAADMLAoBhBaAyvXRQWSdplEYAAGYAAGYAAGYAAGYGB5GEBoIbRYJoYBGIABGIABGIABGIABGBiYgdEJrT179qjz588DwsAgcPVjea5+EAtiAQMwAAMwAAMwAAPjZ2B0Qgvoxg8dMSSGMAADMAADMAADMAADq84AQouVIVYHYQAGYAAGYAAGYAAGYAAGBmYAoTWwQ1ddmdM/rj7BAAzAAAzAAAzAAAzAQD8DoxNaa2tr6sSJEyhuBCIMwAAMwAAMwAAMwAAMwMDSMjA6ocX/0epXz1xhwEcwAAMwAAMwAAMwAAMwsFgGEFpcBVjaqwBMDoudHPA//ocBGIABGIABGICB2RlYUaF1nTp44ag6cvaa1RARpw+q05dPqnPu784H37wa/ULkEkcYgAEYgAEYgAEYgIEVZWB0Qmvbtm1K3z6YVdc371PHLx1S+3ZP1N5HbrVCS4uUi/vV9mkDqOt68diSibWdav35k2oeobXjPbeoe56zPsr6cFo/zVl+7yO3q3OzxGfOdpeh73PZIMS3F+H2c9m4nf1K0Fw+2uqM0P/8eQK/4BcYgAEYgIFNYmB0Qqsv8TKJ++V1dezxw+rY47erc5dnTDoRWoMOwpKgKm3vizP7A/FiRNe6uvFgsM1PIIbjwj5fhs9BWYfNDIcwBmMwAAMwAANbkIGVE1o2ybErP6ce26WunTWoCK2BJgR9G+fxouBFaA2QlHYJrYle3Z3jgsOs44fjBho/A/BBLIgFDMAADMAADCyEgZUTWj6pvOvSLbOtaHXdkiVvcZNlw/1+JeF+/3zVurox/G5WH6wI0YLwepMMu+ewirf2dd86aPvePssVCk25L7zVTN6KKMvK/fVX7K295y7LFRUvvlpbW3v8CqQrk/jC1el97UXG3fpWz7a+xGYTj3b/OVFvc0vlvT5euqy3JUh2ZT1h36pi7urqYmfaydD7ILei5eoy/bs8322n9XEP/DVtXyi/kBMBsYVZGIABGIABGBiegdEJrc7Xu+tEd7Oe0TLJbZiIO2HgBYBPyE1CHwqOUCwFgsMfN7H7Q5HUgh8eG8OgE+nj4UsyXCIvBUcjKHbHx/s2jMgKRYjrh6zHly9+Rv3Pt6WPNe01fRflEh9P1ESKCtfPUBRZURGIu0wfZD+9EAkFmCwz0bH5VPh8mxCDUZ9LMfd96GBnWrEhfVI63vkqz5bwfakOtiOEYAAGYAAGYAAGYKCKgdUSWk3QdQI851sHTdIcJsNhImoT7CRhDRPeKLkPBVL43SXqQmiUxVB4bGhP7nu+bLnuiZoU+twphhqfBzZ48SP6lRNl3XWnftblI7+btmSc4r5n2xB9TcTZZKI6feX6HZWZIuZRH3RdITs5n3Ztm+ZYZ2MoKHNxYVvAc5fv2Vd1ooEneIIBGIABGNiKDKyo0BoAZpGIx3A4gRS8cr299c2tpEyRdMu37uWSftt+LCAim3wCLWySK1GRMJBJYqEO07cK0ZS1J1wdk+31rWjp8qGIyMWkQ2h5MWOElvCLjVcr0HI+z/kqW5fv4zQxz9oTrMJlfBX5N9wf+ijcLr+bcidjoSrL8BvhAAMwAAMwAAMwAAODMDA6obVnzx51/vz5QTpfTFw1XLmkvoEuXWlJ6pom6RYiJpfg2/pLQstu98Kiq2y57r4+zyJerV3pM1ptXdnVpsbPulzbZ2O78JUVYq1gyvW9vw23ehU+b5VZ0TLtd5WZIuZxrFp/JBxFviiUqxBa1nae0ZrJvzUxoMzGz8n4GB/DAAzAAAyMjIHRCa3NS5Ry4qVNdG3iKhP8dr8Vaj6xbcVCKBwmk8ytg1GyHtRnwArrCfeltvqVF7milRcmvi5nj1+hGQRmv/qX91VOvMgYmzLPHVV35f6vWWZFy/Q97INbyUl8EfQvZ4dtt30mKynjYtXchhfFLoxV+N2Lurw/ZN+rfvcILcvCgO0Ffquyj/KcGGEABmAABmAABrYgAwitrqC7BL25LVCsptjEO3iTnb4dzJepSrq9CAnrSBNiL5oaO/xtZ74tv/rit1/Wt4ftUzddOJ7958ayvliA5GzygtELsuk/TZuBvW2CLttL++/FaePbMGYyRmEM+soFYiwRUd6nQZnGjsbP7k2SvkxVzK3vOtkJ7a753iW0jE0z3pJY0zZlOHHCAAzAAAzAAAzAQJYBhNZCwXAiIytAphczrXhZtWPjFaGon0Zk5MTZqvmA/kRxX+i4JRbEAgZgAAZgAAZgoJ+B0QmttbU1deLEiaxqHF/AEVr9MevxEUJrRcZC/2TVzwp14CMYgAEYgAEYgIHlYWB0Qqvz/2iN7ip3j4gYXX+GBNuuYvW+8RChhdDa0uNkyDFHXSQnMAADMAADMDAkAwgtkjQSdRiAARiAARiAARiAARiAgYEZQGgN7NAhVTB1cVUFBmAABmAABmAABmAABsbJwOiE1rZt25S+fRDgxgkccSNuMAADMAADMAADMAADW4GB0QmtrRAU+sjkAwMwAAMwAAMwAAMwAAPjZgChxa2DrA7CAAzAAAzAAAzAAAzAAAwMzABCa2CHcuVh3FceiB/xgwEYgAEYgAEYgAEYGIKB0Qmt1Xq9OxC3ENtX3d/54Ju5moL4hwEY2DgG9L+EeO6Q2reb+bedf/EFvoCBlWTg5n3q+Ivr6saDi4vv3kduV6ce26Wu3aLntRUVWjppP6qOnL1m407W0wBj/tfTSXXu4n61vfc4Kzi2GpR6IJ4j+VkOXnsZ1RO2/T9nixXG/n+tLfYkspIn5yoGFnfiLvnczCOXTyrz//cul7hY3P8v3PGeW9Q9PfNcTZlS/8ez3Y7dcZ3nHDeer2wca8rMNm5m48LPkW5MdOUgXXmK2VcaT7P1Zzys1vbPx/7Y8uSe7jy98HFmxN5Jtdh8oTaOw5dbLaGlg3nJXqnc+8itFnY9QXRNLpuRUHRNYEn7drBOOzDMJOxPAM3nAge8G1g24TnZKaKs7aVJfDZ/rN4kPsPg99w1PPgEVH96NvzJIdxnv3dPihsrtEzC3DtufRKxSHa8Dan/NPvTjuO5ua2K+QwsJfPUUHU4/rKxtr6dyYfGDyUutO1z1D2zL2ybw48rx6BI/K3o9ON8qHi5enr929feIvzfZ1P9/hrRU1NmmvE+b329c6qfO3Jjce541/t24u0Q563ucTNF/TOP3742/Ll0njE3ZL7TNbe6vvg8Tcwdnkubm7XntmQuzsSqGCdTdh7f9Pl/efePTmjt2bNHnT9/vnjl355c1tWxxw+rY4/fHiSUyxsED7X9nG2gzTsJxzbM6yuZUHQN+L4T7mz+GLY/8/pjCY6vOFFOx5CM8bB97E0Kqk6WG8FOV7+79llbiiehqv5M6eOKmC/DOLEn84womufEXNH3YrsbEQtdp7apkNA0cagpk9inuTum7roU3sWxU61/6qi668UNSmwq/Nv0KbFXc2zHSpK4ZctOyf0m1FEzV9aU6fZR3O9565trTp073nFfOvu9mW3NwMpcfuxtr/+cpduvGjfGj6Xxb9vRdxHd/NHC3UQyDjWrUjVt5oR8r1+m4GcJ6xqd0OocoI2DxzyJ9w+0nA/mnYRzdQ65zdiXuZWntL1tezZ/tMePe4AO1g85aTZjpfXPdAx1iYq2zlntH+ZkNjA7PVf/fPJYFFMmBpu4ylUR81njM+hxhRO4YaBPmGQ4NrZV9X0zzxM1LNaUyY0t3Y919VMfuEXd5Z+DOH1QnXzsJ9XR50uJVq6eKbZV+bervs30fZcds+2rmStrykwzjuatb645de54T+HnzWyrNH9kt9vx2d4NMkWfsvXljq+YA/x5qFOwOFsLZTRLfq6on2e767Qs9+QFJrYbNCdV+zjn943dtnJCy0BzWV/du2W2FS0HcXLFIAOImfjC5W2ZFPgB4cokdTowknpmuOWofxLOndjkoPC/d6qDF4675xwKz5YZf7RLyucyIio8idg+plety5O/taW59TD0c9OWG/jS7+5qqX8mrvHNvQfV6aaezGAX8ZLPjFXXI30T2mfaWFc33u9tEd/DB1ZlPYVJM/Rz8bupK/V/WL7pX+ElAXZshTFP77mWZSLRYfqu/b5brT/f1tOOCxfPJkZtmfjkJsqF/jVjajh2Gv/4WHTGwI+fjhe6eMY66rFjpVuQ1ZSxt+BkYu76EsVmMlG2Tj8urI91bK7Xz0/6mCS+nqjOmFed/Fw8I59YX7Zs6BOhiPvllL84Xpm+C3vK889ETXysMn1u2hH1Fbf7cR+Ob3lsTRl5jP7tj7tb3jpvx5mPs+mr6Euu/56tJubNfOsZCcdl+z2OVV/i4sdK/7lmfr6cLX4Me5aDftm41fNlfCR8KWPfXUbOURlWPX+Nvd234Mv25e9crE0Z0U42jvL80Rzj5wvrY8lOtq4cw+E22Va4z3zPzQ2eJz/3+t/9fDXjvPFz3CfrRx+vTJwmcg7MlPF90mP0xXbM+LHpL9K1Y64tk8+tnD1FBn3/vT/K4zE3L0h27O/cPB3Xa+Of6X8Tw3q78jbE7Y2lzGoJLT34B3hGKweenKRSoByEWfDtvtykU6onV7YLKlNPtm0PpgU8rldCb3/rwd5MAG5CbX43CVlQphlEvi35WRqgZb+0fe0pYyYwMTH6Sc0lNdbHeuJqJ4Akxpl+yjJNPYGfZRkzaT8ZvvTE+dQnkf4EZerw/tZ2iVgk/Sr5UPq68Fv4pPVvW76LoaSfTsyGXCRlpE9935vnw9ztVOFvx5Kpy/usg68um31iHjPf9tcKkW52tJ983Iv1NPaJGDbbgzbNNhf3gKMwHjXt1ZQpCi0vWCL/ynHmeNPJR1PO2h36oTfmRR/EPrH9acdnLjbNc7euTnuMiJ9vr4L3JraFODQJWGm/b6vis4bnmjIhJ813M66073TM9O2Du9X6p/SzyjGPSax8gtjE14/HIA6lvlX6t7ExqceNgfCiopwvvH2h/zNlym20jPnxEs5X8rhp+DL1hXYl/XPzRrZMOo4S/jP9rGlT9in83c+XnANa/4VzScmXSR9mvT20l63Uf16otPFt+Wq2ZXxq+9V9UWuqeaBku9ke5yCpv7S/O2KQMObn6Mx4NX0tzI2inty8EHLTfM/5T9fV9E33r6/NafoX8CdsbmwayfbRCa21tTV14sSJ4jNaNgA6mOH96lMGLIHUDtpmwJYmkOQ4324JLlnvtAPN198mg/EVkXAA1k9OYSJVmsDiMq0duQFgBnJ2AOZsknWVfOfLpft1e6F92QlNxCp7EhJlcvWYbdmTqbfPXe3yyYyp04vUMP7h97RPxq+lSbxmsqk4ttgX4Qcb49Bef1U9nWQjv0Z9d/7J1i181tG/os3mmIIfm/rS/ZIdY3944aE5to1vy7zwSWdZ23b/iSnXTuW2rpjLfSYO4Xzh7PPcur5E/p4zdq3fPD9+XFTGv9D+NGPF9Ce4ABPZ1Bm/yhiYOmq4qClTaDOIne6PflbL3hZkY+jPW4ZlMVdF41Pbarho41D0h+Rnal/Z/obztG4rsqcQ36hMVbv5top983UW2tfHRePAlxefpTL57XH8c33MH1dgQtiS+DazvzPJd1zY/CKcJ3z7sf3etzPZHLXlV3bCc0sunrL9mjL5Oc7bbj69LWIejMqEviyNC7M97IMfa9KX1iY5Lort+TEjz1G59kI7g++GNTEvpO1Zf8q7fJJyZsx0CdcKnwe2JfWPdN/ohNbm/B+tGIZ0spCD2k02DjJ/YmshKQye7EReKNsDWGqjnwD9Z83EU18m7aNvJ/40gzgrsnS5mr5WlAknt4xPjW9kMiViZe30k3r42U6OuXpSv1t7Y8EbrApE7YYchd8LdZhbG+TEHPu7ZU5sD31UYCnti6sje2xob5soJ/0OV0Sivru6M/HSfcglGrm+FW02fZyfHd2mjXvXycP7Wvik4Gd/8aL3pFU83rfX85mNmz8m9k3qb8egSDCsLxyDLp6dMa/uQ9hewY+mP+HY1N/b8Rnx0dl374O6hDmqt7o/07XRzXFbV9aWsK/ReMrEWCRUadx9Atj6OTvXh23O4BM/BmRCaezxNg7GV4EnafcUfNXEq1TGjqHWv+H4sb6O4+ZjXqrP7+/7zMY68kG+XVOvi7d+DvAemdSbOqyPw7403308o7Y6mO5ly7YVsyNjXFOmo7+hrZ7Dmn6UbDfbxVyVLVtpk7HPlg3v1GkYiOaBDl/7c21n31xsO8u0bXRzOk3/2jqbfoVxGdF3hFYpWM0gyIEhB7UDogh3rg59TK6eUtlu6Lrhbtuaf3LK2Zy3zUzspUTI+X2uyb+JXWuT8UNXcuiPEbHqt8Mn3LHQkX439YgJKarbTdr2hNraHbMwGwOdk1HDcz5W+ljZl6Y+4Su7PbTdCy1xIvG+9p9R350d2bo3UWgFYzDHTuMD479AMPs+RZ/CJ9G+sL999ZRj1NiTq1tu64l5G29tt4ydZbC9bdDa1B5TGXNpU8fvpm7zLGU8zvztO1HSX2DH+Kin796P0djssM2Xn/6zZizXlOlgotjXuN7euSnXf8d95Hddrthmh51R/XasxOcjMe674hvV1ddm/biM+tnRfsNq4XlWzUmpTGl7yFaOy5rjwjrk91ydcZmYl2hfEG9jR3Jer/BxbcyCtiIbmuNz7Mj2a8p09Ldpy7Nl68uKmrBsyXazXcyx2bK1Njl7RK7R+kv6w/cj/czNC7KeaS4KdnNWb1drQ2rz2PYhtMJBEn23wN/54Z/M/ldtA1O0SmLLy8TEAlEaPPIY9zu8bz2yqQxc/yQs2/ITR3ibiN0Wn/zSgWH7LiYNYWdNGe0bO2mLpCpXV3FCsT6x/c+/zjhtQ/rCJw6hL1Jfp/WkJ1PT79BWM5kGibU5eft2Qt+G371fun081WSTndTjPlof2v9DF9ctubC/9RXLNjFxPg37LuI4TbKc83VsUxj3nM12fxIPaZNn8Lk8O1GbLnblk04cw+hY3a5jIR5fcQz0Mbbv3StoNWX6k2EX10tH1T3i4oRfbY7ms4hdbXdFzDP+Tvziy7jE9q5Lx4Pnwpx/Sm0nCZ8rX8F7fHEjjYPntTe58vbnPmvsqCmTq9tv08dnx52Nj+dNjik7Rwdzk68v+iwwncQj47+oHrnfseffkqjLGj+Ec95wfPWej5L+uLYLfBlfZn3e9rNYxrXl45IbDzJW9vcGvQyjiVPMS2SXYDTnT7ut+1we1dm02/rM7Bdtpce42DRzlmUpPh9l+Aouqvk6vV/b85iwJbKxm4lO2xO2Pe+pv4wfu9hy/ERzc2Sn7oP0Ublf5facX7tske2afoZ5gWi3N7aivKx/pL9HJ7S2bdum9O2DfqBs5KcfhKUJ0U4swS0AzcC3sPjjmyV0/1abCNx2kvATha631Gapv6atqN4MsH6AOjvufNC+kaedZOomJ21D2rdgwhDtRP0XPvLJTnd/Yx/lEx9XJqk/Z2shiXWTRGRv4FPb56Cf3g9BmTY5c1w8d0i97aFb2kTW+cb63Nqcfu/gJ9O/EhPR9uIE508eAccNH8Ebi6KY6mRoh3kzZcuOtjlfV1Mm6rvj02wLkyvPrawrKBPZEtodlGkm5PnYiXxo6gxj5m31n137bH8aXzT2+WPbTz+2usZETZl+oeXHRs5v0v/az7XlOk60Hf0O+cn5Sc63dz64V6zEyVi3bOTq6/dP64Ps8Z19sfE0NveM2ZoyKYeCl3AOauyy9rcctf0xc9zF/Wrve4K5yc9n/jzlPtvj2za1PZ5BP1+WyuVtF7aYtuK51R6XKzcbX9JeeR7p5atm3qkpo+OTLRf3P7JHM6Tn8Gyc47hE/s6d04SvU7+4cRO2lZw/2riEYyOyuYefyM6G2bIAicoL/82Ty9h5oJ0r8vNc6+N0vFbMO8Z/Yv5MfOrbkPWlXFSNtVyb3s9mX9hn/721schFcIE1LRPbGsXM36bYMx/KY1bh9+iE1io4nT74CcV+2sHaPUD7fVZOcoepP7a53x7Kj8dHZXbG04fZeDNjI0yo/InYi+aVPSnamPclLD6RCJPJaiZMMtgmLtnjaso0MZktxtl2qXNTLtbie5hdHANODC/LHN4l/FZ8PkJorXiAFzfIp5tgzVWibMJXU0/3hILQqvHhVi3Tzc5Yxs9Mdnae+FbZL7V9c1eWZ5yXyiK2HWs1ZWaKLec1hBQMwEDpDdmbzYZbgZzpgtVm27oB7SG0NsCpnBjbRKLeFzb5mW4gukRI36LQcdUGoTVLPFb9mDp26vkdj7/seNC3inStttSKkfH0u4mlFpg94qnxUce80tTHOYSEFgZgYFkZMCJn3juG5pvn9YX0vrsHVnk+HZ3Q2pzXu88H1SoDQ99gAwZgAAZgAAZgAAZgAAb6GUBoLetVCOziChkMwAAMwAAMwAAMwAAMjJYBhBbwjhZerqT0X0nBR/gIBmAABmAABmAABhbDwOiE1p49e9T58+cRBwhEGIABGIABGIABGIABGICBpWVgdEILRb4YRY7f8TsMwAAMwAAMwAAMwAAM1DOA0OIqwNJeBWAg1w9kfIWvYAAGYAAGYAAGYGC5GEBoIbQQWjAAAzAAAzAAAzAAAzAAAwMzMDqhtba2pk6cOAEIA4PAFZDlugJCPIgHDMAADMAADMAADIybgdEJrbr/o6X/2eZRdeTsNVWCzPxzyp5/YAno4wad+BE/GIABGIABGIABGICBzWRgtYSW/g/Ylw6pfbsnau8jt1qhdfqgOn1xv9peXAHaqdafP6nufPDNVaJsM4NDW0wGMAADMAADMAADMAADMDBOBlZLaE20wLpdnbu8ro49flgde1x/P9a9sqWFGKtZiMyiEB/nwGZCJm4wAAMwAAMwAAMwsFgGRie0tm3bpvTtg93g2FWqU4/tUtd2JtD6FsPjqr/cYoPU3Vdswz8wAAMwAAMwAAMwAAMwsGwMjE5o9TnQrmgdU3dduqV/RUvfavjiurrxIGD2+ZX9MAIDMAADMAADMAADMAAD9QysltCa8hktI8o6n9+qdyTQ4SsYgAEYgAEYgAEYgAEYgAHPwGoJreY2wZq3DvISDA8Bn0wIMAADMAADMAADMAADMDAsA6MTWnWvd+93Eq907/cRgw0fwQAMwAAMwAAMwAAMwMBsDGxRocVLMBgwsw0Y/IbfYAAGYAAGYAAGYAAGahjYmkJLv9L9Mi/BqAGEMkwkMAADMAADMAADMAADMDA9A6MTWnv27FHnz5/veb17tyN4CUa3fxhI+AcGYAAGYAAGYAAGYAAG5mNgdEJr7oCbV7r3/BPj5qUa8zl3bluxYy5Bjf/hFwZgAAZgAAZgAAZgYFEMbDmhxUswGGyLGmy0C3swAAMwAAMwAAMwsHUY2HJCC7i3DtzEmljDAAzAAAzAAAzAAAwsioHRCa21tTV14sQJbinjtkIYgAEYgAEYgAEYgAEYgIGlZWCphNb6+roK//bu3Zs4bqj/o7UoZUu7XFXZaAb27z+o1tfv4A8fwAAMwAAMbCkGbrxxPckbN/qcS/3kdV0MLJXQevnll1X4d//99ycDBqEF0F1As2+itNDavft6tX37joX9ra29RekT3lvful/t23eAP3wAAzAAAyvKwIEDB9X+/W9T+nOWv6HOVTt27FSHDx9J8kbyAvLGRTKwFEJrkQ6gbQbgqjGghdbOnbvVdddtX9ifbl+vqmlbZjnxcgx+gwEYgIHVZ0ALtKHOVTt27DAX+FbtnE5/xp2nIrS4r5WrPyvGAEJr9ZMTElBiDAMwsAoMILTGLSIQgf3xQ2itWJIN9P3Qr7qPEFokYKuQgNEHOIaB1WcAoUXOsuo5GUILocWK1ooxgNBa/eSEBJQYwwAMrAIDCC2EFkJrxZLQwQK6/2Pqtme+o86+YP9OP/oxdR2+QrQtAQMIra4E7H712df+Ur3xF99Sv3q2q9xj6it//ob6wZffv5rPmJ2/rF77y9Xs3/nPflv95Rs/UF9+qCu+7Fv2JN3G8Q31xht/Eod9yQAAIABJREFUob71q+8a9zh89A/Un4f9EL9tX1egnzO8DGMmobXziLrvw/9IffKTF9WTv/yAOnXAPo/MM1qItsFy/AFzuZGtaN2rDl/4jnr7A/cuUUJ/RB149JtqLqF16wvq7S98VR2+dTkGyc4HvqrOXnhB7RwQtGWEf3CbDh9Tv/HqA+qfZ/9+Tv36B3dvCrdTC63dT6ofvfDX6k2f7vh75t+oH7u1/uUa5ZdhOKHzhk6ggr8f/J56aIaT9PTJIkLL+AyhNe7EfVPGygLFqBAi04/zPtvthZS/+NavqbOb4UvZH/E7K7TcGG3nydW8eDC90Nqlbn/gV9Rnnn1WPWv+PqMu/MLbzQs1EFrLkUMOnluNPBdFaM0dwPEKrcMfel5d+dwT6p3CBwitASYrI7p+Rl28N1PXwfeqpz7/kvrIycw+EYtZJqxRCK1IWNmk541oW1+itNH7WdHqT243OVmtTIinX9Fazn70+3+jx8Bs9T/6lT+vWDHurnv6GHbXl/pyxpjPeoFCCKsD8rdk2+wXK8667e9v1gWpaf05e/nphNYOdeDu+9R/c+cd6r5HP2nF1qcvqIfP7ENoDZA7zJJvcEx/HofQmhvOMQqtveq+Jz+nrlz5HfWZ96f/cwKh1T9weieXLqE1maiTH3lJXbnyefXUew8NvsrVL7SOqx//yF+rN33qT9RPJK+AP6Qm/+3/bVa3fuhjv6uuKezP72tXvHpXtKSo6ks8ZCKy4b8RWmlyKpOpGZPVDY7d9En6cvaj3/8yHsvxG6GViYOc3+RvMSaMD+UcKcqMlQ9pd73QWlNv+68/oD7xmWfVs8/8inro7El1+u+cV2duu169xZ2nWNEaIHeZOyfGBpkfjkNoieeh/HNR5vOZL6oD+4PAyrLhfrPvq+rwvfpWPf1slfjubt3zQuOt7/qiOu2ewTJls7f2dQut66I6vhPdkpfsa9r6TnIrorEp2D/77ZOH1Yeev6KuXPmceuKdgd8mth+Rb5v2vqlue5cVZNYOeZujO9b7+sg/tbdC3h0/x/b2B94lRIW9FbRtU9RbW4+MeXQbpm7jm+q2n3nKPVMnvrt+mYFh2mufu5vr9skeoaXbO/jep9Tnr1xRL33kpPBLGJfpvxeFlrxFcA6hZW8z/H/Uj/y9n8/+D5T5hJa7ve8Hv6d+Q18df+MN1d7ik9562O47qEpJdpj8hd/9Sd8e197K+IMvfzbzjJZsu/9WHtOWv0VSPhfmrlo3twZFiVXqA1POlSnX2x530Tyr5Psknv/IXpm3gqOxR9obJnrS9ihGB5W9Yu/bDuN3UB1o2rY+9u3Z5+FiG8LYtsd9yj5nV/BrjoHIX28EKwXz9CP0R/NdMiL87hPsL1wxz8i9ETxL1sug8Zuo70Abb3vrbfvbj506bqw4SG0InlH0tv/qM2Zs+Li1MYpjZ/Y3DMX72mOkKJH+eyNaHZP2Jc9aehsz/vVj3X5ae0I7mnnhaf08lWe39XfSdsjRAT/3+OMCxjQb3i7/rFnP78aWzudIfb1tm2F/iuMlmmek3emcFo+d1h+xP2Uc63/XCa1d6tb7HlWf1CLL3zL46X+kHnrHW6PzD0Jr+nxBigJ+D+/DcQitRmH3PKPlEu5QhBhh4AWAT8jNb5/k6+Q+rrcRNf44L0Kyzy11CK1bX1AnwpdkuPaT57l6ntGK+qB9keln1eDYe5968nNX1JXf+Yx6/5EyTKa9bF/DtgPRZOxpxdikESztNisqQyFlfR76IinT1NMel5SZ3KsO/8NQbAvRp/dfcKL6Vi8mtV3n42frTFutvZPOmJd918ShQmiZsic/ol66ckV9/qn3qkMN5xX1d5SVQuvN7/im+uHg+avu1ai+FS23arX/FfUfNnX+lfpPz7SrWfqfT04rtGwS40/ybbIVv4zCJWtRoiC2NUl8kCAesGV8XTKJsW2HCUSu/UJiFiTKMvGI+2QFxu9/wdv1mPrKa8FtQM7uNlHK2ODK6AS2KddxXFPmwEFlk6Wgj9JP8rdP4JtEOZc4pT7RPsj1W794o7Gn6YePtz9GJ4ytjUlcmuPaMgdcbMOEO2n/0T9QrwUvNUnqdXU09jnRlNTj2pflwrif/+wfqz/0yXTj97afjQAVfk1tKsU/7LuOiSvXjInScTYZb2zP9EWOC2+rHzf+dyoOY5uSehIbdby/or7Q8bKSxPc5X+a2GQETi7MwPu33lF07Rt5Q7S3MzpdhrJzfGp84VpI+Ozuacj3CKi/EuvuR+EjG1P0Ox5SPYdGuA4+pV37fP7cm2fLjNI5369N4jnjPe36+FUVeHD37rHrggfdFz0f2Cq3t16uffu/H1TNBHc9+5mn1yz9zW7OS5f/hMUJrvtyhyV868gvKTO/jlRJaWYEQioBIoITiKvw+UYmw0dAVxVCH0EpgLZQt1u2FTSgAbJCzfU3aC4A4/CH1/JUr2Wey5MDpq1vuN+InFGaJaNF2eB9bgWaOaYSstzMuYwWb6LupuxVe0nb9O67b1mkFXej/0ndvy0TZ9rvbyrVvttUKLR0z88zWFXXl80+p9x4K2u+KZ8e+UGhtu/9/77gNMBZH9mRVKbT8LYWh4ApWyKYSWjJB8IlZmODkEni/ihAlMWlyYJOLNtmNk6I04TKJg0ioTFIj7GmvGHvxFCcacTvxvlxyYsrLhLn5HSTVwo7scaKMFyQy0fYJV1yHszXya87+nO/sNl+v72fkC+Hb0N+NfSa2oq6Ek7ydSQLqOWk+Rb1ZoSXL2LaifjT15Xzjthmbg8RUJuBBP+O+hyt/ji9ZlzlW8i5/azvcNsFEFPOaurM8WD+Ftqc+Sst4LkqfSQxd7CVXCddZ/+bik9qU2u1XjIL45eyYxXfSl/K3jq3rS7wy6PtSwWfOVs+Cm1cSP4dMm/bbedPGKvVbKYZve9tNRlQ1K1DPPqt+8Rc/pH7qp47UC63tN6gzDz+pPh2KrE9fVI/+3VRk6fMXQmv+/KGY03TkHBzT7ffVE1rN7W7BLWAvuGR9bqElkn4DXpiwS2fbJL+9Nc7aFK7iGEB7hVbYl+B7KG5qBsEQK1q6nVC8CgFl+tMhtHzf7cpU0Jcgbs0thrl6MkLLCL/g+PiW0nqhJeNkf2+w0NqEFS0vtvTtfn/jv3smutXCXwlsP6cUWk5w+VUzv1rWK7SaW3PslfY4gcoli25VJhIeYTIb3KojEoQoofRXwX3SmU2SdL1xImPqEDb7W6di230iFCdK2TIuEfL1xAlVvQ/iBNEeFya+NhES9UVJmNuX7V+QZIZJmPmeSbpyffL1Rj4P4hXUFftJ1F+KVdQXf9U9ThBtQtneYqV93fpItKPtqelH4g8b+xwrTb9yCXWpX4JBa5OMh4irSKR9EizHgN4ecRMm9T5e/tOPuZztGZEa1et81Pokjou3T34mAkCM6ba86H/WxmBMNjFLY56zO1lpEqwZO2bxnbRT/m7s9DyLebKGz5ytko+gnnY8WH/lxoyfq2TZNh6xr2+44ZD6+3//w2Zl6+mnn1ZHj94eiSx9XHFFa+e6uvdDnwjeLvisevbTF9QHzh1KVrL8+QuhJXNQfi+DCFw9odUlPuYWWrmkuyS07Pb4OZ9C2V6hlRN4sw6g0jNabX1yxSoFNeiHFj5yZSonkIQgi1ed2rajtnL1CKFlBVscl7jueqHlRWBkQ42AzZWpWNHa3Ge03Asw3O1+ZcFVL7S8uPKvhfciS5/0eoWWT96ChKI9WYvkKUzWcsclCYVNokxya/bFyWmUUGX2WzuCOnxSmms7a3+cbLRJZisufBITJiyRXTIh6vBB7riwXtsf4dPIZ3ZfekzcjzY+fnuarObFgC/vPqO2/b7Y32EMGrtKsRL1xUm663dwS6IX0U29GbFQ1Y8k9rYP4a11XrCNQ2j1iKCsGEgZiHn08dWf3j9aNHS3FcfQX7TIHSO4ztoY2uC/V9ot6xOsGU5NmZxtvi1vfzAPyXrl74Qtf/uva6c0FsLjcrYW5hU/H4UXIMw2f3EkrHfK71ps6ZWsU6fOJCJL+y8ntLbvvUP97C8/HYusS0+q999zQ+eFQoRWIZfK5ShsG/TZ+K68cWRCKydeArCMYOn4P1szC60wWQ/aM6AGoiMCN7XVr+IkCX1kV77+s1LMRG3JY/p+d791MCdeEoicCLrrE99UzQqUtykjkIx4C/vg+pz4wtehPzP1yNv5Eltdva2/wtiFsQq/u9sN/cpnaMOs33uE1sLeOli41c9fEbzuuj6h1e7veiHGRgitJPnyJ/xMomOSvR/8njIvhBDJQpQIZpMRnxhJYdSTTHl7sp9hQhh+98mY29bYmiuTX9WL+lNIpJKEX/Q7rsPb1PeZJqs+mW5FTKYO0XYoqhpBYnwo6s8e56/4t7GJOMkd47a1Nop2cm1nYyr6lkuWzbaWo2SFRNebs1Fvl8dmy0lO5G9rox8P4f+qi2KerbuifxmRGtWb81tFW1EMu3zk2m+4ycUgZ0Ot3bK+nO25bbJNWU/fb3m8/h0dk2NWxCtrV54POwZzq5yBOMzZNMC2VGgdUO/68NPx813PfFw98PZukaXPYQitvtyP/UkuO2uON8VxIxNa/ra14JazMHnXHXdiK7oNzJeJBI1NwO2LM8Lv7hktcSta+IINHSgvmqJ29DG+rZwtF15QNzzw1eSNgrn6YgHiRFuPTdMCVPo/Ws2LIJr2citqzqawvx48I5CCGOl6ciuNXhQ17ehjgtWpCqHln/1q46DfJBmustUJrVwMTJ05u30/uz67hNYS/B8tsxoVPFM1vdBKX4DR1rExK1o+iW8fVteJRSHhMEnGD9Rrr/25apIwlxTIRND8zqx46Ku7zbEuaUnafv1b6lcLbwZ79CuvqS83D/zHCY60wSaW4cPvcfkoERIra3Fd7rjQdi++GhGXSe5NEhfeTufKdP7fng4bI39aMfR9/0KKbAJo49j428RKxNbHIFwNcdta0SSFl6jD+yK6dXDGfsgkM+mXbTviKEqW28S4ikFvexDHhpuGiY6+NGVsu3luWsGqmXv0K6+rb/mXe2Rtl/6V/ndjNPPilzjWrS90u4nQ8qvKYez9tsAfsRiJ6/RjyH6mdsf+cMcmfU6Pa56BS2zr8J2sV/zWtkj/SPvM76nHWcxH9uUtjT8dv81v7RN9/P8WzGtdPq7blwqt7Wr7vp9W7/0HdkXrM09/VP3s7bs7V7L8uQehhZCaNg/ejPLjE1pdye1A+5LVl4Hq3YyAbl4b8YpQ1G5OIOHDTVumDl+G4U9A9Z/tilV4K2D98fYFGxuxomUTJJco+OdHIkERnth9uThx1HXIhKXZ1tSpj7FJRpzsuMQjKhe2Kb43wsA9GxQlunFdWig8Hf2j1zghsn2fbkUrer13lCxlhJYWDdJeeYwUFvq3SRBt/1Kx4/odiZq2nZxvc9uaehshE78Wvtnv7EuS9MBG+wY2+3ry6LigTLi9ETIu5uE+H5PwMy7/A/Xli5fNa9ybfomEOjzWJs7eZwUGRYz+4luvqFde+8v0TXkRazXcWHZjG4ILDU2s5QqH5Tj2S8C2Yyj2i6g3w1USwyi23kfhGwLd2Ovwb+jr3AWa3LyQE25hX5q4+nmlmRtEH6Vdfb+9qA7qiy/y2P6GtoS3/Zm+NuMlfFmPnFeCWOm2kjHv51Hvcxl/MedlYhn7PS0fC60d6m3nP6z+wUP3qIM7D6ozP/cL6vxtO6tElj5HIbQQWlEuuiR5J0IrEwiEVv9g7fQRQmvTRFVuUplPaOXeRDj9trLQSk+0fSdi9k/jM5lITXPskpfNJo5LbvMMiWfD+1br7zy+4tjs808NS0vsn1BobT9wj/rAP76knvrHj6sP3X+n2uvfblv5idDqz91yOQPbNtZvCC2E1hSiILiFMXfLoPclQmsKnw4/wBFaK5x89yZMCK0xJJdVNspVj97Yb2Xu6XsVU0vIUCS0du4qvlGw5q4KhNbw+QQibH6fIrS8OOBzoeKAwTz/YPY+RGht5aQLoTXGhFPfthbehtbcxiluARxj37B5K89H/X0PhVaNmOoqg9AaLo/w+QSf8/sUoYXAQmCtGAMIrf6T++omfwitccbWxS14Jid+7mkrM03fx8l0XdwQWvMn8oih5fYhQmvFkmwG3HIPuM2ID0Kr7gS/yskLfYMBGICBMTCA0CJn2Yy8aJFtILQQWqxorRgDWmjt3n292r59x8L+1tbeom68cV299a371b59B/jDBzAAAzCwogxoQacF06zCbqhz1Y4dO9Xhw0fIaVYsp1mkSBqibYQWQDIprRgDWmitr9/BHz6AARiAARjYUgzoC3xDJMfUwUrbUAwgtFYsyR4KDOphkoEBGIABGIABGIABGICB2RlAaCG0uPoDAzAAAzAAAzAAAzAAAzAwMAMIrYEdOi7V/1+o7337Ter/ePInFjiw/pb6g3/x7yj13X9P/c8/N/sVg3H5nX4SLxiAARiAARiAARhYdQY2XWh9/OMfVy+//HLV3/333z+DALhXHb7wHfX2B+6d4dgNAP7WF9TbX/iqOnzrjHU/9h+pv/7um5TK/rXi5J/+zg9ly7zxGz+u3lIUkxsrtIxNr/7n6vpi+9onfULL7u/ux4y+7bSLOld98qN/MA4DMAADMAADMLCRDCxEaB06dEjpfyzX9afLILQE/EZ0/Yj67T1ieygYaso05ZdBaHX0xdiJ0NrICYC6+/hjP4zAAAzAAAzAAAzMxsBChNb27dt7V5t0GYSWCGqNiKopg9Dq5Y8JRbDXMMN22IABGIABGIABGICBGgbGJbT2f0zd9sx31NkX2r/mFsHMvqbcM19UB/Y7IJpb+Y6oA49+s6mrqWcyUTsf+Ko6Gx7jt114Qe2MEs64Dt3e6Uc/pq6bTNR17/qiOh3Y2dgSlKkJUFSmRkT1lMndYiif0ZJl4v1+FezH3bNV7rbG5hZBfytg7nbH9lZH3a+4HblSZ9vJ3zLpy7q2/vA/UR/dHg54d2xjU7iP7xFTEc/4Bt/AAAzAAAzAAAzAwFAMjEho1T571VPOCC0r1Ly4sqKofY6qTmjZdqQgSwLTCLsBoO0RUabtjjJG2ESixIum9mUYSZl3/Wfq//rX4QszWgHUCLCkjO2rqatG7HTY7J/hKj6jZY6NBdyks74B4oA4YUUQBmAABmAABmAABmCgh4GFCq2jR4+qu+++O/nTgiG9ddAJm2RVSSbOdULLiywjTsxq2DfVbe+y/1G8RmhJcZYILO/4ZRFaRgwJQTIRQitbxq08NYLJHhMLH1GP6/umCC33Mo3QHt1u+LsYGx8jPpkoYQAGYAAGYAAGYAAGBmZgoULri1/8ovqzP/uz5C8vtLSgcmLL35KXFV01QqsVVbkkvFpoidsLc3VNlkVoZVd5hEByK1PZ2/WWVmhNVLSCVRCL2dgMPJhoQ1704DdMwAAMwAAMwAAMbF0GFiq0usBLV7RkkEorXAitv/6uf4Yp8FlWgOSEllz1CuowwmTZVrS0fW0/3vfsv6/+v0YUStv53TXm2AcfMAADMAADMAADMDAcAyMWWu6lFcmqlntBRbLdOc2sMHWvaMnbAs0Kl15FC+v0L98It+VWSFy56FbFXLmabdlVKQFDsYwUSPa3Xr1qnrXy/9Mqeo5L1O9ETXxrXit0wsFpRE9O9Mm+Fm22bSfPjcnjJxNl2vrDH1b/9l/3CUXZH36HMeM7PMAADMAADMAADMDAMAyMR2h5YeNvG9SfpVv3ZNmwXIXQmkzE2wQvvKDeqt8imIgqcStj4Y2C8g2E/s2EU0PcIUiMGMn8U+NIEEW3BmpBYt/a1wotDVX+rYFtGSnY9DF5oZXWFYqgVujJWxXbtjzksmxmxc7ZoFjN4v7qjBCfeqxRBxzBAAzAAAzAAAzMycBChNbG/sNin5zzubWSy5LYg4OtxQHxJt4wAAMwAAMwAAPLwcBChNbLL7+sav5m+4fFy+FYAN/MOLhVOFazuPI055Unxu1mjlvagjcYgAEYgIHVZmDThRZArTZQmxvf4JZCRBYiC5EFAzAAAzAAAzAAA0vEwFIIrfX1dbPCtblJOoIHf8MADMAADMAADMAADMAADGwMAwitJVK9QL4xkONX/AoDMAADMAADMAADMLDZDCC0EFosMcMADMAADMAADMAADMAADAzMAEJrYIdutlKmPa7OwAAMwAAMwAAMwAAMwMDyMYDQQmhx9QIGYAAGYAAGYAAGYAAGYGBgBhBaAzuUqwnLdzWBmBATGIABGIABGIABGICBzWYAoYXQ4uoFDMAADMAADMAADMAADMDAwAyMUmhd/+5Pqle+9pr63utX1bdffULdNrBTNlvt0h5XWGAABmAABmAABmAABmBgtRgYn9Da/aD63DdeV1evXjV/CK3VApIJhnjCAAzAAAzAAAzAAAysAgPjE1rnX1Jfv3pVff+PPqd+8cgOljhZzYMBGIABGIABGIABGIABGFg6BkYrtL7+0vmlc+YqKG/6wBUkGIABGIABGIABGIABGJifAYQW6h/BCgMwAAMwAAMwAAMwAAMwMDAD4xJa196kHr78R+r7V7+vvvrcPcAwMAxcuZj/ygU+xIcwAAMwAAMwAAMwAAOagdEIrdueeFV927wA43X1vW9+Sf3KyWsRWggtGIABGIABGIABGIABGICBpWQAoQWYSwkmV4K4EgQDMAADMAADMAADMDBmBkYjtIyTr71JPfTZr6nvXX1d/dGv34tAQCTCAAzAAAzAAAzAAAzAAAwsJQPjEloaIvd6d946yBWOMV/hwHb4hQEYgAEYgAEYgIHVZgChxRWApbwCwMSz2hMP8SW+MAADMAADMAADq87AaIXW9772WfXQTbwQY9UBpX9MwjAAAzAAAzAAAzAAA2NkYHxC66aPqFf+5Kq6at5AeFV9+9Un1G2sSrEqBQMwAAMwAAMwAAMwAAMwsEQMjE9oTa5VRz7wkvr9/+U76vWrCK0xqnts5qoUDMAADMAADMAADMDAqjMwQqEFlKsOJf2DcRiAARiAARiAARiAgbEzgNBaouXFscOE/UyIMAADMAADMAADMAADMGAZQGghtLiXFwZgAAZgAAZgAAZgAAZgYGAGll5o7dmzR/GHD8bAwLvf/W71jne8A14ZszAAAzAAAzAAAzAAA2rphdYdd9yh+MMHY2Dg1VdfVU899RS8MmZhAAZgAAZgAAZgAAYQWmNI4LFxHEIToTWOODGeiBMMwAAMwAAMwMBmMDCKFa0bbrhBbdu2zfzdcsst6n3ve1/z22/n0/oHPyzOD7/927+tPvrRj8KmG6uwuDgW8T2+hwEYgAEYgIHFMzAKobV///7m4bwjR46ohx9+uPnNW014s82yMPBbv/Vb6rHHHoPNgR8kXZb4YgdzDQzAAAzAAAzAwDQMILRWNik8pg79w++oU+9/34yJvz3+7AvfUfbvj9VP/TSDq2twIbTgo4sP9sEHDMAADMAADGwtBhBa8witG/6JOvHCsgqQeYTWDWrfB/9YnX36sto7g38eeOo96p+/+kD+73/8afXObTWD7L9SX/79Nyn13fzf//vlH1XvnsG2jZzgEFo1caXMRjJI3fAFAzAAAzAAA8vDwOiE1lLBs6pCa+cH1a2f+l/V8fvvmnE1rAXciK5P36reMpcosqLrry7/2Nz2bCQ/CK027hvpZ+rGzzAAAzAAAzAAA2NgAKE1jwBAaPUKH4QWE+EYJkJshFMYgAEYgAEYgIGhGUBozSC0rj31m+ru5tkl/wyT/fzbH7uodug6jQhLn5Gyx/rVIn973yP2Vj1fZ+aWvev+3j9zz0rZdnLPXsky+tmquJy7JdC384K3ww6s3PH+Ga2mX1P6a2OFlru98Bt/U/33oV03/Jj602+8SfnbC8888x8o9Y2/qZ774H+s/qq5FfFvqG+9T0wox35U/Z/N/jeZY6J6XRtrD11SV65cUV+4+LOR0GRFS/gzjAnfI1aGnsipD/ZgAAZgAAZgYPkYGJ3QWltbU/rNg0sBU+eKVu45J7utFS3tCyeabea2vVggGQH06d9Vb7vRAVRTZuJFnH8ZRsYeY38stoxfR3Tr4M1GPMWiyWz7kx9RX7rL+ssILS2gmm0/of7J5//dWEgZkfVD6t9c/C8dW5kyCK3lGHeINuIAAzAAAzAAAzAwAgZGJ7SW6vXunULLr2oFL8swAib47cRQI7IcMEZY+VWtgujpLyOEVtZWKfxCIZcRYDMAvbErWtpe+fyWFUjh81xGaDUiy/XRCCsv0OwxfgWsEfFRGXdchw9Y0er3UePbDj9SBj/CAAzAAAzAAAysAgMIrXkSvqx4CQdGLGQicWTatWIoK7T8CpZbvfK38EWfXoxl7cgJrfg2R1+XbH9SEHezAL/xQmuiohWsjDgqCy2/guVWr8LbBpvvXoyFcc1/R2jl/TILNxyDL2EABmAABmAABsbOAEJrQ4XWRJlnsoxo0sJHrhJ1CC0vompET7ZMTmiFq2kdgzdbX0f5Dh9uhtCamGeyrGjSokquTJWFlhdRhRWtjn7lBj5CazZGcr5kG76EARiAARiAARgYOwOjE1rXX3+9On/+/HLcl2oESfw8VQqEE1Of+Ffqbi+emgQ+I7TM6lQoyNyzVX6Fqzk2HHyyHvtbr1i1L8Nw2xIbwnrc97EJrclEWTH1w+rffsOLp7ZfqdCytxuGgsw+6+VXuNpj03hOlH8Zxiu/9kvqziAeCK1uv+V8yTZ8BgMwAAMwAAMwsKoMjE5oLVsg5BsIk9vwJm5VS7zhz/ajFUT+Nr6z2X+A7MRW87bAzJsHneiz9Wihdt68ybAVWnoQ59oLRZ0b6CMUWnZVq33TYMiJEVrNrYD2HyCHz3D5slZsiX+QLN9oqIXV2kPq0pUr6sorv6Z+6c52ckRotb7wPuUTn8AADMAADMAADGxVBhBawYrERkHQ3j4oB5oVPjlxtlG2rGy9we2Dso+yzCR4AAAE1ElEQVTpipaMw7S/19RDlxBa0s/8npYjysMMDMAADMAADKwyAwitjRZaya2A4YBCaA0zuNJbAcN6hxZa2/72x9Vn+T9ay3H77kaPX+onzjAAAzAAAzAAAzMyMDqhddNNN6kHH3xw6QPe3lKYuTWvCRZCKxREU393/5hYfTd/y6Cvbzih5Vayrryifu2X7kwY5NbB8CIC3z1/fMICDMAADMAADGxNBkYhtNbX19XBgwfN36lTp9TDDz/c/Pbb+bT+wQ+L88OXvvQl9eSTT8KmG6uwuDgW8T2+hwEYgAEYgIHFMzAKoXXHHXco//fOd77TCC3/m8/WN/hisb74xCc+oT74wQ82rBKPxcYD/+N/GIABGIABGICBRTKw9ELryJEjKvw7e/asEVrhNr7HPsIf+AMGYAAGYAAGYAAGYAAGFsvA0gst7mndmve0EnfiDgMwAAMwAAMwAAMwMGYGEFrNiykAecwgYzv8wgAMwAAMwAAMwAAMLBMDCC2EVvL2vGUCFFuYMGEABmAABmAABmAABsbIAEILoYXQggEYgAEYgAEYgAEYgAEYGJiBEQmt8+qlr19VV1//nnrta7+lPn7yWmAYGIYxXinAZq5wwQAMwAAMwAAMwAAMLCMD4xNaV6+qq1evqu/9i/9BnUZoIDZhAAZgAAZgAAZgAAZgAAaWkIERCS2r1Hec+oR69bXX1dVvv6qeuA31vozqHZvgEgZgAAZgAAZgAAZgYKszMDqhNZncpp549dsIrSVU7Vt9MNF/TigwAAMwAAMwAAMwAAOegfEKrT/9XfXkHYVAvvMJ9ZtXrqgrz39I3YQgYSkZBmAABmAABmAABmAABmBgkxkYodDarX7hf/qmunr12+rLF0+pHTmHIbQYSDku2AYXMAADMAADMAADMAADm8TACIXWRO2+79Pqn+nntMyLMb6uXjpfWNnaJCf65UE+iQMMwAAMwAAMwAAMwAAMwIBmYJRC6/qf/3X1L/8UocUgZhDDAAzAAAzAAAzAAAzAwHIyMEKhdVA98oVvdd86yEoWS8IwAAMwAAMwAAMwAAMwAAMLZGCEQqvirYP+Ga3PPanu27ucCpcrD8QFBmAABmAABmAABmAABlaXgdUUWpN3qid+84q6cuVz6sn79qLkF6jkmTxWd/IgtsQWBmAABmAABmAABsoMjE5o7TjxcfXKt/r/YfE7n/hNhBYCC5ENAzAAAzAAAzAAAzAAAwthYERC67x66etX3ZsGr6rXv/6S+rvXFhTkkferz/wO/0eLKwwFPphsFjLZwCM8wgAMwAAMwAAMbCUGxie0Xv+eeu1rr6hPvvv6bLJoV7KuqM89eZ/aS0Kd9dFWApy+MqHDAAzAAAzAAAzAAAwsgoERCS0AWQQgtAl3MAADMAADMAADMAADMDA9A0sltNbX11X4t3cvL7IA6umhxmf4DAZgAAZgAAZgAAZgYNEMLJXQevnll1X4d//993PrG7c/wgAMwAAMwAAMwAAMwAAMjI6BpRBai1abtM8VDxiAARiAARiAARiAARiAgSEZQGhxdWB0VweGHADUxYQKAzAAAzAAAzAAAzCwEQwgtBBaCC0YgAEYgAEYgAEYgAEYgIGBGUBoDezQjVDD1MlVFhiAARiAARiAARiAARgYFwP/PwMpdK+QhbfAAAAAAElFTkSuQmCC;" parent="6dMJGXCS0I9ftsZN87XB-1" vertex="1">
                    <mxGeometry x="870" y="-633" width="858" height="269" as="geometry"/>
                </mxCell>
                <mxCell id="6dMJGXCS0I9ftsZN87XB-23" value="SharedPointerInternals.h" style="text;html=1;align=center;verticalAlign=middle;resizable=0;points=[];autosize=1;strokeColor=none;fillColor=none;" parent="6dMJGXCS0I9ftsZN87XB-1" vertex="1">
                    <mxGeometry x="235" y="-140" width="150" height="20" as="geometry"/>
                </mxCell>
                <mxCell id="6dMJGXCS0I9ftsZN87XB-24" value="SharedPointer.h" style="text;html=1;align=center;verticalAlign=middle;resizable=0;points=[];autosize=1;strokeColor=none;fillColor=none;" parent="6dMJGXCS0I9ftsZN87XB-1" vertex="1">
                    <mxGeometry x="250" y="-190" width="100" height="20" as="geometry"/>
                </mxCell>
                <mxCell id="6dMJGXCS0I9ftsZN87XB-25" value="FReferenceControllerOps" style="whiteSpace=wrap;html=1;" parent="6dMJGXCS0I9ftsZN87XB-1" vertex="1">
                    <mxGeometry x="1548" y="-20" width="120" height="60" as="geometry"/>
                </mxCell>
                <mxCell id="6dMJGXCS0I9ftsZN87XB-26" value="分为线程安全和线程不安全凉饿" style="text;html=1;align=center;verticalAlign=middle;resizable=0;points=[];autosize=1;strokeColor=none;fillColor=none;" parent="6dMJGXCS0I9ftsZN87XB-1" vertex="1">
                    <mxGeometry x="1548" y="-70" width="180" height="20" as="geometry"/>
                </mxCell>
                <mxCell id="6dMJGXCS0I9ftsZN87XB-27" value="AddSharedReference" style="shape=step;perimeter=stepPerimeter;whiteSpace=wrap;html=1;fixedSize=1;" parent="6dMJGXCS0I9ftsZN87XB-1" vertex="1">
                    <mxGeometry x="1550" y="130" width="120" height="80" as="geometry"/>
                </mxCell>
                <mxCell id="6dMJGXCS0I9ftsZN87XB-28" value="GetSharedReferenceCount" style="shape=step;perimeter=stepPerimeter;whiteSpace=wrap;html=1;fixedSize=1;" parent="6dMJGXCS0I9ftsZN87XB-1" vertex="1">
                    <mxGeometry x="1550" y="60" width="120" height="80" as="geometry"/>
                </mxCell>
                <mxCell id="6dMJGXCS0I9ftsZN87XB-29" value="ReleaseWeakReference" style="shape=step;perimeter=stepPerimeter;whiteSpace=wrap;html=1;fixedSize=1;" parent="6dMJGXCS0I9ftsZN87XB-1" vertex="1">
                    <mxGeometry x="1550" y="526.5" width="120" height="80" as="geometry"/>
                </mxCell>
                <mxCell id="6dMJGXCS0I9ftsZN87XB-30" value="ConditionallyAddSharedReference" style="shape=step;perimeter=stepPerimeter;whiteSpace=wrap;html=1;fixedSize=1;" parent="6dMJGXCS0I9ftsZN87XB-1" vertex="1">
                    <mxGeometry x="1550" y="220" width="120" height="80" as="geometry"/>
                </mxCell>
                <mxCell id="6dMJGXCS0I9ftsZN87XB-31" value="ReleaseSharedReference" style="shape=step;perimeter=stepPerimeter;whiteSpace=wrap;html=1;fixedSize=1;" parent="6dMJGXCS0I9ftsZN87XB-1" vertex="1">
                    <mxGeometry x="1728" y="240" width="120" height="80" as="geometry"/>
                </mxCell>
                <mxCell id="6dMJGXCS0I9ftsZN87XB-32" value="释放此计数器的共享引用" style="text;html=1;align=center;verticalAlign=middle;resizable=0;points=[];autosize=1;strokeColor=none;fillColor=none;" parent="6dMJGXCS0I9ftsZN87XB-1" vertex="1">
                    <mxGeometry x="1610" y="320" width="150" height="20" as="geometry"/>
                </mxCell>
                <mxCell id="6dMJGXCS0I9ftsZN87XB-35" value="AddWeakReference" style="shape=step;perimeter=stepPerimeter;whiteSpace=wrap;html=1;fixedSize=1;" parent="6dMJGXCS0I9ftsZN87XB-1" vertex="1">
                    <mxGeometry x="1541" y="440" width="120" height="80" as="geometry"/>
                </mxCell>
                <mxCell id="6dMJGXCS0I9ftsZN87XB-36" value="释放此计数器的弱引用" style="text;html=1;align=center;verticalAlign=middle;resizable=0;points=[];autosize=1;strokeColor=none;fillColor=none;" parent="6dMJGXCS0I9ftsZN87XB-1" vertex="1">
                    <mxGeometry x="1580" y="526.5" width="140" height="20" as="geometry"/>
                </mxCell>
                <mxCell id="6dMJGXCS0I9ftsZN87XB-37" value="&lt;div&gt;&amp;nbsp;&lt;span&gt;向此计数器添加弱引用&lt;/span&gt;&lt;/div&gt;" style="text;html=1;align=center;verticalAlign=middle;resizable=0;points=[];autosize=1;strokeColor=none;fillColor=none;" parent="6dMJGXCS0I9ftsZN87XB-1" vertex="1">
                    <mxGeometry x="1570" y="430" width="140" height="20" as="geometry"/>
                </mxCell>
                <mxCell id="6dMJGXCS0I9ftsZN87XB-46" style="edgeStyle=none;html=1;exitX=0.5;exitY=1;exitDx=0;exitDy=0;entryX=0.5;entryY=0;entryDx=0;entryDy=0;startArrow=none;" parent="6dMJGXCS0I9ftsZN87XB-1" source="1cRRWxcr_63KirOseFlI-0" target="6dMJGXCS0I9ftsZN87XB-45" edge="1">
                    <mxGeometry relative="1" as="geometry"/>
                </mxCell>
                <mxCell id="6dMJGXCS0I9ftsZN87XB-47" style="edgeStyle=none;html=1;exitX=1;exitY=0.5;exitDx=0;exitDy=0;" parent="6dMJGXCS0I9ftsZN87XB-1" source="6dMJGXCS0I9ftsZN87XB-38" target="6dMJGXCS0I9ftsZN87XB-25" edge="1">
                    <mxGeometry relative="1" as="geometry"/>
                </mxCell>
                <mxCell id="6dMJGXCS0I9ftsZN87XB-38" value="FSharedReferencer" style="whiteSpace=wrap;html=1;" parent="6dMJGXCS0I9ftsZN87XB-1" vertex="1">
                    <mxGeometry x="1340" y="-20" width="120" height="60" as="geometry"/>
                </mxCell>
                <mxCell id="6dMJGXCS0I9ftsZN87XB-40" value="&lt;div&gt;／**&lt;/div&gt;&lt;div&gt;&lt;br&gt;&lt;/div&gt;&lt;div&gt;FSharedReferencer是一个包装器，用来包装一个指向引用控制器的指针&lt;/div&gt;&lt;div&gt;&lt;br&gt;&lt;/div&gt;&lt;div&gt;*使用TSharedRef或TSharedPtr来跟踪被引用对象的生命周期&lt;/div&gt;&lt;div&gt;&lt;br&gt;&lt;/div&gt;&lt;span&gt;*／&lt;/span&gt;Text" style="text;html=1;align=center;verticalAlign=middle;resizable=0;points=[];autosize=1;strokeColor=none;fillColor=none;" parent="6dMJGXCS0I9ftsZN87XB-1" vertex="1">
                    <mxGeometry x="1140" y="-120" width="400" height="100" as="geometry"/>
                </mxCell>
                <mxCell id="6dMJGXCS0I9ftsZN87XB-45" value="FReferenceControllerBase" style="whiteSpace=wrap;html=1;" parent="6dMJGXCS0I9ftsZN87XB-1" vertex="1">
                    <mxGeometry x="1170" y="100" width="120" height="60" as="geometry"/>
                </mxCell>
                <mxCell id="6dMJGXCS0I9ftsZN87XB-51" style="edgeStyle=none;html=1;exitX=1;exitY=0.5;exitDx=0;exitDy=0;" parent="6dMJGXCS0I9ftsZN87XB-1" source="6dMJGXCS0I9ftsZN87XB-48" target="6dMJGXCS0I9ftsZN87XB-25" edge="1">
                    <mxGeometry relative="1" as="geometry"/>
                </mxCell>
                <mxCell id="6dMJGXCS0I9ftsZN87XB-56" style="edgeStyle=none;html=1;exitX=0;exitY=0.5;exitDx=0;exitDy=0;entryX=1.033;entryY=0.431;entryDx=0;entryDy=0;entryPerimeter=0;" parent="6dMJGXCS0I9ftsZN87XB-1" source="6dMJGXCS0I9ftsZN87XB-48" target="6dMJGXCS0I9ftsZN87XB-45" edge="1">
                    <mxGeometry relative="1" as="geometry"/>
                </mxCell>
                <mxCell id="6dMJGXCS0I9ftsZN87XB-48" value="FWeakReferencer" style="whiteSpace=wrap;html=1;" parent="6dMJGXCS0I9ftsZN87XB-1" vertex="1">
                    <mxGeometry x="1350" y="110" width="120" height="60" as="geometry"/>
                </mxCell>
                <mxCell id="6dMJGXCS0I9ftsZN87XB-49" value="这里有删除" style="text;html=1;align=center;verticalAlign=middle;resizable=0;points=[];autosize=1;strokeColor=none;fillColor=none;" parent="6dMJGXCS0I9ftsZN87XB-1" vertex="1">
                    <mxGeometry x="1670" y="340" width="80" height="20" as="geometry"/>
                </mxCell>
                <mxCell id="6dMJGXCS0I9ftsZN87XB-50" value="这个也有个特殊的删除" style="text;html=1;align=center;verticalAlign=middle;resizable=0;points=[];autosize=1;strokeColor=none;fillColor=none;" parent="6dMJGXCS0I9ftsZN87XB-1" vertex="1">
                    <mxGeometry x="1630" y="550" width="140" height="20" as="geometry"/>
                </mxCell>
                <mxCell id="6dMJGXCS0I9ftsZN87XB-54" style="edgeStyle=none;html=1;exitX=1;exitY=0.5;exitDx=0;exitDy=0;" parent="6dMJGXCS0I9ftsZN87XB-1" source="6dMJGXCS0I9ftsZN87XB-53" target="6dMJGXCS0I9ftsZN87XB-45" edge="1">
                    <mxGeometry relative="1" as="geometry"/>
                </mxCell>
                <mxCell id="6dMJGXCS0I9ftsZN87XB-53" value="FRawPtrProxy" style="whiteSpace=wrap;html=1;" parent="6dMJGXCS0I9ftsZN87XB-1" vertex="1">
                    <mxGeometry x="1010" y="100" width="120" height="60" as="geometry"/>
                </mxCell>
                <mxCell id="6dMJGXCS0I9ftsZN87XB-55" value="工具函数" style="text;html=1;align=center;verticalAlign=middle;resizable=0;points=[];autosize=1;strokeColor=none;fillColor=none;" parent="6dMJGXCS0I9ftsZN87XB-1" vertex="1">
                    <mxGeometry x="1690" y="-20" width="60" height="20" as="geometry"/>
                </mxCell>
                <mxCell id="6dMJGXCS0I9ftsZN87XB-58" style="edgeStyle=none;html=1;exitX=0;exitY=0.5;exitDx=0;exitDy=0;entryX=1;entryY=0.25;entryDx=0;entryDy=0;" parent="6dMJGXCS0I9ftsZN87XB-1" source="6dMJGXCS0I9ftsZN87XB-57" target="6dMJGXCS0I9ftsZN87XB-38" edge="1">
                    <mxGeometry relative="1" as="geometry"/>
                </mxCell>
                <mxCell id="6dMJGXCS0I9ftsZN87XB-57" value="SharedReferenceCount" style="shape=trapezoid;perimeter=trapezoidPerimeter;whiteSpace=wrap;html=1;fixedSize=1;" parent="6dMJGXCS0I9ftsZN87XB-1" vertex="1">
                    <mxGeometry x="1875" y="-198" width="120" height="60" as="geometry"/>
                </mxCell>
                <mxCell id="6dMJGXCS0I9ftsZN87XB-59" value="当共享引用 覆盖的时候&amp;nbsp;&amp;nbsp;AddSharedReference" style="text;html=1;align=center;verticalAlign=middle;resizable=0;points=[];autosize=1;strokeColor=none;fillColor=none;" parent="6dMJGXCS0I9ftsZN87XB-1" vertex="1">
                    <mxGeometry x="1800" y="-120" width="260" height="20" as="geometry"/>
                </mxCell>
                <mxCell id="6dMJGXCS0I9ftsZN87XB-60" value="析构的时候&lt;span&gt;ReleaseSharedReference&lt;/span&gt;" style="text;html=1;align=center;verticalAlign=middle;resizable=0;points=[];autosize=1;strokeColor=none;fillColor=none;" parent="6dMJGXCS0I9ftsZN87XB-1" vertex="1">
                    <mxGeometry x="1785" y="-90" width="210" height="20" as="geometry"/>
                </mxCell>
                <mxCell id="6dMJGXCS0I9ftsZN87XB-61" value="真正销毁object的地方" style="text;html=1;align=center;verticalAlign=middle;resizable=0;points=[];autosize=1;strokeColor=none;fillColor=none;" parent="6dMJGXCS0I9ftsZN87XB-1" vertex="1">
                    <mxGeometry x="1160" y="110" width="130" height="20" as="geometry"/>
                </mxCell>
                <mxCell id="1cRRWxcr_63KirOseFlI-0" value="包含指针" style="text;html=1;align=center;verticalAlign=middle;resizable=0;points=[];autosize=1;strokeColor=none;fillColor=none;" parent="6dMJGXCS0I9ftsZN87XB-1" vertex="1">
                    <mxGeometry x="1270" y="60" width="60" height="20" as="geometry"/>
                </mxCell>
                <mxCell id="1cRRWxcr_63KirOseFlI-1" value="" style="edgeStyle=none;html=1;exitX=0.5;exitY=1;exitDx=0;exitDy=0;entryX=0.5;entryY=0;entryDx=0;entryDy=0;endArrow=none;" parent="6dMJGXCS0I9ftsZN87XB-1" source="6dMJGXCS0I9ftsZN87XB-38" target="1cRRWxcr_63KirOseFlI-0" edge="1">
                    <mxGeometry relative="1" as="geometry">
                        <mxPoint x="1410" y="40" as="sourcePoint"/>
                        <mxPoint x="1230" y="100" as="targetPoint"/>
                    </mxGeometry>
                </mxCell>
                <mxCell id="1cRRWxcr_63KirOseFlI-2" value="创建共享指针的时候 弱指针计算默认就是一，使用所有的弱指针都释放了，&lt;span&gt;FReferenceControllerBase 也不会销毁&lt;/span&gt;" style="text;html=1;align=center;verticalAlign=middle;resizable=0;points=[];autosize=1;strokeColor=none;fillColor=none;" parent="6dMJGXCS0I9ftsZN87XB-1" vertex="1">
                    <mxGeometry x="1360" y="630" width="620" height="20" as="geometry"/>
                </mxCell>
                <mxCell id="Uqa2K-aG09tiZERfUiDg-1" value="TSharedPtr" style="swimlane;fontStyle=1;align=center;verticalAlign=top;childLayout=stackLayout;horizontal=1;startSize=26;horizontalStack=0;resizeParent=1;resizeParentMax=0;resizeLast=0;collapsible=1;marginBottom=0;" vertex="1" parent="6dMJGXCS0I9ftsZN87XB-1">
                    <mxGeometry x="-10" y="-1367" width="430" height="112" as="geometry"/>
                </mxCell>
                <mxCell id="Uqa2K-aG09tiZERfUiDg-2" value="ObjectType* Object;" style="text;strokeColor=none;fillColor=none;align=left;verticalAlign=top;spacingLeft=4;spacingRight=4;overflow=hidden;rotatable=0;points=[[0,0.5],[1,0.5]];portConstraint=eastwest;" vertex="1" parent="Uqa2K-aG09tiZERfUiDg-1">
                    <mxGeometry y="26" width="430" height="26" as="geometry"/>
                </mxCell>
                <mxCell id="Uqa2K-aG09tiZERfUiDg-5" value="SharedPointerInternals::FSharedReferencer&lt; Mode &gt; SharedReferenceCount;" style="text;strokeColor=none;fillColor=none;align=left;verticalAlign=top;spacingLeft=4;spacingRight=4;overflow=hidden;rotatable=0;points=[[0,0.5],[1,0.5]];portConstraint=eastwest;" vertex="1" parent="Uqa2K-aG09tiZERfUiDg-1">
                    <mxGeometry y="52" width="430" height="26" as="geometry"/>
                </mxCell>
                <mxCell id="Uqa2K-aG09tiZERfUiDg-3" value="" style="line;strokeWidth=1;fillColor=none;align=left;verticalAlign=middle;spacingTop=-1;spacingLeft=3;spacingRight=3;rotatable=0;labelPosition=right;points=[];portConstraint=eastwest;" vertex="1" parent="Uqa2K-aG09tiZERfUiDg-1">
                    <mxGeometry y="78" width="430" height="8" as="geometry"/>
                </mxCell>
                <mxCell id="Uqa2K-aG09tiZERfUiDg-4" value="+ method(type): type" style="text;strokeColor=none;fillColor=none;align=left;verticalAlign=top;spacingLeft=4;spacingRight=4;overflow=hidden;rotatable=0;points=[[0,0.5],[1,0.5]];portConstraint=eastwest;" vertex="1" parent="Uqa2K-aG09tiZERfUiDg-1">
                    <mxGeometry y="86" width="430" height="26" as="geometry"/>
                </mxCell>
                <mxCell id="Uqa2K-aG09tiZERfUiDg-6" value="一个类持有一个指针和一个计数器" style="text;html=1;align=center;verticalAlign=middle;resizable=0;points=[];autosize=1;strokeColor=none;fillColor=none;" vertex="1" parent="6dMJGXCS0I9ftsZN87XB-1">
                    <mxGeometry x="-20" y="-1417" width="200" height="20" as="geometry"/>
                </mxCell>
                <mxCell id="Uqa2K-aG09tiZERfUiDg-7" value="FSharedReferencer" style="swimlane;fontStyle=1;align=center;verticalAlign=top;childLayout=stackLayout;horizontal=1;startSize=26;horizontalStack=0;resizeParent=1;resizeParentMax=0;resizeLast=0;collapsible=1;marginBottom=0;" vertex="1" parent="6dMJGXCS0I9ftsZN87XB-1">
                    <mxGeometry x="590" y="-1280" width="320" height="112" as="geometry"/>
                </mxCell>
                <mxCell id="Uqa2K-aG09tiZERfUiDg-8" value="FReferenceControllerBase* ReferenceController;" style="text;strokeColor=none;fillColor=none;align=left;verticalAlign=top;spacingLeft=4;spacingRight=4;overflow=hidden;rotatable=0;points=[[0,0.5],[1,0.5]];portConstraint=eastwest;" vertex="1" parent="Uqa2K-aG09tiZERfUiDg-7">
                    <mxGeometry y="26" width="320" height="26" as="geometry"/>
                </mxCell>
                <mxCell id="Uqa2K-aG09tiZERfUiDg-23" value="typedef FReferenceControllerOps TOps;" style="text;strokeColor=none;fillColor=none;align=left;verticalAlign=top;spacingLeft=4;spacingRight=4;overflow=hidden;rotatable=0;points=[[0,0.5],[1,0.5]];portConstraint=eastwest;" vertex="1" parent="Uqa2K-aG09tiZERfUiDg-7">
                    <mxGeometry y="52" width="320" height="26" as="geometry"/>
                </mxCell>
                <mxCell id="Uqa2K-aG09tiZERfUiDg-9" value="" style="line;strokeWidth=1;fillColor=none;align=left;verticalAlign=middle;spacingTop=-1;spacingLeft=3;spacingRight=3;rotatable=0;labelPosition=right;points=[];portConstraint=eastwest;" vertex="1" parent="Uqa2K-aG09tiZERfUiDg-7">
                    <mxGeometry y="78" width="320" height="8" as="geometry"/>
                </mxCell>
                <mxCell id="Uqa2K-aG09tiZERfUiDg-10" value="+ method(type): type" style="text;strokeColor=none;fillColor=none;align=left;verticalAlign=top;spacingLeft=4;spacingRight=4;overflow=hidden;rotatable=0;points=[[0,0.5],[1,0.5]];portConstraint=eastwest;" vertex="1" parent="Uqa2K-aG09tiZERfUiDg-7">
                    <mxGeometry y="86" width="320" height="26" as="geometry"/>
                </mxCell>
                <mxCell id="Uqa2K-aG09tiZERfUiDg-11" value="TSharedPtr" style="swimlane;fontStyle=1;align=center;verticalAlign=top;childLayout=stackLayout;horizontal=1;startSize=26;horizontalStack=0;resizeParent=1;resizeParentMax=0;resizeLast=0;collapsible=1;marginBottom=0;" vertex="1" parent="6dMJGXCS0I9ftsZN87XB-1">
                    <mxGeometry x="-20" y="-1197" width="430" height="112" as="geometry"/>
                </mxCell>
                <mxCell id="Uqa2K-aG09tiZERfUiDg-12" value="ObjectType* Object;" style="text;strokeColor=none;fillColor=none;align=left;verticalAlign=top;spacingLeft=4;spacingRight=4;overflow=hidden;rotatable=0;points=[[0,0.5],[1,0.5]];portConstraint=eastwest;" vertex="1" parent="Uqa2K-aG09tiZERfUiDg-11">
                    <mxGeometry y="26" width="430" height="26" as="geometry"/>
                </mxCell>
                <mxCell id="Uqa2K-aG09tiZERfUiDg-13" value="SharedPointerInternals::FSharedReferencer&lt; Mode &gt; SharedReferenceCount;" style="text;strokeColor=none;fillColor=none;align=left;verticalAlign=top;spacingLeft=4;spacingRight=4;overflow=hidden;rotatable=0;points=[[0,0.5],[1,0.5]];portConstraint=eastwest;" vertex="1" parent="Uqa2K-aG09tiZERfUiDg-11">
                    <mxGeometry y="52" width="430" height="26" as="geometry"/>
                </mxCell>
                <mxCell id="Uqa2K-aG09tiZERfUiDg-14" value="" style="line;strokeWidth=1;fillColor=none;align=left;verticalAlign=middle;spacingTop=-1;spacingLeft=3;spacingRight=3;rotatable=0;labelPosition=right;points=[];portConstraint=eastwest;" vertex="1" parent="Uqa2K-aG09tiZERfUiDg-11">
                    <mxGeometry y="78" width="430" height="8" as="geometry"/>
                </mxCell>
                <mxCell id="Uqa2K-aG09tiZERfUiDg-15" value="+ method(type): type" style="text;strokeColor=none;fillColor=none;align=left;verticalAlign=top;spacingLeft=4;spacingRight=4;overflow=hidden;rotatable=0;points=[[0,0.5],[1,0.5]];portConstraint=eastwest;" vertex="1" parent="Uqa2K-aG09tiZERfUiDg-11">
                    <mxGeometry y="86" width="430" height="26" as="geometry"/>
                </mxCell>
                <mxCell id="Uqa2K-aG09tiZERfUiDg-16" value="不能为空" style="text;html=1;align=center;verticalAlign=middle;resizable=0;points=[];autosize=1;strokeColor=none;fillColor=none;" vertex="1" parent="6dMJGXCS0I9ftsZN87XB-1">
                    <mxGeometry x="-110" y="-1187" width="60" height="20" as="geometry"/>
                </mxCell>
                <mxCell id="Uqa2K-aG09tiZERfUiDg-17" value="FReferenceControllerBase" style="swimlane;fontStyle=1;align=center;verticalAlign=top;childLayout=stackLayout;horizontal=1;startSize=26;horizontalStack=0;resizeParent=1;resizeParentMax=0;resizeLast=0;collapsible=1;marginBottom=0;" vertex="1" parent="6dMJGXCS0I9ftsZN87XB-1">
                    <mxGeometry x="1105" y="-1170" width="300" height="112" as="geometry"/>
                </mxCell>
                <mxCell id="Uqa2K-aG09tiZERfUiDg-18" value="int32 SharedReferenceCount;" style="text;strokeColor=none;fillColor=none;align=left;verticalAlign=top;spacingLeft=4;spacingRight=4;overflow=hidden;rotatable=0;points=[[0,0.5],[1,0.5]];portConstraint=eastwest;" vertex="1" parent="Uqa2K-aG09tiZERfUiDg-17">
                    <mxGeometry y="26" width="300" height="26" as="geometry"/>
                </mxCell>
                <mxCell id="Uqa2K-aG09tiZERfUiDg-21" value="int32 WeakReferenceCount;" style="text;strokeColor=none;fillColor=none;align=left;verticalAlign=top;spacingLeft=4;spacingRight=4;overflow=hidden;rotatable=0;points=[[0,0.5],[1,0.5]];portConstraint=eastwest;" vertex="1" parent="Uqa2K-aG09tiZERfUiDg-17">
                    <mxGeometry y="52" width="300" height="26" as="geometry"/>
                </mxCell>
                <mxCell id="Uqa2K-aG09tiZERfUiDg-19" value="" style="line;strokeWidth=1;fillColor=none;align=left;verticalAlign=middle;spacingTop=-1;spacingLeft=3;spacingRight=3;rotatable=0;labelPosition=right;points=[];portConstraint=eastwest;" vertex="1" parent="Uqa2K-aG09tiZERfUiDg-17">
                    <mxGeometry y="78" width="300" height="8" as="geometry"/>
                </mxCell>
                <mxCell id="Uqa2K-aG09tiZERfUiDg-20" value="+ method(type): type" style="text;strokeColor=none;fillColor=none;align=left;verticalAlign=top;spacingLeft=4;spacingRight=4;overflow=hidden;rotatable=0;points=[[0,0.5],[1,0.5]];portConstraint=eastwest;" vertex="1" parent="Uqa2K-aG09tiZERfUiDg-17">
                    <mxGeometry y="86" width="300" height="26" as="geometry"/>
                </mxCell>
                <mxCell id="Uqa2K-aG09tiZERfUiDg-25" value="当单例用" style="text;html=1;align=center;verticalAlign=middle;resizable=0;points=[];autosize=1;strokeColor=none;fillColor=none;" vertex="1" parent="6dMJGXCS0I9ftsZN87XB-1">
                    <mxGeometry x="520" y="-1220" width="60" height="20" as="geometry"/>
                </mxCell>
                <mxCell id="Uqa2K-aG09tiZERfUiDg-26" value="FReferenceControllerOps" style="html=1;" vertex="1" parent="6dMJGXCS0I9ftsZN87XB-1">
                    <mxGeometry x="685" y="-1517" width="110" height="50" as="geometry"/>
                </mxCell>
                <mxCell id="Uqa2K-aG09tiZERfUiDg-27" value="FReferenceControllerOps&amp;lt;ESPMode::ThreadSafe&amp;gt;" style="whiteSpace=wrap;html=1;" vertex="1" parent="6dMJGXCS0I9ftsZN87XB-1">
                    <mxGeometry x="540" y="-1407" width="120" height="60" as="geometry"/>
                </mxCell>
                <mxCell id="Uqa2K-aG09tiZERfUiDg-28" value="FReferenceControllerOps&amp;lt;ESPMode::NotThreadSafe&amp;gt;" style="whiteSpace=wrap;html=1;" vertex="1" parent="6dMJGXCS0I9ftsZN87XB-1">
                    <mxGeometry x="850" y="-1417" width="120" height="60" as="geometry"/>
                </mxCell>
                <mxCell id="Uqa2K-aG09tiZERfUiDg-29" value="线程安全，原子操作" style="text;html=1;align=center;verticalAlign=middle;resizable=0;points=[];autosize=1;strokeColor=none;fillColor=none;" vertex="1" parent="6dMJGXCS0I9ftsZN87XB-1">
                    <mxGeometry x="520" y="-1447" width="120" height="20" as="geometry"/>
                </mxCell>
                <mxCell id="Uqa2K-aG09tiZERfUiDg-30" value="线程不安全 自加和自减操作" style="text;html=1;align=center;verticalAlign=middle;resizable=0;points=[];autosize=1;strokeColor=none;fillColor=none;" vertex="1" parent="6dMJGXCS0I9ftsZN87XB-1">
                    <mxGeometry x="850" y="-1457" width="160" height="20" as="geometry"/>
                </mxCell>
                <mxCell id="Uqa2K-aG09tiZERfUiDg-31" value="本质是对&amp;nbsp;FReferenceControllerBase 的计数操作，计数清零的逻辑在这里调用" style="text;html=1;align=center;verticalAlign=middle;resizable=0;points=[];autosize=1;strokeColor=none;fillColor=none;" vertex="1" parent="6dMJGXCS0I9ftsZN87XB-1">
                    <mxGeometry x="535" y="-1540" width="430" height="20" as="geometry"/>
                </mxCell>
                <mxCell id="Uqa2K-aG09tiZERfUiDg-33" value="TWeakPtr" style="swimlane;fontStyle=1;align=center;verticalAlign=top;childLayout=stackLayout;horizontal=1;startSize=26;horizontalStack=0;resizeParent=1;resizeParentMax=0;resizeLast=0;collapsible=1;marginBottom=0;" vertex="1" parent="6dMJGXCS0I9ftsZN87XB-1">
                    <mxGeometry x="-30" y="-1030" width="430" height="112" as="geometry"/>
                </mxCell>
                <mxCell id="Uqa2K-aG09tiZERfUiDg-34" value="ObjectType* Object;" style="text;strokeColor=none;fillColor=none;align=left;verticalAlign=top;spacingLeft=4;spacingRight=4;overflow=hidden;rotatable=0;points=[[0,0.5],[1,0.5]];portConstraint=eastwest;" vertex="1" parent="Uqa2K-aG09tiZERfUiDg-33">
                    <mxGeometry y="26" width="430" height="26" as="geometry"/>
                </mxCell>
                <mxCell id="Uqa2K-aG09tiZERfUiDg-35" value="SharedPointerInternals::FWeakReferencer&lt; Mode &gt; WeakReferenceCount;&#10;" style="text;strokeColor=none;fillColor=none;align=left;verticalAlign=top;spacingLeft=4;spacingRight=4;overflow=hidden;rotatable=0;points=[[0,0.5],[1,0.5]];portConstraint=eastwest;" vertex="1" parent="Uqa2K-aG09tiZERfUiDg-33">
                    <mxGeometry y="52" width="430" height="26" as="geometry"/>
                </mxCell>
                <mxCell id="Uqa2K-aG09tiZERfUiDg-36" value="" style="line;strokeWidth=1;fillColor=none;align=left;verticalAlign=middle;spacingTop=-1;spacingLeft=3;spacingRight=3;rotatable=0;labelPosition=right;points=[];portConstraint=eastwest;" vertex="1" parent="Uqa2K-aG09tiZERfUiDg-33">
                    <mxGeometry y="78" width="430" height="8" as="geometry"/>
                </mxCell>
                <mxCell id="Uqa2K-aG09tiZERfUiDg-37" value="+ method(type): type" style="text;strokeColor=none;fillColor=none;align=left;verticalAlign=top;spacingLeft=4;spacingRight=4;overflow=hidden;rotatable=0;points=[[0,0.5],[1,0.5]];portConstraint=eastwest;" vertex="1" parent="Uqa2K-aG09tiZERfUiDg-33">
                    <mxGeometry y="86" width="430" height="26" as="geometry"/>
                </mxCell>
                <mxCell id="Uqa2K-aG09tiZERfUiDg-38" value="FWeakReferencer" style="swimlane;fontStyle=1;align=center;verticalAlign=top;childLayout=stackLayout;horizontal=1;startSize=26;horizontalStack=0;resizeParent=1;resizeParentMax=0;resizeLast=0;collapsible=1;marginBottom=0;" vertex="1" parent="6dMJGXCS0I9ftsZN87XB-1">
                    <mxGeometry x="580" y="-1070" width="320" height="112" as="geometry"/>
                </mxCell>
                <mxCell id="Uqa2K-aG09tiZERfUiDg-39" value="FReferenceControllerBase* ReferenceController;" style="text;strokeColor=none;fillColor=none;align=left;verticalAlign=top;spacingLeft=4;spacingRight=4;overflow=hidden;rotatable=0;points=[[0,0.5],[1,0.5]];portConstraint=eastwest;" vertex="1" parent="Uqa2K-aG09tiZERfUiDg-38">
                    <mxGeometry y="26" width="320" height="26" as="geometry"/>
                </mxCell>
                <mxCell id="Uqa2K-aG09tiZERfUiDg-40" value="typedef FReferenceControllerOps TOps;" style="text;strokeColor=none;fillColor=none;align=left;verticalAlign=top;spacingLeft=4;spacingRight=4;overflow=hidden;rotatable=0;points=[[0,0.5],[1,0.5]];portConstraint=eastwest;" vertex="1" parent="Uqa2K-aG09tiZERfUiDg-38">
                    <mxGeometry y="52" width="320" height="26" as="geometry"/>
                </mxCell>
                <mxCell id="Uqa2K-aG09tiZERfUiDg-41" value="" style="line;strokeWidth=1;fillColor=none;align=left;verticalAlign=middle;spacingTop=-1;spacingLeft=3;spacingRight=3;rotatable=0;labelPosition=right;points=[];portConstraint=eastwest;" vertex="1" parent="Uqa2K-aG09tiZERfUiDg-38">
                    <mxGeometry y="78" width="320" height="8" as="geometry"/>
                </mxCell>
                <mxCell id="Uqa2K-aG09tiZERfUiDg-42" value="+ method(type): type" style="text;strokeColor=none;fillColor=none;align=left;verticalAlign=top;spacingLeft=4;spacingRight=4;overflow=hidden;rotatable=0;points=[[0,0.5],[1,0.5]];portConstraint=eastwest;" vertex="1" parent="Uqa2K-aG09tiZERfUiDg-38">
                    <mxGeometry y="86" width="320" height="26" as="geometry"/>
                </mxCell>
                <mxCell id="Uqa2K-aG09tiZERfUiDg-43" value="TReferenceControllerWithDeleter" style="swimlane;fontStyle=1;align=center;verticalAlign=top;childLayout=stackLayout;horizontal=1;startSize=26;horizontalStack=0;resizeParent=1;resizeParentMax=0;resizeLast=0;collapsible=1;marginBottom=0;" vertex="1" parent="6dMJGXCS0I9ftsZN87XB-1">
                    <mxGeometry x="1290" y="-1004" width="340" height="86" as="geometry"/>
                </mxCell>
                <mxCell id="Uqa2K-aG09tiZERfUiDg-44" value="ObjectType* Object;" style="text;strokeColor=none;fillColor=none;align=left;verticalAlign=top;spacingLeft=4;spacingRight=4;overflow=hidden;rotatable=0;points=[[0,0.5],[1,0.5]];portConstraint=eastwest;" vertex="1" parent="Uqa2K-aG09tiZERfUiDg-43">
                    <mxGeometry y="26" width="340" height="26" as="geometry"/>
                </mxCell>
                <mxCell id="Uqa2K-aG09tiZERfUiDg-45" value="" style="line;strokeWidth=1;fillColor=none;align=left;verticalAlign=middle;spacingTop=-1;spacingLeft=3;spacingRight=3;rotatable=0;labelPosition=right;points=[];portConstraint=eastwest;" vertex="1" parent="Uqa2K-aG09tiZERfUiDg-43">
                    <mxGeometry y="52" width="340" height="8" as="geometry"/>
                </mxCell>
                <mxCell id="Uqa2K-aG09tiZERfUiDg-46" value="+ method(type): type" style="text;strokeColor=none;fillColor=none;align=left;verticalAlign=top;spacingLeft=4;spacingRight=4;overflow=hidden;rotatable=0;points=[[0,0.5],[1,0.5]];portConstraint=eastwest;" vertex="1" parent="Uqa2K-aG09tiZERfUiDg-43">
                    <mxGeometry y="60" width="340" height="26" as="geometry"/>
                </mxCell>
                <mxCell id="Uqa2K-aG09tiZERfUiDg-47" value="DefaultDeleter" style="whiteSpace=wrap;html=1;" vertex="1" parent="6dMJGXCS0I9ftsZN87XB-1">
                    <mxGeometry x="1550" y="-1160" width="120" height="60" as="geometry"/>
                </mxCell>
                <mxCell id="Uqa2K-aG09tiZERfUiDg-48" value="TIntrusiveReferenceController" style="swimlane;fontStyle=1;align=center;verticalAlign=top;childLayout=stackLayout;horizontal=1;startSize=26;horizontalStack=0;resizeParent=1;resizeParentMax=0;resizeLast=0;collapsible=1;marginBottom=0;" vertex="1" parent="6dMJGXCS0I9ftsZN87XB-1">
                    <mxGeometry x="1860" y="-1004" width="540" height="86" as="geometry"/>
                </mxCell>
                <mxCell id="Uqa2K-aG09tiZERfUiDg-49" value="mutable TTypeCompatibleBytes&lt;ObjectType&gt; ObjectStorage;" style="text;strokeColor=none;fillColor=none;align=left;verticalAlign=top;spacingLeft=4;spacingRight=4;overflow=hidden;rotatable=0;points=[[0,0.5],[1,0.5]];portConstraint=eastwest;" vertex="1" parent="Uqa2K-aG09tiZERfUiDg-48">
                    <mxGeometry y="26" width="540" height="26" as="geometry"/>
                </mxCell>
                <mxCell id="Uqa2K-aG09tiZERfUiDg-50" value="" style="line;strokeWidth=1;fillColor=none;align=left;verticalAlign=middle;spacingTop=-1;spacingLeft=3;spacingRight=3;rotatable=0;labelPosition=right;points=[];portConstraint=eastwest;" vertex="1" parent="Uqa2K-aG09tiZERfUiDg-48">
                    <mxGeometry y="52" width="540" height="8" as="geometry"/>
                </mxCell>
                <mxCell id="Uqa2K-aG09tiZERfUiDg-51" value="+ method(type): type" style="text;strokeColor=none;fillColor=none;align=left;verticalAlign=top;spacingLeft=4;spacingRight=4;overflow=hidden;rotatable=0;points=[[0,0.5],[1,0.5]];portConstraint=eastwest;" vertex="1" parent="Uqa2K-aG09tiZERfUiDg-48">
                    <mxGeometry y="60" width="540" height="26" as="geometry"/>
                </mxCell>
                <mxCell id="Uqa2K-aG09tiZERfUiDg-52" value="与此引用计数器相关联的对象。" style="text;html=1;align=center;verticalAlign=middle;resizable=0;points=[];autosize=1;strokeColor=none;fillColor=none;" vertex="1" parent="6dMJGXCS0I9ftsZN87XB-1">
                    <mxGeometry x="1090" y="-971" width="180" height="20" as="geometry"/>
                </mxCell>
                <mxCell id="Uqa2K-aG09tiZERfUiDg-53" value="调用（） 时销毁对象" style="text;html=1;align=center;verticalAlign=middle;resizable=0;points=[];autosize=1;strokeColor=none;fillColor=none;" vertex="1" parent="6dMJGXCS0I9ftsZN87XB-1">
                    <mxGeometry x="1505" y="-1210" width="130" height="20" as="geometry"/>
                </mxCell>
                <mxCell id="Uqa2K-aG09tiZERfUiDg-54" value="定义了如何销毁对象" style="text;html=1;align=center;verticalAlign=middle;resizable=0;points=[];autosize=1;strokeColor=none;fillColor=none;" vertex="1" parent="6dMJGXCS0I9ftsZN87XB-1">
                    <mxGeometry x="1515" y="-1190" width="120" height="20" as="geometry"/>
                </mxCell>
                <mxCell id="Uqa2K-aG09tiZERfUiDg-55" value="" style="shape=image;verticalLabelPosition=bottom;labelBackgroundColor=#ffffff;verticalAlign=top;aspect=fixed;imageAspect=0;image=data:image/png,iVBORw0KGgoAAAANSUhEUgAAAn4AAAC1CAYAAADBYPI+AAAgAElEQVR4nO3de3xT9f348VebpElvpGlL6YVebaHl5oUqeJnAvIHidHPzMudUdI6L234oMvHCJoo3HM7pcDqH8+s2b8PpVyZ4+wJOFEYR5NJyKaVpS+9tem/SNOX3R5Lm2jaBNiHyfj4ePB7kXD7nfdLk5J3P+/M5CcvIyDhOkKSkpPDLX/6SZcuWDbmtSqUiL28ce7oi6YnyXB/WXoGmsp6wEYjTne6W8eTHN/L1c02Y+peqSfnFGcSXH+ZoXxqZ4cfQ96UxKbedb+zbFaYwdXYYR59rQ3vXKFpfbkO7OJWwj45Qtt3icozjoyfQrTOhPnoEhdn1GCltlex5rZ1e++LCFKb+MBbDv45Qtl1Jyi/OICu8rj8+3S3jyc9s5+Bz1TS3Ox9lgPa87BN1VRaTvhNG1bNHqa6zbxVD9vIsonYdZP8HZtwN3cbg+7s8H/Hj6E4KI+LoQZQm5zVqUubpML1Tazs3a5s6vd52TtZzzEoLp22r9TjezwUgFnPueHq7ytBUNzu9ltQez6nrc26xPU4goqPZdr5e9nHh7dwHiN2lDfdtvBn47+piVBbdY2NQ6otRdfY5lmcmMOHOBIzrHa/LqKuymHR2D6XuryEv29rpbkkn8uNK23M8yPMRk0F3hhZlRTGqDtc2hjoX3S3jyZ+owlRiez7c/y5ejjvg+yFqLMaseMKrSohoM3sex+M972aQ58L6HKaR1FhLuW2d9/dHDIqaGutxMhOYcGcKYf+1v0Y8z8Xz7xJD9s/VVL9ki9OjDcdzhv21Gu8Wt8dzOPD7tC/lLIzRzWjKKgh3egl5Htfz7+jbNWbw10BgrlM2YaPpKcigr/4AmsZOj/hO9vrg6/UyOYr+13uE+9+/MIVxKY0csp2n93Px4T3l/P4Y6HWYFg7212phClN/qKHG7Tk7Hj+e7qTjRBw95HbdjiF7ufWzzzAuE90hPYZxuWSHV3uJycfrmfBZeLAD8FVUVBQFBfkoy4uIKnb6V1qFoqcOdYCSPoghLvs4ddta3D4ATNQ8X+xyYen6dzn/df6gKKph52POHzYdHF1xyMuHRBSW2ChQxmKJUvsXXmYMuqRu9G86jmv4vJFWdQxxExQ+NmI7x0/q+mPt+ncjDV3R6M5TDXsbo3JGMfhZquiLGQXh0Vhi3LN+EzVra12e05ajZtRxETifralEz0Hb36ZrXzsdZhWaLLfnI0qLJQKOR2vpUzotz4xBl9Tr+jcvaqb6mJK4/Cgcm3ai/7P972ui5isDPbFqomMHPTmHwlji+5opf9d+cbO1kTKKhDG2EK9KZLTLNifOEqPjOBosMTGuK/QdGOqdz02NNieKzm8a3L44DM7weqXTh4CJ1rIuLF6ej74YHcdRe8bhq5oa9ts/EIraae6KIDLJdmnz4/3QFxNHHxFYYmLx+m3Y6e9wIrr+faw/6QMwlLTRE6NG4/yS7mjm4FpbrPoODPV9qOM11r+Dl3Px1MHRl5zWu7fhfBz7B7veRLfZ8ZzpCkZxvKSGCi/Jq6s4LKOUEKHFEun6URI1KZaYxhpKB/xCF9hrzLC0odXSSxh9sVqcc9zhuT74Hkf/lxygq86Exfk1VFTTn/TBINe6QZ8PFW3O73V9EzWHzJ7XaXvSB9DQQ7fHcSKwxMZar9vRkW7H8fzsM7x+kK+9JXa2133tRkn6hoty6E1OYQod5vRYlBWHA5bBRl2VyOjWJr4Z5KLY9e9ySgZtpYOjv+sYZH0XyrIin/84UWPUKDBjLLdAegSRqmi0iyeR6bJVD0Yf2yNTTaQqAu33CxjzfddVbcPaRgdHV5TD8izOeTIFcL2oOZhRVBThpaMXcOopcV5Y42ugTrqq0BRXeS4fHUGkykxLufPf3ISxxYI63ppgDnhBsl+UfUiYosaoUcTEMP7BeLc1jt4FdbwaRXs7nX4kYANRVO8iqtrbGuuHUursWEbFttMcb73wGt4evFfWg72Xw3lZR7PHZuG13xBV61/TPhvt+/shvH4fUfXemzG8fpADt4wn396Oc+LkK1vPidblc7xzoK09jY4gUgUtQ2zW36PnxOT+xm03Ob2GOji6Yp/t/2o0cQof3+gtqA4W4S3FUserUQz2og/YNWYY22gpJcrbkz8c14d43+MwNRsd7RXVsLPIpcH+XkEHf6/9PXTXu6S2mJpNWDKtSarJ9mc1tfTQf8b6JoofbnJrrAelfujPMcPrZRgGWa+7OBFNaTX1dYNsJPwSuomfQoc5ZyxU70XRE6iD2no+yo4N8o070KwxKWrqaKoDND10mzupecG9XOIHvYluc8+AJavhbcP6oXMUbB+MmYy/eujSb7/CFAq+E0Hjv0r6j2Mty51Y2F419NBtjrV+m62zn4v1A9Ll4ucmaowaRYcJY5dvh+mqM2Hp8FJOdeLtAjwiitppvjKVuAkKjImxqEob/bvwZiYw4ZoEjFsPstO57HT2yIQ7oIZheD/YGF4/yFeAvfQ0fp5p8NKvixiyb01BU6pnh/2Lja08Npyirsoib2IP+mcPupTYU4b1KMMgoNeYEW5jOK4PdcMQB2pSfpFBcmsNX69wLvUn+N6Erfc3KikcnCIfzi+c/rH2hLZ81CW9fcMoZEq9ra2trFu3zrHAYkB1eC8qP74wn7TCeFK1LdRs9rPnYwTpbskiK82p/KPvwFAfSeaNCUOUTwfTQcvRMMZcNob4QcuUZoyGvgFKtb624URvotvPp9altxOgMIWcib6WeXyNy1r6HDM9rv88o65KIT1tsPJDDGOmxtBb2U6brxfLonaaw+PJ+kHsgN/Iuva106EefJv+3ob0WEb5+tx76KBuZw+x+Vric5S0H/Dzwjs6wrXnIDOBrOluvbI+OclzGZb3g/eYPI9l/dB0Le/ZZKqJVDn31sSQfaVbb+hQitppdir9eevpVse7ftmwvk79ucxbS/LK/ufbWw/S0AwlbU5DFJzGhPU7geuDhyBdp9wNy/VhOJ4PFRpduFOyqSble2Pcephh8PeUdajMqDNHO+IoTCFnorfhTSPPXmE7dsLJsPAmLFQmd5wKdLeMH2DwaaB4uYB6LTkNsZ23Ehy4jtnAW8moE737gGf38pU/bXgpfXkv9Q7G7Vw7mjm6P4KMDPukGi8Dg4cYhO+d+weg23Ph5Vzsk0kGa89zwLmXD1q359TzWD3U/cv9XNzaOZnSZGONR8+Wt3IiuJ6z6zad6D8xknJ+GEf9jWOQc/GcdOHtefX1fTMQP/Z3e285v55dE7Ue6jYb0FwYQ4utN9JzooaX165z+x3NHNx8nOyZzs+p23NVU8OR5kTGOl23hp6o4nq+bVuP0pyVSXz5Yd974nH9+5tK9Oj7Usl0u34Oen04Va5TPhni+uDlXLxdHwaPw4fJcG7HadtaRdfZSV4mEA52fXB/vbtfXwI12cIxYdKf150YmiR+vspMYMKdo/ov0kKcHN9nNAshQtwAs17FIPrvguHvF0UxlJAp9SqVSjIzM4fecIToLk5E29hmHUcnhN/UpFwf71QKSmR0VCeG/0rSJ4QQrtSknK/juD9DZYTPQmZyR3R0NIWFhej1+qAc3zGwW4gTYaKmLJ6pT06ylWH8LSUJIcTpwnp7tBO5OYMYWsgkfkKEvKIadhbJpUyI047HbVeECJ6QKfUKIYQQQoiTEzKJX3t7Oxs2bAh2GEIIIYQQIStkEr++vj66uny8E64QQgghhPAQMomfEEIIIYQ4OSGT+CkUChITE4MdhhBCCCFEyAqZxC8mJoYZM2YEOwwhhBBCiJAlt3MJNWMXU3DLFf0/PdS2bRHFHx8JbkwiMC5rZ+8SA6O8ratP4M5bovkk0DEJIYQIKSHT43dKGLuYgmXvkHN2EEvOVc9S8sRstq34E3UnNdflWrKXbGTC5WcMV2QnJu4Wcpe8z/gZBcGNIxR8EsvkKzLIvCKD69+PwdQ5irV3Wh9nStInhBDCByGT+HV2dlJU5HQHTIUOc95kzNHBi0n4Z/bi51mz9Jr+ny0TIazgVh5ds5J5ZwY7ECGEEP4ImVJvb2+v68+1WQyoysCclYel8jCKnhE8uFt5lav/RtLV1v+aDvyFvW+/Qy8AZ5Fy56Nkpto27NjLwZfuw9AJ1h62mwk7VEXcWQVEdOylvERH+rljUdR+yq6Xn8Fk3+az9zl+yU8YE2Vtxv9yrlsctFP/wQLKdjXa4pjf3zbT/8j06bb/98dhFffDdeRPsGfW1VSsmUd1ox9h9JvErSsWME25i78sf9/aftwt5N55M4n2OGY8y3TbEM7eiv9l31/XYDnv90yenULTOzegL3GcW9qCJxldu5rd//oY1Xm/Z/IF7ZR/GUvW7Hzrz6GZyjn62nzqau37jCXhx8+Rl2s7F7f1Xtto20Hx7x+mjQHawIRhy/0c3FLSvy7dspeO9OkkRrVS83/fEPvdi4lxO1bklf/DmYVJtjZaqXE5t5Nl4Xd/quWH0XGuZd/L2tm7pJtdDyTx053WbWZWjmZzegM/zLYA0HVgDN//lZoD9n0KutnyVANZtizdY33Ja/zxg3u47+erWfLhap5ZXzVcJyGEEGIEhUyPn1cWA6rKdnoz0ukbyePYy6trP6LV3E79Bz9h24rZbFsxm13uSV/4FnbZ1h2oyGH8z1eh6++VjCUpt5ejb3xEq3oyWekH2PPebnqSJ5CQ6LTN1dcQ9pn1GN98WUX09AdJ9aO6HHnprah33t4f44HicJJm/doWx3scfcZRKm7btqh/u23uSV9GGQd/N9sWRx9pC9d6iSMO8/hCjMla78FMupUVf1zItI6PWfzAK+zstS1veZ3SZ2az7Q9/p7HLhGHL4v44iv66BiNg/u9fqWvQosu/vL851Xm3MWZUOTVffew4xqhzGXdBO6UrZrNtxf1UtmWRPnshGqA/YUsqptjW/jd7o8i+9U+MScZ7G3/4O43Kc8n5vvNx70Z77KH+GL8pakU3/VcubWjGF2D+9/1UNmhJuTCDhjf+TqMlhbjx1jJ25JX/w5mTuzj6srWNnRtrSPjRW2R6VLmj6M0ppHtsIscH+iN7peDedaNoS+rklqn2ZRZ+d10bygNaHt/p2DLx4lpmViZby8TP6OjNb+IPt9reRbakL2Z7mnX9FSnsS6njX8+ZyHc6Wu2G1dz7/Ddor3yA1UvmMtavWIUQQgRDyCR+4eHhREXF0ZtVSNcEp3+5Y7FEjMGUnuTnh+QwGzuLuNENVLzrSJ5atn1BqzoL3ThHttS2708YugHaqd/xV0zNdXSbXZtq23a/rXcOuj9dT2NXLJp03zO/7k8XU77L0TXXcugwPTEJREb62sK16LL6qN/0lK230h5HKnHnuI0JjNXSq4C+GC197q+m2Yt5fuE0Oj5ezMKn3+9/Xny3m2Z9PZrM79gmNIxlVG464XV7aK112sxUztE37b1zu6nfeYC+uBRrz13cLHSpvdR85Oi96/7yE5eEzKONlk0YqjtRanNtySOY/3s/ZVscXXPdew7Qodah0Tma6K3YQp1tE+Ohd6k7vJfuTvvas4jP1GLY9lx/75+3xBYATRy9GjgepaVPhX8+0XCg1cjE2daePAp6KEwNo/JrlaO3DmsP3s0rFbZ9ovj46HESxlrfQdNmdZPSmsD99vWoeGZzDIr0bm5IdzteyWs8vOIDqlKu5IGV85DKrxBCnNpCptQbGxvLpZdewrp161yDjkjGlKFCVVlPWLCCA4gfQ6QqFe3CjWS4rGin/qQbj0UzWgv4WGd1L00DUO374cZmo1HFonUqadu1uW/brieyWO++FJjErRfkovCyxh/dX35C44S56AqgrcaaxDX829ojOCj1aCKToU2ZjiZKS+KPNpLisoEJgz+BuJemAWil3ef9JxMZrUbnVNK2M9a6bWusRlPsx9/LhTVJe/18I5cRTdusblJatSx6bejveFFJveSjYFxKD+qkDl75qMl1g06v84mhtpymLshNmMRlc8fyjZR9hRDilBUyiZ9XCh3m9FiUFYeD33XZXEe3uZraP5/oOLgBjM1Go2rH2NDq4w7Xkn3jFWiO/IUiexl6ypOcc23SUDs6VB3FaG7HtHFBf8+j//bx2vJFvDbpVlYseJY14z9i8Yn0+rVswlB9Len5l1MdO5Xoxi0cHGJMnDIxngiTnu5aIK4SY1cr7f8+mbF0Z5F2083ENf4vu21laMY+wCR/Zja07KW704Rhh31c4MjZvimSmtnt3DJVQ8MUM+Wfxg0x47ePjHgLXd8oOQBoayIw1ceyyJeZwgW38ugvphFd9iGPP7weSfmEEOLUFvR86YQpdJhzxkLtCE/scFZ1FKM5Fm3eLM+MuWoTLQ2jyfjBkmGdtRo3/SK0pnIMh3zt7ctGowJTy9e2sYfXkn35Wdayp4tyjC1mRmV930u872Eodx4XeBL2vcbyRWvYHnM5zz5+J1Pdn7iWvXR3qonNntVfVnVVRdPnO+kddzsTLk6hZfsQvX1xt5A2IQmj/j9OZVslKVc86v3+d76Im0xkNPS2ltqOfRZpV19MjF+N7KZZ7zkucESURPLKN32ce18jV0fHsGqI3r5pC9s5U6th/0Zr/+z2TZHUaJt48kHLoPslz7mH3/3iTFo/fJx7npGkTwghQkHI9Ph1dXVRUuLUU2IxoDrsV7FuGLzH0Y+nc861d1C4/A7AeVbvbmpeeRjufJSzl1/q2MVlZq9vRrnPtF3tGDcYeekrTLpgrKOEatu2P46qZynfMZFJF9jbaKf+P1tonZ7ndpTd1Gz8P+JuucIRr9Os3pZ/XseBH64j/96NTvuc6Mxea+9f3eLnueOea9jn0vO3m2MffI5u3vc4a/n3AMes3v4Er+pDDG0Xk67ewVFvnWXqLLLv2kg2YJ1tu5jd/b1qVTT941fw4+eYsNzpXDxm/g6i5XX0n09l8ux7mD75Husxtn9EY/T0IXd11v3hT/mG/+HM/lhh+Gf2Wr3+eTRLzzPQ9Xmi1167qPw6PvrI9qBzFGvvTOKRStvjkkhm/Ho0W546hv4jxz4uM3sLbmXR1Qnsf+ke1n4zvLELIYQYOWEZGRlBmxORkpLCL3/5S5YtWxasEE4x1lutRO6RX+Nw5XoLF2eq837P5FkajvmaxJ0uXG7h4rzCejuXK02JrrdnEUIIcVoI3VKvOG1EXnkP6eodlLklfWIgZt75mYGezxPckj4hhBCnu5Ap9YrTjdMNk03lHH3tYc8ZxcKV002Xuw6M4fsrT3ZOtRBCiG+bkCn1arVaLr30UtatWxeAyIQQQgghvn2k1CuEEEIIcZqQxE8IIYQQ4jQRMomf0WhEr/f2CxFCCCGEEMIXIZP4mUwmioqKgh2GEEIIIUTICpnETwghhBBCnBxJ/IQQQgghThNBvZ2LPyIjI5k5cyYbNmwIdihCCCGEECEpYDdwnjt3LhdeeKFP23q7r19ERARRUVHDHZbwZmYHu5c1o3NeVppE9iINfSfUoJFNG+vJCRuOtgZvu2V7KmctV+LPt5nrf1vHqvNNLsvK3s1g1kv+xNHLW29UMz3e9nBYz1EIIYQYHgH95Y7nn38eg8Ew4HqNRsPSpUt9a0yhw5wzFqr3ouocpgCHQdwP15Ef/xW7Xn4G09Cbn8JxRLDtyWRu2AT2pObomzqW3hTLW371Effy1hv15BwZqURIw6zZGf0x5g+02V0G9Ncd563Z8Sz1Fr/B6dxmdrB7WQXfpPmTRCq54aYMAJ78YwU3ncCZWNnO47D/CawQQggxlICO8auvr6e7u3vAf+3t7QPuazKZaGxsdCywGFCVVUFyHpaIAAR/WlNyw01JlMUZeOCRXsKG3sFJL0k6KNsTQr1fm2M4a10scdMaeXNWsIMRQgghhk/I/Fav0Whky5YtrgstBlSVakwZ6YSVVo58FjvlSc659iz688yOvRx86T4MnbYetgnRthWXcvbyS23/r6ZizTyqG4Gxiym4ZTKtf/5f1LfNZ0yU23quJXvJfCL3LKL44yNOx0yitn8bgLNIufNRMlNV/aG1bbPu41McJ0TD9iNwU0IvYdh6otxKwidSZvUoKzv3vHnr/ZrZwe5lHRzs740cwl0G9Nc5vlDcsLGDG2z/H7Sc+3IkZT9oJ2kcYDuOa0nYuUfUdwO34VYqnlZN+Ue2/xtce1oHj8PaTtLmDLZPqeCmXB/OVQghxGkjKIlffHw8ERGe3XQuPXpeaejNmkSPl6F+fekmNJX1fvZG+WHsYgquOoOWD35C2S7POFv+eR3b8KXEmkrGwvm0bVvENnui9oMlNPlckrUlfeFb2LXCcx/f4wDQ0ZN/Bn2GQ2jq2nw6OglmfhSm4a0Z1oTN8G4GZ70E1rF21exeYUvS3BIuflCB/gfgkez8CJ6YnWFLaqzj9R54JJK3h6vM+bKOzJd1Q5d6BxCfZk10f/TbOladr+Kt2WOs+99lQH9/LW/he/J3/aBt2EvFg5d6B2/DsV3ODyrIKU0i+woNfXcZ0F/XzNMv+3fuQgghvn2CkvitXr2a3Nxcj+UzZ84cYk8jyvIi16AjkjFlqFCNZNLXLxZt3iyUu96h9yRasffOAZhaDFgyxhAVDSZfxipOuZGU1AYq1gzDGMJRWizhcDxGS199G+F+JAXXz+xEV5rEOf29SBpe3KZmVX4314fF8pY94bIlc/zLW4+TkhsWxTg99tKreEro5brxJsreHeNInF6OZdusdvJn9RK2yZdYA9yG8+SSQyoMdJA5k/7eSyGEEKenoCR+t912m9flSuXA4ajVaiZPnuz66x0KHeb0WJQVh0e+zFv1LCWvQ8Etd1C4/A7ANYHzXTvGhtb+R92f3smOT33fOzIpEUVHE93dfh7Wm7ZyIovLfdy4l+x4oEnFO8fh8dEmyK3n6Edumxn8m3ntbUYtpX41MTJm9qILg+ZjSo5jJEln7UWz9lo6tPjcYG9A22hpckoCN8dw1uYYhBBCiJAZ46fRaMjMzHQkfk6zehU9AQqi6llKnnjW+v8pT3LOtU+S07DAa+l3pHTXN2KJSSIyEgyBnM0808j4eCjbbO1F+rpBzU1oT26m7l0GVp1/nG1PZvSXKU9uRuzwuX5mJzpi+PhlACX1BmDzyYyTO1XaEEIIcToL3V/usBhQHQ7irVya6+g2ey42tRiwJE8gIfFEGi3H2GJGHXeONSMfu5iCq5wmkwDs2YahK5WMHyxBPUhLJxeHOyOb7m9GV5rEJbaE4+3N0Rhy6/ns5yfe6vWpPUAE+s22BXcZ+icjWCk52gxxCfaZxLY4TuRgtnLnuXf5sO1dBladb6LsXfuYOCXrDqrJ+UEzT5/weAJf27Cd87hurvfYbjjiEEIIcToLaI9fbGwsra2tA64frNTb09NDV1fXSITlG/cZvVhLve69fd2fvkBV1qNkLtyI9a5u/sym3U3Nf/eTcq29nFxNxbsfwdWTnbZ5j6PPAEvmO83Y9Sw7n1wcAD1Mv78C/f3WRy3bU8la7lY+BHYvcy07+jOz9+3fJnDdG9WOmbYGHW9uU3OjU7J6/zvxzF5mLylHsO3JJPi1U2HTfRKJfTas+w2UN8fw+MxOVjmVSV1muuoMPL3RwNPYj5PhMlni7d+Ogd/WsWpjRf+sYJeJKh43vbbF7DQjd8g27Oe8KIlpG+sd8ZxAG0IIIYQ3AfvJtpP95Q4hhBBCCHFyQua3eoUQQgghxMkJ6hi/KVOm8MQTTwQzBCGEEEKI00bITO5QqVRMmDAh2GEIIYQQQoSskEn8oqKiKCgoCHYYQgghhBAhK2QSPyGEEEIIcXIk8RNCCCGEOE2ETOLX2trKunXrgh2GEEIIIUTICpnETwghhBBCnJyQ+a3eU0nujx7gF7PGomrfz9uP/5HNA/8YiRBCCCHEKSNkEj+lUklaWhp6vT64geT+iOsv0nLo7WX8UTI+IYQQQoSQkCn1RkdHU1hY6Fig0GHOm4w5OsCBjElEZ6xg/y5J+oQQQggRWkIm8fNgMaAqq4LkPCwRgTtsbqqOAB5OCCGEEGLYhG7iB9bkr7Kd3ox0+oIdixBCCCHEKS5kxvh1dHSwZcuX9GYV0hPlub4v3YSmsp6wEY5jTKIOY8WXSKVXCCGEEKEmZBI/i8VCY2MNysYa16AjkjFlqFCNcNJnn8nb8Plj/PrN6hE8khBCCCHEyAjtUq9Chzk9FmVF5YifSOk7j/OrhQvZpFvMU4tmoh3h4wkhhBBCDLeQSfwUCgWJiYlOC3SYc8ZC7WEUPYGLo67RgCZjImdL5ieEEEKIEBMyiV9MTAwzZsxwLLAYUB3ei6ozeDEJIYQQQoSSkEn8hBBCCCHEyZHEz0+l1QYCWFkWQgghhBg2IZP4dXZ2UlRUFOwwoK4RgyaDiTLITwghhBAhJmQSv97e3uD/Ti9A6Tu8/UUr465/gjVPLWKm5H9CCCGECBEhcx+/U0npO4/zq3eCHYUQQgghhH9CpscvPDycqCgvP9khhBBCCCF8EjKJX2xsLHPmzAl2GEIIIYQQIStkEj8hhBBCCHFyJPETQgghhDhNhEzi19XVRUlJSbDDQK1WU1hYGOwwhBBCCCH8FjKJn9lspri4ONhhoNFoyMzMDHYYQogRMmXeSh69dYLrwrS5LFl5D3OST6INcWrSzmDRyge5PjfYgQgRGEG9ncuePXvYs2dPMEMIPVE/4TfnXUWWynlhFwf3PcSTNTW2x2dw/dkPMydRbXtcz9Ztv+KVduujrPTHuT8/G7VTC/Vlj/HrI/tdjxV/L7+fWoj9VoWdte/w6N53qRswDud23GOwMR1g3fZHWG+CaeP/xPwMreux4+/l95Ni+NS2jTWGDPY5xT/08+EUq319n+O49timtq2yHfci7r5wEVOjBmjDy2FHlPb/UfCr2UQffJWit94adFPFlCeZfPUY6v92O9WnwG0uQ92UeSuZP7GJD1a5fck8tp6Pj6xk/qJb0T/8GoN9BfXWxl1P1PDgOWav29dtSpSi9KYAACAASURBVOO8JxXDEL1/psx7mEtr/8zqD2tPYG8dP3/8IqYn2B4aa1m/agfrquxtz2DxuEZeuH8/O4dsK4prllzEtekGlzYCpnUL7+79Dg/PX0D1khf5IsCHFyLQApb4zZ07lwsvvNCnbZctWzb0Rgod5pyxUL0XVedJBncywrWYc7KhdjeqjkAd1D3Rc2ZLuCJ28NQnf+QAtgRr+nPgnDw5JWDW5Ooe7u9yatOW9JnKHuN2W1KWlf4QP075imf7jztYHEd4e9dtvG0/ftxentpujceFqRlV3Ezy2e+5zqen4m88svlv2JO39FovCSxdGHqTmBSfwnqvsVp5TX5FkE1h3sr5ZB96gYdfG+Ee/ynzuKGwj+0vrGaDl1xoz9q3KFo5nzvuqWfV6g14TZcGaOPlZSm8DICF5/9cwyXto7nqHjVHR+REBjOFeY/dStyXq/jUtiRt7hIWjivm+dUfej8nD9ak78zWvSx/oJxKe+J237kQjMRtKBMLeOaXyRx5cRMv7va+Sc2bf+Hz3If50YPXU7vybUoDG+EwGkXcD19hXEIR+156mq5ghyNOSQHt8Xv++ecxGAwDrtdoNCxdutTrOq1Wy6WXXsq6deusCywGVGVgzsrDUnkYRYB+QLe1tdURA0BfK6qyo5izx9NrPojSFJg4BhR/LRcktrJ1myPJ2n7wb5ybuIi8pInQ7iWxad5OaVch6VHxQA1wEXcXFKKsfYcnnBKh8srHeHa44zVVcbhvAtempAyQQA6P+sYakjN+QH6Nl+TzVNP6e0pW/D7YUZxm0ph7+SQ0pZ/w0YD55R7WvlXEyvkXcMWEDXjmob60EWx7WPvQauYuWcr8HA2wnHtK17PK56QPUq86gzOja/lsTTmVAHTx/t8PMHFpAQVTo6HK32/iXbz/zMe87+dew6uGN//yObkPn8dlF71NqXT7iW+xgCZ+9fX19Pb2DrjebPZeChmQxYCqUo0pI52w0srgDVjsa0Wl12DKyST8kD6oAyenjc5D27aXL1zKol+wo/EnTE2cSf6R/Rjd9slKv5JJUfUU1dvLrdPIjapn955AlDnbONDYytWJ5zOmZgSP176b0tGXcVEsHPBWMj4pqSTfsZYM5f+x/6WnsX/sKaY8yeRrC2j79zWU7XRsl5Vm389Eff86QHMN2QsWMCbW+rDXa6nX+o0+f8IoxyKLvwlzGnOX3MuVORrb425KP1jFansX1ZR5rLw1ji8+aOGi6wvRAdDE9hcedkl2psxbyfxCne2R+/opzFt5K3Ff/A+HJt5qO5bbcTzagKbt9p49a09f/6ppd7NmWv9GvOBUbh24Dce5Tmt4hXcUN/dv57oNkHY2+amd7HllgJ48uz1FHDEUknvuBHAfc+xrG95M6WbrygZUW13Lvnc9UcODKaO48bZovprSzdaVHRz8cwzjf9bA2AgAFSV/HcPsNxxXnYt/1cTaKzuxjn7wXO+uq6ncj3ijOLcgHqoP8V/nnr2aRvYfO84V+aNJf9+R+GXNm8Hd02yvVUOZo/SbksEDS88kz3l4hVu5GCD1qkIe+l4KkQD0cOTDL3jsfdfE0nUbp+NMLOCZX+Zir0YnLLia8+yb7PiSe15pcj21mi2UVl9M4eSL4Av/Mz/r+/0s7O8qTPs49NQSmm0PVZf8makXpvdv7/L+1lxD9oLbCfvqVY6fb78GGKlffy1lX/tyDPfrwneZsvy71v9aaqh4/XaqK/w+JfEtFWI/2WamN6uQHi8/4NGXbkJTWU9YQOJQ0ZtxJj0xXuLINKHR1wYoDu86u2oYuF/VRp3PdRe/wXWAxxjA6ATHhWVQUYyftJpXJ9kfD1b6HVhN5YeUJV/Cuep3We/Xnv7YyfqKC7gjaSK0u6e+Vkk5D/FqjuOx19JvXC5dKRFEHC1G2d9MNQ07dpN8dQHaTOjUA4widlwOEXVbqXNK+jKU/8feFdbk0HoRf58cbMmf8X2OPvs+R23bjvWI0HZxP6OCQyusHyj2MX6eIunNnojZrEdT1eD0erQlfdpveGGhLXmaMo+V8+/jHpySsshcrr66lA9WLGRDrW2fm25lhy3h6h/HtuJBNtRay4X33v0ot7okf5HkXv1z0ko/YMXCDSjmLuHeS3/MnF22MuiUeVxu+TsLF1p3SJu7hHuvvIlbdzzMa8V7WPvgQtYOUep1j4O0uSy5924evdV1+4RpdzO/abv1nKfMY+V8+3Fsz8rZ+aQeN7C/2eMQbvZQdMTAxIRMkil2SZh8b8Nbs5G8tk/Fg/lGziearwCmdHPrJCj5R6T1MQDdXLIIPlucwYXFtsTwh+3cv0nLk7X2pK+PzxdnMK8YmNtG8S/q2Ig9+bOXep/mT80/49LaP/Np8t387p4vPXv9IpIx5aZATQlqg+t7xtjUbuvtG4Quh0tG72X5z8uptCV6N99Zy85XmqCmgscXOzKR1KsKeehy16umNaGLZe+LH1hLtBMLeOaXF/EQjuTPYxtn+0tY8vMSn0q9VjVsKa3m/DNSyQXPcm/YaHoKMuirP4Cm0TX5tL6X82lbP5vdX7vvaEv6piup+OtsawJm+5JXeANOX+40JF1+O/XrZ7Pta9t7/bJnaPnaljxqFzNuwGO00fLP69kmpV7hg6B0TsXHx5OcnOzxbzBGoxG9vhpleRFRxU7/SqtQ9NShDlDSp1QqycxMRVnhFsehShS9DagDkvTZEq7L3rD9e447Y/1swnSAdZ/fxO07i2g94Ti6OLjvHm7/5CbbvztOsFz7BTvaUvjO2IknHIkvypuK6R3zQ+aqva+vL3vM6Vxu8jLeLxxLTByERdIbE+2yxnLoK1q7RqPLP9e6QDMLXbqaxiJbD6D2enRpJsdjwLLnD9QeUxOfe4NvJ2Brs/5TRy/CgNRxWCLheLSWvgin5Wlnk596nNIvP3JMUNjzEV+VhZFWcDaOd2ET2/9iH6d2jPUf78MQlUBmMsAUCs/QUPrpP/rHsR1b/zH7DAnWnjAn3aUf9I+HO1bRTHekjqR4+3HX8oxTcnZs1wGqjVEkZPo4dZYpFJ6ho2nPRsd4umPr+XifgYTcc3GJxLmXsKkeg9txEpJ0aLqa0PvY9RWpSyLebZm/bbh7eWs0nSld/MwW+MWzuhjTE8XmTc6XaRUlf02wJnXAy2/EURXRw7h4AAs/mtRN86b4/vWsj+azCgsZ55rJBqyl3ntdJnTsWfsQ93op9R6PjcOCgr6YURw/kRMylPGXp2zl4JoK1u9tQ5MQS/pQ+wH2nkXjjj2OZG2/nv8cPk5q/mhbGzquvjDFdZthoNIl4PUVqNXSSxh9sVr6XFakMvq8s1AefMOld855fUJ2Or2lGx29bsb3qdpTiTLrXKfXUS/t21fa2mij/VAZRmUCmgzntjTE5/l4vRBiAEHp8Vu9ejW5uZ5z52fOnDngPiaTiaKiIteFCh3m9FiUFYcDlsFGR0dTWFiIXu80hTJcizkzDoX+YIDiGLxnLToqBR14lE3tPYGRzgub3+PLxoeZ6jT+r7yzCSPRBNL2hsPclDeT/CG7Kk9C11eUdJ/PpPhEyk6ogT4UVUV4/cVo4/tU7ZnL2bmziGYHxnHno404TIWtjKvITEZtaaa10XmnDoytbYQnZBINDDkySp2NJhZ8GkZqqkFd7OX1kZCETtPFIZfs5BgVzd1EZluTmQHzFnvSpsggPjKSnKuXs+Zq103cimd0Nekd7e1Zy4MLnde6lXMB6PZ9YH1aBvGR3RjqXdPgpnoDxonWJLXYdvBuQ70jWT62nmfuGbm+5RO2PprPrmlj2vcsUIw1iduRwpNDJpK9pJ7ZB8V9pMf3MSbjGPpZrlt0ehnau2ftowx2T4WwpgNEuf9BbawJXJNHr5+9J1DnbScgUhdNEgzdW4ia5Hg1urwLePVc1zXd9jdvSiwJkT00N3jvwR92LaVEtXhZrjmXyNheuisHuKoMsL6voQmjcow1sav34fitz1LyHBT86namL78da6L4CPs/2uHniYjTXVASv9tuu83rcqXSj3CcZvUGamKHV06zeoM+sQNbApUxzm0s20Wcm6ils/YgdUCWyx5HeFu/lwsm/ZC5Vfuts3yNdRjMhQNPBhkJze/xZc98Loo6we4SnxzhbX0Zj6dNGpG01ly0n/bpZ6LNHIVqXCbm3av7kw2LvhaTogBNItD/nSEGjXYUfS36oZO+4dJUj8E40drbZc+KSCMjPtI1OXKTlhFPZLeB+magtoLm7m76PnEdr+efNOYuuY3Cvu2OknPaXJbcO2uoHR2OVdDcHUl2kmu6au15O+RXz5u3ZHEw3p4rf9vwpOCdfZHMOdvI+VPCOSc2lnf/OsRtXjLM6CKUHPwmHDhOZXM4qTtSRvD2MF3sKGnmistHc97Ycirt4/FSEpmYFkbz4YGSsCiy49V0Gzp9ynHARG2zCUPZTs+xeHY17TR1RzB+tAYfvjb5zGxo8m+MpnEH3e0LSIjLAbwkYQOsDx+dgKa3CWMF+Di2xpr8rbBOsbOWlx8kp+HaAXoahfAuZG7g7MFiQHU4yLdyAevEjtJA3splCM3bKe1K4sIJi8i3LZo2/idMVRzgP1UDJHHN2ym15DtKrV1/Y2NNK0k593B/Skr/ZlnpD7HY6fHwOsJ/G81kJgzUVzBMmrdTrcknbSS+8rSupeagBt2kn6JLNWI44PQh0Po2hmNqEguX9iedqkseISu5huptg9+rz70Ne2nYY6C3L47t4kB1GLkXXNFfCk2bexPfzelkz8aBJiVM4Yrzczh+rIRdtWAd52Yk99If+3xDY08JJOk0TglUGnNv+i45HifTRL3B6Fm6xR6HgYQpsx1xTJnHDYUa11K2D47tOkB1WBoFZw91QtbysktPpt9tDOzz50axL7aNPz3QhGp3zBC9fRaev6aN6Joo/lwM9sQxflYza0fw3tHVX9dT1ZfMJTdn2UquUVxzcz55pio2vD/ABXliJt/JC6P6QIMPvX1gTzA1505hwVkDbWPgq9I2dINuAzR30twVQ15hwiAbAaQwIzcVc3O1n7dzqabpaCXK8TeRc84g63Nnk2ov22oXk3thCu273xp62MYALPo6L73/bXQaWglPLCAuw8tOQhBCkzs0Gg3Tpk1jy5YtQY2jvb2dDRs2BDWGwX3BC1vh7gsX8evLLrIuavuCpz4f7DYmX7C+4kruz7+LO+utkzy2H5xPXdfj3O80ecN6Q2Pn8qH75I7BbuB8kTUe5/sHuimv/JC6jEWM9Yg0iQunv4HjLpBOpW73GzjbJmgMfPPlL1hfeyX356tpdbviuk/u8P8Gzm20H9KjunYuCQdfpcjlhsrV1P79RSIXLGCy82w7pxsveyZy1pJOX519tnA1tf/ciM5e6rHUUPHPjWi/f6bPEcIx1j/zV5JWzuduxzRZjxm7kMC0u9fgmEj7Avc6bbBn7YP8ad5K5i9fg6Pa662dgdhvjXI1y2314qbtH1Kkm0Wce7xv/B/5917piNdpvN6etWv4cMm9XN0fh+fMYZ8c28WB6u8yq+BskjcMMit3SiFn6Jo4tMPLSfraxqBUfHgIHjxHzWf/663XzkzBbVXobUWTzv1jmOl0P8DPn0tgHk2sfbbC0bHsw8xev9RU8PjT8MDSM1nx0mQAusv2svz+8v6krrGuk+5pOdz9kv0N1cF/X/zIr7F41f8u4jEKeWjB1bzav9R1Zu+etVt4lhksdpqx6zJ72BbvXz9N4qHvOcrGXmf1pswgN7WLI5v9n9Fr/uxn7OTPTJ27kaS5toVOs3rNn93LAd0r5N+2EWs+5n+Z1vP6YG3DvbfP/NlvKM9eS5b9WDKrV7gJy8jIOKFxu/6aO3cuW7dupbV14KkEERER/OY3v/F6A2eP+/gJIUbGlHmsnJ/NIZ+TuG+JKfNYOX8iTQMmjj7cTHrINobmcgsXl7a72bqyhfZ/DGMSd4qwz+r9LGg3gE7hxoceprDpHyx5UW7iJ77dAtrjN9DNmYUQIuj2rOWtopXMd77ljJMp826wjkkcLBseoo0hzW3j/52j5LPFbknft83EPBbkVvPi+53YZ+dSvdf13oABlHLjHVwct5d/PCZJn/j2C1jit379etavP/GZdCaTicbGxqE3HGEKhQKdTndKxCKEGF72EvaPrpjABpcbPM/l8jOa+OD5wX+nd9A2BuG46bK1LDvv297Tuv8Y1XMu4tWXrENBusv28sRT5T6O/xtm2hn8YPJxNv9JfqdXnB4CVur1ZsaMGcyePdu33+Y9RUjJWQghhBCh6ts1UEQIIYQQQgxIEj8hhBBCiNNEyCR+arWawsLCYIdBR0dH0G8pI4QQQghxIkIm8dNoNGRmZgY7DCwWi0zsEEIIIURICpnETwghhBBCnJyQ+eWOnp4eurq6gh0G4eHhaDSaUyKWjGuWsviKLNSdh3jv6d/zcUOwIxJCCCHEqSxkevy6u7tPiZ9Ki42NZc6cOcEOAzKu4caZo9G/9xsW3idJnxBCCCGGFjKJn3AzejS63mMU75KMTwghhBC+Cd3ET6HDnDcZc3SQ4wjXYs49C3NMYA+bMTbe6ce6hRBCCCGGFjKJn0qlYsKECY4FFgOqsipIzsMSEbg4urq6KCkpcSzoa0VVdhTGjKdXHbg4hBBCCCH8FTKJX1RUFAUFBa4LLQZUle30ZqTTF6A4zGYzxcVuP6TZ14pK34IlMzNgcYweraP3WDFS6RVCCCGEr0JmVq+Vmd6sQnqiPNf0pZvQVNYTFpA4VPRmnEmPl/JuX6YJjb52xOKwz+Rt++pZ7nvl8AgdRQghhBDfRiGW+KlQlhe5Bh2RjClDhSpgSR+AGWWFWxzKMZhyNKhGMOkDqHj/aRa/D1PvfIJV/28TT//+Y6TTTwghhBC+CJlSb3t7u+ftXBQ6zOmxKCsqA3YiWq2W6667znVhuBZzZhwKvT5gcTQ0GFCmTeDs0QE6oBBCCCFCXsgkfn19fa43TVboMOeMhdrDKHqCFxfhWsw52VB3EKUpiHEIIYQQQgwhxEq9TiwGVIcNwY7COrGjdHewoxBCCCGEGFLI9PgplUoyMzODHQZGoxG9Xh/sMKioasYY7CCEEEIIEVJCJvGLjo6msLAw2GFgMpkoKioKdhjQ0IBBmcYEGeQnhBBCCB+FTOIn3FS8z5ubG8i89hHWrPp/XC75nxBCCCGGELpj/ET/rV2EEEIIIXwRMj1+HR0dbNmyJdhhEBkZyZw5c4IdhhBCCCGE30Im8bNYLDQ2NgY7DCIiIoiK8vLTIUIIIYQQp7iQSfyEEEIIIcTJCZnET6FQkJiYGOwwMJlMp0TPoxBCCCGEv0Im8YuJiWHGjBnBDgOj0XhKjDUUQgghhPBXyCR+wkEmmAghhBDiREjiF4JkgokQQgghTkTI3Mevs7PzlPjFDI1Gw7Rp06Tc62EaYxc9QkLVk3zz/mbfdom/ndw7biAx0vqw+xs/9g2CWXdfzk8nq22Putn35uf8blOP9eHFZ/LCzTHseGQrr1UP3db4Gy/g3llRHHRuQwghhBhhIdPj19vb6/obuQod5rzJmKMDG4darXadZBKuxZx7FuaYwMXgdYJJWCzmM86hZ1Tg4jhpza9Sumo221b8hqqmk2gn/nZy73uPcd8ZN2yhuZt19+X8NKuefyz9gNt//gFPbupi/I0Xc++siBE75olLZvGzV7Pyx9IrLIQQwlXIJH4eLAZUZVWQnIclmJ+9fa2oyo7CmPH0qofefDh4nWByvB1V2WHCRhfQqwlMHKeNvDwuye9j37+L+aTVuujgm/v4T5WKzMmJxJ1Akwff/JK7fv6p9PYJIYQIqJAp9YaHh6PRaOjq6nIstBhQVaoxZaQTVloZkCy2p6fHNQawJn96DaacTMIP6YOXTR9vR3W0kZ7x2VhKjqIY6eNlPcTkn16Ec6drd5XLBiT+ZDW5ObaeJ+MRyv66iPp6vw4ycBtupWJm/YHps6z/NZe/y77/eRnTMMQxfupokoyNbPnaOUlr47+HW/lOYRLnaqv5xL743DN54coM23PSzOb+0u8obnn4Qr471vkt51YuBsjL47Ff5ZOmsj5s37+T5X+opsU5ILdtHMdJZvGz5zLF3tE34xJetU+Erz7Aw48cxvHnSWPuknu5MqeT7S88zGvFvj0XQgghQlvIJH6xsbFceukM3tpZTY+XClZfuglNZT1hIxxHd3c3GzZ8Sm9GIT1eyrt9mSY0+toRj8MqHEv6OZhiPdf0ZpuIPFo9cnFkPcTknxZi2vRL9v7nEP1j/BwbWJOt+D3sX/Fb2oHouX9j8m1/BJ+TrqHaeJXSVa9SGn87uXdcQ/i2pRz6zyE/23DeNhZz7nh6u8rQVDe7PnftnZS0DhVvPDO/08k/ln7AJ622RO9neXz2yGGqaOP1Rzfwun3TvDwe+1Wm6+62hC7sy8+4/R9dWEu257LilziSP49tnNXy7OIP+vdL3PEZD3psI4QQ4nQWMomflQpleZFr0BHJmDJUqAKQ9DmYUVa4xaEcgylHgyoASZ9arWby5MkUFRWhqCzCJQ8OH03P+BgUI5n0AdGT8oko/9BLomUTP4u4FBPV71mTLYDOLz+jseAa4saPo75+gP2C2UaUFksEHA/T0qdsRtE7dPOumtm8eretHNzG61uqmfa9aAq0UDVk0mjrWWw4wIr+ZK2WD7c3ca+9V7EVZl2RTVrDAR4+6YTuGOufuYf1J9mKEEKI0BJiiZ8bhQ5zeizKisPBHawYrsWcGYdCfzAgcWg0GjIzMz1nOYfFYs5OJPxoyQiXebOIjBti4sCoNCIjdSTetJFUlxVGmn09TKDb6KpCU1zlvtQqdoAEbqiewNhoUqMBHxK/1MQYVKkJPPpSvtsx7EneKMbqFLQbOukYujkhhBDCQ8gkfl1dXZSUlDgWKHSYc8ZC9V4UARwfr1KpyMvLo7jYNigqXIs5Jxtqd6M0BS4OD2GxmHPyON7wNSpjEOOwaztGd7eB1vduouJwaLdxcGcD9RdlMuWcCD7pH483ivPytBgN5QMmYeNTo4lo76S607fjVDd2YK4+ygqXsXjO2qgyWPhuQjQx4DruTwghhPBByMzqNZvNjmQLrBM7Du9F5eOH6nCJioqioKDAsaCvFVXpblQB7ILxOsHkeDuqI18T0RaICMppO1IFyWeiTQL7+L6xCU6bNG+ipUZN6pzf4mUIom98baO5GGOXhtjsmXhMrB6OOA7XcbBOxaSrJnCZ1rpo/I2T+M7YNnb+s3qABCyZK6clYKyoZ4cPvX1gSzBH57NgkNuwbNpTR2fq4NtAF43NvaTmpTF2wG3SmLtkNWvW/I575iT7FqAQQoiQF5aRkXE8WAefMWMGs2fPZtmyZcEKwW9arZZLL72UdevWBTuUIHOdKdv9zVqOxd5IWvsfnG7C7DabFlxm1Eac/wcmXzYOlVvLg87IdWvDEY7rDOMTamNQbrNy2yv5x6O7+2/v4jnTFqq3DDK5wja5w7Bu8Fm94GVm78Vn8sLNGU6zqZ1nDw/QjsesXpgybyXzC3V0l37AqtUbqPX1qRBCCBGyJPHzkyR+YlgMlPgF0pR5rJxfiEYSPyGEOG2ETKk3MjKSOXPmBDsMWltbJekTJyCZO+9M7b/Z86wrskkzNrLn6+DdwHlK4RnoaGLPRkn6hBDidBEykzsiIiKIipKfoAIvE0xECKjlPx0X8PRLU62lbfdScSClzWXJvVeSo2mSmzcLIcRpJmQSP+Fgn2AiiV9oOfjml9z1ZrCjAI6t55l75A5+QghxOgqZUq/RaESv1wc7DJRKJZmZmUNvKIQQQghxigmZxM9kMnnesDgIoqOjKSwsDHYYQgghhBB+C5nETzjIBBMhhBBCnAhJ/IQQQgghThMhk/hpNBpmzJgR7DBob29nw4YNwQ5DCCGEEMJvITOrV61Wk5iYGOww6Ovr8/y5tICayp1P3ME5Wug89B5P//5jGoIYjRBCCCFCR8j0+Am7nbyybCELn/yIhszLuPny0cEOSAghhBAhImQSP5PJRGNjo2OBQoc5bzLm6IH3GQkKhcK15zFcizn3LMwxgY2Dil0crFGiGxM39LZCCCGEEIRQ4mc0GtmyZYtjgcWAqqwKkvOwRAQujpiYGNexhn2tqMqOwpjx9KoDF4cQQgghhL9CJvHzymJAVdlOb0Y6fcGMo68Vlb4FS2ZmcOMQQgghhBhEyEzusNLQmzWJHi8/2duXbkJTWU9YQOKw0JtRSI+X8m5fpgmNvjYAcVRQ1Wzkitzp5HGYwyN+PCGEEEKEupBJ/NRqNZMnT6KoqMg16IhkTBkqVAFK+jo7Oykq2oWyQu8ah3IMphwNqoAkfVY7X1nGzql38sSaNfR89Sy/eV3SPyGEEEIMLGQSP41GQ2ZmpuvPtil0mNNjUVYcDljNure31/M3g8O1mDPjUOgPBrR2PvXOJ7gjvZhnFy6UHj8hhBBCDCl0x/gpdJhzxkLtYRQ9QYwjXIs5JxvqDqI0BfLAGYyN19BQuk2SPiGEEEL4JGR6/DxYDKgOGwJ+2PDwcDQajeMmzn2tqEp3BzwOIYQQQgh/hUyPX2trK+vWrQt2GMTGxjJnzpxghyGEEEII4beQSfyEEEIIIcTJkcQvVGWczfiUXgx1LcGORAghhBAhImTG+KlUKvLy8iguLg5qHF1dXZSUlAQxgqnc+cQdnKOFzkPv8fTHDUGMRQghhBChJGQSv6ioKAoKCoKe+JnN5iDHsJNXlu0M4vGFEEIIEapOicRPp9O5PDYYAj9bVwghhBDi2+6USPyWLl3q8njZsmVBikQIIYQQ4tsrqImfvWfPl0Svvb2dDRs2jHRIQgghhBDfWiEzq7evr89x02QhhBBCCOG3kEn8hBBCCCHEyTklxvj5QqlUkpaWhl6vD1IEF7Jg1c1Mjob2/W/z+B830xqkSIQQQgghTkTI9PhFR0dTWFgYxAi28uJ9C1m4uNOuowAAAopJREFUehOt4+bwk5naIMYihBBCCOG/kEn8PCh0mPMmY44O8HFLd3G4ToMuOdAHFkIIIYQ4OaGb+FkMqMqqIDkPS0SwgxFCCCGEOPWFTOLX0dHBli1bXBdaDKgq2+nNSKcvOGF5cSELVq1hzVOLkGqwEEIIIU4lITO5w2Kx0NjYQW9WIT1Rnuv70k1oKusJG/FISqk29DAr92JSeZPqET+eEEIIIcTwCJnEz8qIsrzINeiIZEwZKlQBSfqstr54H1svXMCqNWto/fwxHnvTOf3byov3bQ1QJEIIIYQQvguZxE+hUKDT6WhsbHRaqMOcHouy4nBAa9YXLljFzQk7eWzhQunxE0IIIUTICJkxfjExMcyYMcOxQKHDnDMWag+j6AlkJLmk6iKoLv1ckj4hhBBChJSQ6fHzYDGgOmwIdhRe2G/0XM3njz3Gm5IdCiGEEOIUETI9fqGjjkaDGUgl9+LUYAcjhBBCCNEvZBK/zs5OioqKgh2GD0rZdbgOc7DDEEIIIYRwEzKJX29vbxB/p9dJ7tnkjTFiqO0caAPOzhuDqn0/X2yQOq8QQgghTh2hO8Yv4Oxj96B9/9v8cXOrl00WsOrmyUS37+ftx/+It02EEEIIIYJFEj+f+XB/vq0vIrfwE0IIIcSp6pQo9ep0Opd/3mi1Wq677roARyaEEEII8e1xSvT4LV261OXxsmXLghSJEEIIIcS3V1ATv4aGBkASPSGEEEKIQDglSr2+6OrqoqSkJNhhCCGEEEKErJBJ/MxmM8XFxcEOQwghhBAiZIVM4ieEEEIIIU6OJH5CCCGEEKeJkEn8IiMjmTNnTrDDEEIIIYQIWSGT+EVERBAVFRXsMIQQQgghQtb/BxnykticK00MAAAAAElFTkSuQmCC;" vertex="1" parent="6dMJGXCS0I9ftsZN87XB-1">
                    <mxGeometry x="1366" y="-1407" width="638" height="181" as="geometry"/>
                </mxCell>
                <mxCell id="Uqa2K-aG09tiZERfUiDg-56" value="https://zhuanlan.zhihu.com/p/369974105" style="text;html=1;align=center;verticalAlign=middle;resizable=0;points=[];autosize=1;strokeColor=none;fillColor=none;" vertex="1" parent="6dMJGXCS0I9ftsZN87XB-1">
                    <mxGeometry x="-120" y="-810" width="230" height="20" as="geometry"/>
                </mxCell>
                <mxCell id="Uqa2K-aG09tiZERfUiDg-57" value="&lt;h2 style=&quot;margin: 0px ; font-stretch: inherit ; font-size: 1.2em ; line-height: 1.5 ; font-family: , &amp;#34;blinkmacsystemfont&amp;#34; , &amp;#34;helvetica neue&amp;#34; , &amp;#34;pingfang sc&amp;#34; , &amp;#34;microsoft yahei&amp;#34; , &amp;#34;source han sans sc&amp;#34; , &amp;#34;noto sans cjk sc&amp;#34; , &amp;#34;wenquanyi micro hei&amp;#34; , sans-serif ; clear: left ; color: rgb(18 , 18 , 18) ; background-color: rgb(255 , 255 , 255)&quot;&gt;TSharedFromThis&lt;/h2&gt;" style="text;html=1;align=center;verticalAlign=middle;resizable=0;points=[];autosize=1;strokeColor=none;fillColor=none;" vertex="1" parent="6dMJGXCS0I9ftsZN87XB-1">
                    <mxGeometry x="-150" y="-775" width="140" height="30" as="geometry"/>
                </mxCell>
                <mxCell id="Uqa2K-aG09tiZERfUiDg-58" value="&lt;span style=&quot;color: rgb(18 , 18 , 18) ; font-family: , &amp;#34;blinkmacsystemfont&amp;#34; , &amp;#34;helvetica neue&amp;#34; , &amp;#34;pingfang sc&amp;#34; , &amp;#34;microsoft yahei&amp;#34; , &amp;#34;source han sans sc&amp;#34; , &amp;#34;noto sans cjk sc&amp;#34; , &amp;#34;wenquanyi micro hei&amp;#34; , sans-serif ; font-size: medium ; background-color: rgb(255 , 255 , 255)&quot;&gt;MakeShareable&lt;/span&gt;" style="text;html=1;align=center;verticalAlign=middle;resizable=0;points=[];autosize=1;strokeColor=none;fillColor=none;" vertex="1" parent="6dMJGXCS0I9ftsZN87XB-1">
                    <mxGeometry x="-150" y="-740" width="130" height="20" as="geometry"/>
                </mxCell>
                <mxCell id="Uqa2K-aG09tiZERfUiDg-59" value="&lt;span style=&quot;color: rgb(18 , 18 , 18) ; font-family: , &amp;#34;blinkmacsystemfont&amp;#34; , &amp;#34;helvetica neue&amp;#34; , &amp;#34;pingfang sc&amp;#34; , &amp;#34;microsoft yahei&amp;#34; , &amp;#34;source han sans sc&amp;#34; , &amp;#34;noto sans cjk sc&amp;#34; , &amp;#34;wenquanyi micro hei&amp;#34; , sans-serif ; font-size: medium ; background-color: rgb(255 , 255 , 255)&quot;&gt;MakeShared&lt;/span&gt;" style="text;html=1;align=center;verticalAlign=middle;resizable=0;points=[];autosize=1;strokeColor=none;fillColor=none;" vertex="1" parent="6dMJGXCS0I9ftsZN87XB-1">
                    <mxGeometry x="-150" y="-710" width="110" height="20" as="geometry"/>
                </mxCell>
                <mxCell id="Uqa2K-aG09tiZERfUiDg-60" value="FRawPtrProxy" style="swimlane;fontStyle=1;align=center;verticalAlign=top;childLayout=stackLayout;horizontal=1;startSize=26;horizontalStack=0;resizeParent=1;resizeParentMax=0;resizeLast=0;collapsible=1;marginBottom=0;" vertex="1" parent="6dMJGXCS0I9ftsZN87XB-1">
                    <mxGeometry x="480" y="-276" width="160" height="86" as="geometry"/>
                </mxCell>
                <mxCell id="Uqa2K-aG09tiZERfUiDg-61" value="+ field: type" style="text;strokeColor=none;fillColor=none;align=left;verticalAlign=top;spacingLeft=4;spacingRight=4;overflow=hidden;rotatable=0;points=[[0,0.5],[1,0.5]];portConstraint=eastwest;" vertex="1" parent="Uqa2K-aG09tiZERfUiDg-60">
                    <mxGeometry y="26" width="160" height="26" as="geometry"/>
                </mxCell>
                <mxCell id="Uqa2K-aG09tiZERfUiDg-62" value="" style="line;strokeWidth=1;fillColor=none;align=left;verticalAlign=middle;spacingTop=-1;spacingLeft=3;spacingRight=3;rotatable=0;labelPosition=right;points=[];portConstraint=eastwest;" vertex="1" parent="Uqa2K-aG09tiZERfUiDg-60">
                    <mxGeometry y="52" width="160" height="8" as="geometry"/>
                </mxCell>
                <mxCell id="Uqa2K-aG09tiZERfUiDg-63" value="+ method(type): type" style="text;strokeColor=none;fillColor=none;align=left;verticalAlign=top;spacingLeft=4;spacingRight=4;overflow=hidden;rotatable=0;points=[[0,0.5],[1,0.5]];portConstraint=eastwest;" vertex="1" parent="Uqa2K-aG09tiZERfUiDg-60">
                    <mxGeometry y="60" width="160" height="26" as="geometry"/>
                </mxCell>
            </root>
        </mxGraphModel>
    </diagram>
</mxfile>